<svg xmlns="http://www.w3.org/2000/svg" xmlns:xlink="http://www.w3.org/1999/xlink" width="256" height="256" viewBox="0 0 256 256">
    <defs>
        <linearGradient id="prefix__b" x1="50%" x2="50%" y1="-.693%" y2="100.671%">
            <stop offset="0%" stop-color="#FECF57"/>
            <stop offset="10.196%" stop-color="#C99548"/>
            <stop offset="41.176%" stop-color="#F8EAAB"/>
            <stop offset="63.922%" stop-color="#B96D2B"/>
            <stop offset="81.961%" stop-color="#E49F4E"/>
            <stop offset="100%" stop-color="#A65C28"/>
        </linearGradient>
        <linearGradient id="prefix__d" x1="100%" x2="0%" y1="50%" y2="50%">
            <stop offset="0%" stop-color="#06512F"/>
            <stop offset="100%" stop-color="#8ABE2E"/>
        </linearGradient>
        <linearGradient id="prefix__e" x1="100%" x2="0%" y1="49.998%" y2="49.998%">
            <stop offset="0%" stop-color="#06512F"/>
            <stop offset="100%" stop-color="#8ABE2E"/>
        </linearGradient>
        <linearGradient id="prefix__f" x1="50%" x2="50%" y1="100%" y2="0%">
            <stop offset="0%" stop-color="#E95229"/>
            <stop offset="23.137%" stop-color="#E95229"/>
            <stop offset="61.961%" stop-color="#F08630"/>
            <stop offset="100%" stop-color="#F9B33B"/>
        </linearGradient>
        <linearGradient id="prefix__g" x1="0%" x2="100%" y1="50%" y2="50%">
            <stop offset="0%" stop-color="#E95229"/>
            <stop offset="23.137%" stop-color="#E95229"/>
            <stop offset="61.961%" stop-color="#F08630"/>
            <stop offset="100%" stop-color="#F9B33B"/>
        </linearGradient>
        <linearGradient id="prefix__h" x1="0%" x2="100%" y1="50%" y2="50%">
            <stop offset="0%" stop-color="#06512F"/>
            <stop offset="100%" stop-color="#8ABE2E"/>
        </linearGradient>
        <linearGradient id="prefix__i" x1="100%" x2="0%" y1="49.996%" y2="49.996%">
            <stop offset="0%" stop-color="#06512F"/>
            <stop offset="100%" stop-color="#8ABE2E"/>
        </linearGradient>
        <linearGradient id="prefix__j" x1="50%" x2="50%" y1="100%" y2=".004%">
            <stop offset="0%" stop-color="#E95229"/>
            <stop offset="23.137%" stop-color="#E95229"/>
            <stop offset="61.961%" stop-color="#F08630"/>
            <stop offset="100%" stop-color="#F9B33B"/>
        </linearGradient>
        <linearGradient id="prefix__k" x1="50%" x2="50%" y1="99.996%" y2="0%">
            <stop offset="0%" stop-color="#E95229"/>
            <stop offset="23.137%" stop-color="#E95229"/>
            <stop offset="61.961%" stop-color="#F08630"/>
            <stop offset="100%" stop-color="#F9B33B"/>
        </linearGradient>
        <linearGradient id="prefix__l" x1="50%" x2="50%" y1="99.996%" y2="0%">
            <stop offset="0%" stop-color="#374B2F"/>
            <stop offset="3.137%" stop-color="#374B2F"/>
            <stop offset="52.157%" stop-color="#44793B"/>
            <stop offset="100%" stop-color="#55AE3E"/>
        </linearGradient>
        <linearGradient id="prefix__m" x1="50%" x2="50%" y1="100%" y2="0%">
            <stop offset="0%" stop-color="#374B2F"/>
            <stop offset="3.137%" stop-color="#374B2F"/>
            <stop offset="52.157%" stop-color="#44793B"/>
            <stop offset="100%" stop-color="#55AE3E"/>
        </linearGradient>
        <linearGradient id="prefix__n" x1="50%" x2="50%" y1="-.692%" y2="100.671%">
            <stop offset="0%" stop-color="#FECF57"/>
            <stop offset="10.196%" stop-color="#C99548"/>
            <stop offset="41.176%" stop-color="#F8EAAB"/>
            <stop offset="63.922%" stop-color="#B96D2B"/>
            <stop offset="81.961%" stop-color="#E49F4E"/>
            <stop offset="100%" stop-color="#A65C28"/>
        </linearGradient>
        <linearGradient id="prefix__o" x1="50%" x2="50%" y1="-.692%" y2="100.671%">
            <stop offset="0%" stop-color="#FECF57"/>
            <stop offset="10.196%" stop-color="#C99548"/>
            <stop offset="41.176%" stop-color="#F8EAAB"/>
            <stop offset="63.922%" stop-color="#B96D2B"/>
            <stop offset="81.961%" stop-color="#E49F4E"/>
            <stop offset="100%" stop-color="#A65C28"/>
        </linearGradient>
        <linearGradient id="prefix__p" x1="-1.104%" x2="101.103%" y1="98.275%" y2="1.732%">
            <stop offset="0%" stop-color="#06512F"/>
            <stop offset="100%" stop-color="#8ABE2E"/>
        </linearGradient>
        <linearGradient id="prefix__q" x1="89.205%" x2="10.795%" y1="105.844%" y2="-5.844%">
            <stop offset="0%" stop-color="#40AA3F"/>
            <stop offset="12.157%" stop-color="#40AA3F"/>
            <stop offset="85.098%" stop-color="#2E7038"/>
            <stop offset="100%" stop-color="#2E7038"/>
        </linearGradient>
        <linearGradient id="prefix__r" x1="93.116%" x2="6.863%" y1="103.215%" y2="-3.236%">
            <stop offset="0%" stop-color="#40AA3F"/>
            <stop offset="12.157%" stop-color="#40AA3F"/>
            <stop offset="85.098%" stop-color="#2E7038"/>
            <stop offset="100%" stop-color="#2E7038"/>
        </linearGradient>
        <circle id="prefix__a" cx="128" cy="128" r="128"/>
    </defs>
    <g fill="none" fill-rule="evenodd">
        <mask id="prefix__c" fill="#fff">
            <use xlink:href="#prefix__a"/>
        </mask>
        <use fill="url(#prefix__b)" xlink:href="#prefix__a"/>
        <circle cx="128" cy="128" r="126" mask="url(#prefix__c)"/>
        <path fill="#FEFEFE" d="M127.5 4C195.708 4 251 59.293 251 127.5S195.707 251 127.5 251 4 195.707 4 127.5 59.293 4 127.5 4z" mask="url(#prefix__c)"/>
        <g mask="url(#prefix__c)">
            <g>
                <path fill="#FEFEFE" d="M130.276 43.483L173.643 43.483 173.643.078 130.276.078zM86.909 43.483L130.276 43.483 130.276.078 86.909.078z" transform="translate(-46 -2)"/>
                <path fill="#2B2A29" d="M86.909 43.483L86.909 0.078 43.541 0.078z" transform="translate(-46 -2)"/>
                <path fill="#FEFEFE" d="M43.541 0.078L43.541 43.483 86.909 43.483z" transform="translate(-46 -2)"/>
                <path fill="#8ABE2E" d="M108.592 21.781L130.276 0.078 86.909 0.078z" transform="translate(-46 -2)"/>
                <path fill="url(#prefix__d)" d="M86.909 43.483L130.276 43.483 108.592 21.781z" transform="translate(-46 -2)"/>
                <path fill="#E95229" d="M130.276 43.483L173.643 43.483 173.643 0.078 130.276 0.078z" transform="translate(-46 -2)"/>
                <path fill="url(#prefix__e)" d="M130.276 130.292L130.276 86.889 86.909 86.889 86.909 130.292z" transform="translate(-46 -2)"/>
                <path fill="url(#prefix__f)" d="M43.541 86.889L43.541 130.292 86.909 130.292 86.909 86.889z" transform="translate(-46 -2)"/>
                <path fill="#2B2A29" d="M130.276 130.292L173.643 130.292 173.643 86.887 130.276 86.887z" transform="translate(-46 -2)"/>
                <path fill="#FEFEFE" d="M86.909 86.887L130.276 86.887 130.276 43.483 86.909 43.483zM43.541 86.887L86.909 86.887 86.909 43.483 43.541 43.483z" transform="translate(-46 -2)"/>
                <path fill="url(#prefix__g)" d="M130.276 86.887L173.643 86.887 130.276 43.483z" transform="translate(-46 -2)"/>
                <path fill="url(#prefix__h)" d="M173.643 86.887L173.643 43.483 130.276 43.483z" transform="translate(-46 -2)"/>
                <path fill="#2B2A29" d="M86.909 49.187L130.276 49.187 130.276 47.672 86.909 47.672zM86.909 51.979L130.276 51.979 130.276 50.465 86.909 50.465zM86.909 54.774L130.276 54.774 130.276 53.257 86.909 53.257zM86.909 57.564L130.276 57.564 130.276 56.05 86.909 56.05zM86.909 60.357L130.276 60.357 130.276 58.842 86.909 58.842zM86.909 63.151L130.276 63.151 130.276 61.635 86.909 61.635zM86.909 65.943L130.276 65.943 130.276 64.427 86.909 64.427zM86.909 68.736L130.276 68.736 130.276 67.219 86.909 67.219zM86.909 71.528L130.276 71.528 130.276 70.014 86.909 70.014zM86.909 74.321L130.276 74.321 130.276 72.806 86.909 72.806zM86.909 77.113L130.276 77.113 130.276 75.598 86.909 75.598zM86.909 79.905L130.276 79.905 130.276 78.391 86.909 78.391zM86.909 82.7L130.276 82.7 130.276 81.183 86.909 81.183zM86.909 85.49L130.276 85.49 130.276 83.976 86.909 83.976zM86.909 46.395L130.276 46.395 130.276 44.88 86.909 44.88zM46.168 51.288c0-.602.487-1.089 1.087-1.089s1.087.487 1.087 1.089c0 .6-.487 1.087-1.087 1.087s-1.087-.488-1.087-1.087zM46.168 55.92c0-.601.487-1.087 1.087-1.087s1.087.486 1.087 1.087c0 .602-.487 1.089-1.087 1.089s-1.087-.487-1.087-1.089zM46.168 60.553c0-.602.487-1.087 1.087-1.087s1.087.485 1.087 1.087c0 .601-.487 1.087-1.087 1.087s-1.087-.486-1.087-1.087zM46.168 65.185c0-.601.487-1.087 1.087-1.087s1.087.486 1.087 1.087c0 .602-.487 1.089-1.087 1.089s-1.087-.487-1.087-1.089zM46.168 69.818c0-.6.487-1.087 1.087-1.087s1.087.487 1.087 1.087c0 .601-.487 1.088-1.087 1.088s-1.087-.487-1.087-1.088zM46.168 74.45c0-.6.487-1.087 1.087-1.087s1.087.487 1.087 1.087c0 .601-.487 1.089-1.087 1.089s-1.087-.488-1.087-1.089zM46.168 79.083c0-.6.487-1.087 1.087-1.087s1.087.487 1.087 1.087-.487 1.088-1.087 1.088-1.087-.487-1.087-1.088zM46.168 46.654c0-.6.487-1.087 1.087-1.087s1.087.487 1.087 1.087-.487 1.088-1.087 1.088-1.087-.487-1.087-1.088zM48.34 83.776c-.033.6-.545 1.058-1.144 1.026-.6-.032-1.059-.545-1.027-1.145.034-.6.547-1.06 1.146-1.027.6.034 1.059.547 1.025 1.146zM51.31 51.288c0-.602.487-1.089 1.088-1.089.6 0 1.086.487 1.086 1.089 0 .6-.487 1.087-1.086 1.087-.6 0-1.088-.488-1.088-1.087zM51.31 55.92c0-.601.487-1.087 1.088-1.087.6 0 1.086.486 1.086 1.087 0 .602-.487 1.089-1.086 1.089-.6 0-1.088-.487-1.088-1.089zM51.31 60.553c0-.602.487-1.087 1.088-1.087.6 0 1.086.485 1.086 1.087 0 .601-.487 1.087-1.086 1.087-.6 0-1.088-.486-1.088-1.087zM51.31 65.185c0-.601.487-1.087 1.088-1.087.6 0 1.086.486 1.086 1.087 0 .602-.487 1.089-1.086 1.089-.6 0-1.088-.487-1.088-1.089zM51.31 69.818c0-.6.487-1.087 1.088-1.087.6 0 1.086.487 1.086 1.087 0 .601-.487 1.088-1.086 1.088-.6 0-1.088-.487-1.088-1.088zM51.31 74.45c0-.6.487-1.087 1.088-1.087.6 0 1.086.487 1.086 1.087 0 .601-.487 1.089-1.086 1.089-.6 0-1.088-.488-1.088-1.089zM51.31 79.083c0-.6.487-1.087 1.088-1.087.6 0 1.086.487 1.086 1.087s-.487 1.088-1.086 1.088c-.6 0-1.088-.487-1.088-1.088zM51.31 46.654c0-.6.487-1.087 1.088-1.087.6 0 1.086.487 1.086 1.087s-.487 1.088-1.086 1.088c-.6 0-1.088-.487-1.088-1.088zM53.482 83.776c-.032.6-.544 1.058-1.145 1.026-.6-.032-1.057-.545-1.025-1.145.032-.6.545-1.06 1.146-1.027.599.034 1.057.547 1.024 1.146zM56.378 51.288c0-.602.487-1.089 1.088-1.089.6 0 1.088.487 1.088 1.089 0 .6-.487 1.087-1.088 1.087-.601 0-1.088-.488-1.088-1.087zM56.378 55.92c0-.601.487-1.087 1.088-1.087.6 0 1.088.486 1.088 1.087 0 .602-.487 1.089-1.088 1.089-.601 0-1.088-.487-1.088-1.089zM56.378 60.553c0-.602.487-1.087 1.088-1.087.6 0 1.088.485 1.088 1.087 0 .601-.487 1.087-1.088 1.087-.601 0-1.088-.486-1.088-1.087zM56.378 65.185c0-.601.487-1.087 1.088-1.087.6 0 1.088.486 1.088 1.087 0 .602-.487 1.089-1.088 1.089-.601 0-1.088-.487-1.088-1.089zM56.378 69.818c0-.6.487-1.087 1.088-1.087.6 0 1.088.487 1.088 1.087 0 .601-.487 1.088-1.088 1.088-.601 0-1.088-.487-1.088-1.088zM56.378 74.45c0-.6.487-1.087 1.088-1.087.6 0 1.088.487 1.088 1.087 0 .601-.487 1.089-1.088 1.089-.601 0-1.088-.488-1.088-1.089zM56.378 79.083c0-.6.487-1.087 1.088-1.087.6 0 1.088.487 1.088 1.087s-.487 1.088-1.088 1.088c-.601 0-1.088-.487-1.088-1.088zM56.378 46.654c0-.6.487-1.087 1.088-1.087.6 0 1.088.487 1.088 1.087s-.487 1.088-1.088 1.088c-.601 0-1.088-.487-1.088-1.088zM58.552 83.776c-.034.6-.547 1.058-1.146 1.026-.599-.032-1.059-.545-1.026-1.145.032-.6.546-1.06 1.145-1.027.6.034 1.06.547 1.027 1.146zM61.52 51.288c0-.602.487-1.089 1.088-1.089.601 0 1.086.487 1.086 1.089 0 .6-.485 1.087-1.086 1.087-.6 0-1.087-.488-1.087-1.087zM61.52 55.92c0-.601.487-1.087 1.088-1.087.601 0 1.086.486 1.086 1.087 0 .602-.485 1.089-1.086 1.089-.6 0-1.087-.487-1.087-1.089zM61.52 60.553c0-.602.487-1.087 1.088-1.087.601 0 1.086.485 1.086 1.087 0 .601-.485 1.087-1.086 1.087-.6 0-1.087-.486-1.087-1.087zM61.52 65.185c0-.601.487-1.087 1.088-1.087.601 0 1.086.486 1.086 1.087 0 .602-.485 1.089-1.086 1.089-.6 0-1.087-.487-1.087-1.089zM61.52 69.818c0-.6.487-1.087 1.088-1.087.601 0 1.086.487 1.086 1.087 0 .601-.485 1.088-1.086 1.088-.6 0-1.087-.487-1.087-1.088zM61.52 74.45c0-.6.487-1.087 1.088-1.087.601 0 1.086.487 1.086 1.087 0 .601-.485 1.089-1.086 1.089-.6 0-1.087-.488-1.087-1.089zM61.52 79.083c0-.6.487-1.087 1.088-1.087.601 0 1.086.487 1.086 1.087s-.485 1.088-1.086 1.088c-.6 0-1.087-.487-1.087-1.088zM61.52 46.654c0-.6.487-1.087 1.088-1.087.601 0 1.086.487 1.086 1.087s-.485 1.088-1.086 1.088c-.6 0-1.087-.487-1.087-1.088zM63.693 83.776c-.033.6-.545 1.058-1.146 1.026-.597-.032-1.057-.545-1.025-1.145.034-.6.545-1.06 1.146-1.027.6.034 1.059.547 1.025 1.146zM66.755 51.288c0-.602.487-1.089 1.088-1.089.6 0 1.086.487 1.086 1.089 0 .6-.487 1.087-1.086 1.087-.601 0-1.088-.488-1.088-1.087zM66.755 55.92c0-.601.487-1.087 1.088-1.087.6 0 1.086.486 1.086 1.087 0 .602-.487 1.089-1.086 1.089-.601 0-1.088-.487-1.088-1.089zM66.755 60.553c0-.602.487-1.087 1.088-1.087.6 0 1.086.485 1.086 1.087 0 .601-.487 1.087-1.086 1.087-.601 0-1.088-.486-1.088-1.087zM66.755 65.185c0-.601.487-1.087 1.088-1.087.6 0 1.086.486 1.086 1.087 0 .602-.487 1.089-1.086 1.089-.601 0-1.088-.487-1.088-1.089zM66.755 69.818c0-.6.487-1.087 1.088-1.087.6 0 1.086.487 1.086 1.087 0 .601-.487 1.088-1.086 1.088-.601 0-1.088-.487-1.088-1.088zM66.755 74.45c0-.6.487-1.087 1.088-1.087.6 0 1.086.487 1.086 1.087 0 .601-.487 1.089-1.086 1.089-.601 0-1.088-.488-1.088-1.089zM66.755 79.083c0-.6.487-1.087 1.088-1.087.6 0 1.086.487 1.086 1.087s-.487 1.088-1.086 1.088c-.601 0-1.088-.487-1.088-1.088zM66.755 46.654c0-.6.487-1.087 1.088-1.087.6 0 1.086.487 1.086 1.087s-.487 1.088-1.086 1.088c-.601 0-1.088-.487-1.088-1.088zM68.927 83.776c-.032.6-.544 1.058-1.145 1.026-.598-.032-1.057-.545-1.025-1.145.032-.6.545-1.06 1.145-1.027.6.034 1.058.547 1.025 1.146zM71.898 51.288c0-.602.487-1.089 1.086-1.089.6 0 1.088.487 1.088 1.089 0 .6-.487 1.087-1.088 1.087-.6 0-1.086-.488-1.086-1.087zM71.898 55.92c0-.601.487-1.087 1.086-1.087.6 0 1.088.486 1.088 1.087 0 .602-.487 1.089-1.088 1.089-.6 0-1.086-.487-1.086-1.089zM71.898 60.553c0-.602.487-1.087 1.086-1.087.6 0 1.088.485 1.088 1.087 0 .601-.487 1.087-1.088 1.087-.6 0-1.086-.486-1.086-1.087zM71.898 65.185c0-.601.487-1.087 1.086-1.087.6 0 1.088.486 1.088 1.087 0 .602-.487 1.089-1.088 1.089-.6 0-1.086-.487-1.086-1.089zM71.898 69.818c0-.6.487-1.087 1.086-1.087.6 0 1.088.487 1.088 1.087 0 .601-.487 1.088-1.088 1.088-.6 0-1.086-.487-1.086-1.088zM71.898 74.45c0-.6.487-1.087 1.086-1.087.6 0 1.088.487 1.088 1.087 0 .601-.487 1.089-1.088 1.089-.6 0-1.086-.488-1.086-1.089zM71.898 79.083c0-.6.487-1.087 1.086-1.087.6 0 1.088.487 1.088 1.087s-.487 1.088-1.088 1.088c-.6 0-1.086-.487-1.086-1.088zM71.898 46.654c0-.6.487-1.087 1.086-1.087.6 0 1.088.487 1.088 1.087s-.487 1.088-1.088 1.088c-.6 0-1.086-.487-1.086-1.088zM74.07 83.776c-.034.6-.547 1.058-1.146 1.026-.599-.032-1.057-.545-1.025-1.145.033-.6.545-1.06 1.144-1.027.601.034 1.06.547 1.027 1.146zM76.965 51.288c0-.602.487-1.089 1.088-1.089.6 0 1.086.487 1.086 1.089 0 .6-.487 1.087-1.086 1.087-.6 0-1.088-.488-1.088-1.087zM76.965 55.92c0-.601.487-1.087 1.088-1.087.6 0 1.086.486 1.086 1.087 0 .602-.487 1.089-1.086 1.089-.6 0-1.088-.487-1.088-1.089zM76.965 60.553c0-.602.487-1.087 1.088-1.087.6 0 1.086.485 1.086 1.087 0 .601-.487 1.087-1.086 1.087-.6 0-1.088-.486-1.088-1.087zM76.965 65.185c0-.601.487-1.087 1.088-1.087.6 0 1.086.486 1.086 1.087 0 .602-.487 1.089-1.086 1.089-.6 0-1.088-.487-1.088-1.089zM76.965 69.818c0-.6.487-1.087 1.088-1.087.6 0 1.086.487 1.086 1.087 0 .601-.487 1.088-1.086 1.088-.6 0-1.088-.487-1.088-1.088zM76.965 74.45c0-.6.487-1.087 1.088-1.087.6 0 1.086.487 1.086 1.087 0 .601-.487 1.089-1.086 1.089-.6 0-1.088-.488-1.088-1.089zM76.965 79.083c0-.6.487-1.087 1.088-1.087.6 0 1.086.487 1.086 1.087s-.487 1.088-1.086 1.088c-.6 0-1.088-.487-1.088-1.088zM76.965 46.654c0-.6.487-1.087 1.088-1.087.6 0 1.086.487 1.086 1.087s-.487 1.088-1.086 1.088c-.6 0-1.088-.487-1.088-1.088zM79.138 83.776c-.033.6-.545 1.058-1.146 1.026-.598-.032-1.057-.545-1.025-1.145.033-.6.545-1.06 1.146-1.027.599.034 1.059.547 1.025 1.146zM82.108 51.288c0-.602.487-1.089 1.086-1.089.601 0 1.088.487 1.088 1.089 0 .6-.487 1.087-1.088 1.087-.6 0-1.086-.488-1.086-1.087zM82.108 55.92c0-.601.487-1.087 1.086-1.087.601 0 1.088.486 1.088 1.087 0 .602-.487 1.089-1.088 1.089-.6 0-1.086-.487-1.086-1.089zM82.108 60.553c0-.602.487-1.087 1.086-1.087.601 0 1.088.485 1.088 1.087 0 .601-.487 1.087-1.088 1.087-.6 0-1.086-.486-1.086-1.087zM82.108 65.185c0-.601.487-1.087 1.086-1.087.601 0 1.088.486 1.088 1.087 0 .602-.487 1.089-1.088 1.089-.6 0-1.086-.487-1.086-1.089zM82.108 69.818c0-.6.487-1.087 1.086-1.087.601 0 1.088.487 1.088 1.087 0 .601-.487 1.088-1.088 1.088-.6 0-1.086-.487-1.086-1.088zM82.108 74.45c0-.6.487-1.087 1.086-1.087.601 0 1.088.487 1.088 1.087 0 .601-.487 1.089-1.088 1.089-.6 0-1.086-.488-1.086-1.089zM82.108 79.083c0-.6.487-1.087 1.086-1.087.601 0 1.088.487 1.088 1.087s-.487 1.088-1.088 1.088c-.6 0-1.086-.487-1.086-1.088zM82.108 46.654c0-.6.487-1.087 1.086-1.087.601 0 1.088.487 1.088 1.087s-.487 1.088-1.088 1.088c-.6 0-1.086-.487-1.086-1.088zM84.28 83.776c-.034.6-.545 1.058-1.145 1.026-.6-.032-1.06-.545-1.025-1.145.032-.6.545-1.06 1.145-1.027.598.034 1.058.547 1.025 1.146z" transform="translate(-46 -2)"/>
                <path fill="#8ABE2E" d="M130.276 86.887L130.276 43.483 86.909 43.483z" transform="translate(-46 -2)"/>
                <path fill="#E95229" d="M43.541 86.887L86.909 86.887 86.909 43.483z" transform="translate(-46 -2)"/>
                <path fill="url(#prefix__f)" d="M130.276 43.483L173.643 43.483 173.643 0.078 130.276 0.078z" transform="translate(-46 -2)"/>
                <path fill="#FEFEFE" d="M130.143 173.841L173.511 173.841 173.511 130.435 130.143 130.435zM86.776 173.841L130.143 173.841 130.143 130.435 86.776 130.435z" transform="translate(-46 -2)"/>
                <path fill="#2B2A29" d="M86.776 173.841L86.776 130.435 43.408 130.435z" transform="translate(-46 -2)"/>
                <path fill="#FEFEFE" d="M43.408 130.435L43.408 173.839 86.776 173.839z" transform="translate(-46 -2)"/>
                <path fill="#8ABE2E" d="M108.459 152.139L130.143 130.435 86.776 130.435z" transform="translate(-46 -2)"/>
                <path fill="url(#prefix__i)" d="M86.776 173.841L130.143 173.841 108.459 152.137z" transform="translate(-46 -2)"/>
                <path fill="#E95229" d="M130.143 173.841L173.511 173.841 173.511 130.435 130.143 130.435z" transform="translate(-46 -2)"/>
                <path fill="url(#prefix__d)" d="M130.143 260.65L130.143 217.246 86.776 217.246 86.776 260.65z" transform="translate(-46 -2)"/>
                <path fill="url(#prefix__f)" d="M43.408 217.246L43.408 260.65 86.776 260.65 86.776 217.246z" transform="translate(-46 -2)"/>
                <path fill="#2B2A29" d="M130.143 260.65L173.511 260.65 173.511 217.246 130.143 217.246z" transform="translate(-46 -2)"/>
                <path fill="#FEFEFE" d="M86.776 217.246L130.143 217.246 130.143 173.841 86.776 173.841zM43.408 217.246L86.776 217.246 86.776 173.841 43.408 173.841z" transform="translate(-46 -2)"/>
                <path fill="url(#prefix__g)" d="M130.143 217.246L173.511 217.246 130.143 173.841z" transform="translate(-46 -2)"/>
                <path fill="url(#prefix__h)" d="M173.511 217.246L173.511 173.841 130.143 173.841z" transform="translate(-46 -2)"/>
                <path fill="#2B2A29" d="M86.776 179.545L130.143 179.545 130.143 178.029 86.776 178.029zM86.776 182.338L130.143 182.338 130.143 180.821 86.776 180.821zM86.776 185.13L130.143 185.13 130.143 183.614 86.776 183.614zM86.776 187.923L130.143 187.923 130.143 186.406 86.776 186.406zM86.776 190.715L130.143 190.715 130.143 189.199 86.776 189.199zM86.776 193.509L130.143 193.509 130.143 191.993 86.776 191.993zM86.776 196.3L130.143 196.3 130.143 194.785 86.776 194.785zM86.776 199.092L130.143 199.092 130.143 197.578 86.776 197.578zM86.776 201.886L130.143 201.886 130.143 200.37 86.776 200.37zM86.776 204.679L130.143 204.679 130.143 203.163 86.776 203.163zM86.776 207.471L130.143 207.471 130.143 205.955 86.776 205.955zM86.776 210.264L130.143 210.264 130.143 208.747 86.776 208.747zM86.776 213.056L130.143 213.056 130.143 211.54 86.776 211.54zM86.776 215.849L130.143 215.849 130.143 214.332 86.776 214.332zM86.776 176.753L130.143 176.753 130.143 175.237 86.776 175.237zM46.035 181.644c0-.601.487-1.087 1.088-1.087.599 0 1.086.486 1.086 1.087 0 .602-.487 1.089-1.086 1.089-.601 0-1.088-.487-1.088-1.089zM46.035 186.277c0-.6.487-1.087 1.088-1.087.599 0 1.086.487 1.086 1.087 0 .601-.487 1.088-1.086 1.088-.601 0-1.088-.487-1.088-1.088zM46.035 190.91c0-.6.487-1.088 1.088-1.088.599 0 1.086.488 1.086 1.089 0 .6-.487 1.087-1.086 1.087-.601 0-1.088-.487-1.088-1.087zM46.035 195.543c0-.601.487-1.088 1.088-1.088.599 0 1.086.487 1.086 1.088 0 .6-.487 1.087-1.086 1.087-.601 0-1.088-.487-1.088-1.087zM46.035 200.176c0-.602.487-1.089 1.088-1.089.599 0 1.086.487 1.086 1.089 0 .601-.487 1.087-1.086 1.087-.601 0-1.088-.486-1.088-1.087zM46.035 204.808c0-.601.487-1.088 1.088-1.088.599 0 1.086.487 1.086 1.088 0 .602-.487 1.089-1.086 1.089-.601 0-1.088-.487-1.088-1.089zM46.035 209.44c0-.599.487-1.086 1.088-1.086.599 0 1.086.487 1.086 1.087 0 .601-.487 1.089-1.086 1.089-.601 0-1.088-.488-1.088-1.09zM46.035 177.012c0-.602.487-1.087 1.088-1.087.599 0 1.086.485 1.086 1.087 0 .601-.487 1.089-1.086 1.089-.601 0-1.088-.488-1.088-1.09zM48.207 214.133c-.032.6-.545 1.06-1.144 1.027-.6-.034-1.059-.547-1.026-1.146.034-.6.546-1.06 1.145-1.026.6.032 1.06.545 1.025 1.145zM51.178 181.644c0-.601.486-1.087 1.086-1.087.6 0 1.087.486 1.087 1.087 0 .602-.487 1.089-1.087 1.089s-1.086-.487-1.086-1.089zM51.178 186.277c0-.6.486-1.087 1.086-1.087.6 0 1.087.487 1.087 1.087 0 .601-.487 1.088-1.087 1.088s-1.086-.487-1.086-1.088zM51.178 190.91c0-.6.486-1.088 1.086-1.088.6 0 1.087.488 1.087 1.089 0 .6-.487 1.087-1.087 1.087s-1.086-.487-1.086-1.087zM51.178 195.543c0-.601.486-1.088 1.086-1.088.6 0 1.087.487 1.087 1.088 0 .6-.487 1.087-1.087 1.087s-1.086-.487-1.086-1.087zM51.178 200.176c0-.602.486-1.089 1.086-1.089.6 0 1.087.487 1.087 1.089 0 .601-.487 1.087-1.087 1.087s-1.086-.486-1.086-1.087zM51.178 204.808c0-.601.486-1.088 1.086-1.088.6 0 1.087.487 1.087 1.088 0 .602-.487 1.089-1.087 1.089s-1.086-.487-1.086-1.089zM51.178 209.44c0-.599.486-1.086 1.086-1.086.6 0 1.087.487 1.087 1.087 0 .601-.487 1.089-1.087 1.089s-1.086-.488-1.086-1.09zM51.178 177.012c0-.602.486-1.087 1.086-1.087.6 0 1.087.485 1.087 1.087 0 .601-.487 1.089-1.087 1.089s-1.086-.488-1.086-1.09zM53.35 214.133c-.033.6-.545 1.06-1.146 1.027-.6-.034-1.057-.547-1.025-1.146.033-.6.545-1.06 1.146-1.026.6.032 1.057.545 1.025 1.145zM56.245 181.644c0-.601.487-1.087 1.088-1.087.6 0 1.088.486 1.088 1.087 0 .602-.489 1.089-1.088 1.089-.6 0-1.088-.487-1.088-1.089zM56.245 186.277c0-.6.487-1.087 1.088-1.087.6 0 1.088.487 1.088 1.087 0 .601-.489 1.088-1.088 1.088-.6 0-1.088-.487-1.088-1.088zM56.245 190.91c0-.6.487-1.088 1.088-1.088.6 0 1.088.488 1.088 1.089 0 .6-.489 1.087-1.088 1.087-.6 0-1.088-.487-1.088-1.087zM56.245 195.543c0-.601.487-1.088 1.088-1.088.6 0 1.088.487 1.088 1.088 0 .6-.489 1.087-1.088 1.087-.6 0-1.088-.487-1.088-1.087zM56.245 200.176c0-.602.487-1.089 1.088-1.089.6 0 1.088.487 1.088 1.089 0 .601-.489 1.087-1.088 1.087-.6 0-1.088-.486-1.088-1.087zM56.245 204.808c0-.601.487-1.088 1.088-1.088.6 0 1.088.487 1.088 1.088 0 .602-.489 1.089-1.088 1.089-.6 0-1.088-.487-1.088-1.089zM56.245 209.44c0-.599.487-1.086 1.088-1.086.6 0 1.088.487 1.088 1.087 0 .601-.489 1.089-1.088 1.089-.6 0-1.088-.488-1.088-1.09zM56.245 177.012c0-.602.487-1.087 1.088-1.087.6 0 1.088.485 1.088 1.087 0 .601-.489 1.089-1.088 1.089-.6 0-1.088-.488-1.088-1.09zM58.417 214.133c-.032.6-.544 1.06-1.144 1.027-.599-.034-1.058-.547-1.026-1.146.032-.6.546-1.06 1.146-1.026.599.032 1.058.545 1.024 1.145zM61.388 181.644c0-.601.487-1.087 1.086-1.087.6 0 1.088.486 1.088 1.087 0 .602-.487 1.089-1.088 1.089-.6 0-1.086-.487-1.086-1.089zM61.388 186.277c0-.6.487-1.087 1.086-1.087.6 0 1.088.487 1.088 1.087 0 .601-.487 1.088-1.088 1.088-.6 0-1.086-.487-1.086-1.088zM61.388 190.91c0-.6.487-1.088 1.086-1.088.6 0 1.088.488 1.088 1.089 0 .6-.487 1.087-1.088 1.087-.6 0-1.086-.487-1.086-1.087zM61.388 195.543c0-.601.487-1.088 1.086-1.088.6 0 1.088.487 1.088 1.088 0 .6-.487 1.087-1.088 1.087-.6 0-1.086-.487-1.086-1.087zM61.388 200.176c0-.602.487-1.089 1.086-1.089.6 0 1.088.487 1.088 1.089 0 .601-.487 1.087-1.088 1.087-.6 0-1.086-.486-1.086-1.087zM61.388 204.808c0-.601.487-1.088 1.086-1.088.6 0 1.088.487 1.088 1.088 0 .602-.487 1.089-1.088 1.089-.6 0-1.086-.487-1.086-1.089zM61.388 209.44c0-.599.487-1.086 1.086-1.086.6 0 1.088.487 1.088 1.087 0 .601-.487 1.089-1.088 1.089-.6 0-1.086-.488-1.086-1.09zM61.388 177.012c0-.602.487-1.087 1.086-1.087.6 0 1.088.485 1.088 1.087 0 .601-.487 1.089-1.088 1.089-.6 0-1.086-.488-1.086-1.09zM63.56 214.133c-.032.6-.545 1.06-1.146 1.027-.599-.034-1.057-.547-1.024-1.146.034-.6.544-1.06 1.145-1.026.6.032 1.059.545 1.025 1.145zM66.622 181.644c0-.601.487-1.087 1.088-1.087.6 0 1.086.486 1.086 1.087 0 .602-.487 1.089-1.086 1.089-.6 0-1.088-.487-1.088-1.089zM66.622 186.277c0-.6.487-1.087 1.088-1.087.6 0 1.086.487 1.086 1.087 0 .601-.487 1.088-1.086 1.088-.6 0-1.088-.487-1.088-1.088zM66.622 190.91c0-.6.487-1.088 1.088-1.088.6 0 1.086.488 1.086 1.089 0 .6-.487 1.087-1.086 1.087-.6 0-1.088-.487-1.088-1.087zM66.622 195.543c0-.601.487-1.088 1.088-1.088.6 0 1.086.487 1.086 1.088 0 .6-.487 1.087-1.086 1.087-.6 0-1.088-.487-1.088-1.087zM66.622 200.176c0-.602.487-1.089 1.088-1.089.6 0 1.086.487 1.086 1.089 0 .601-.487 1.087-1.086 1.087-.6 0-1.088-.486-1.088-1.087zM66.622 204.808c0-.601.487-1.088 1.088-1.088.6 0 1.086.487 1.086 1.088 0 .602-.487 1.089-1.086 1.089-.6 0-1.088-.487-1.088-1.089zM66.622 209.44c0-.599.487-1.086 1.088-1.086.6 0 1.086.487 1.086 1.087 0 .601-.487 1.089-1.086 1.089-.6 0-1.088-.488-1.088-1.09zM66.622 177.012c0-.602.487-1.087 1.088-1.087.6 0 1.086.485 1.086 1.087 0 .601-.487 1.089-1.086 1.089-.6 0-1.088-.488-1.088-1.09zM68.794 214.133c-.032.6-.544 1.06-1.145 1.027-.6-.034-1.057-.547-1.025-1.146.032-.6.545-1.06 1.144-1.026.6.032 1.059.545 1.026 1.145zM71.765 181.644c0-.601.487-1.087 1.086-1.087.6 0 1.088.486 1.088 1.087 0 .602-.487 1.089-1.088 1.089-.6 0-1.086-.487-1.086-1.089zM71.765 186.277c0-.6.487-1.087 1.086-1.087.6 0 1.088.487 1.088 1.087 0 .601-.487 1.088-1.088 1.088-.6 0-1.086-.487-1.086-1.088zM71.765 190.91c0-.6.487-1.088 1.086-1.088.6 0 1.088.488 1.088 1.089 0 .6-.487 1.087-1.088 1.087-.6 0-1.086-.487-1.086-1.087zM71.765 195.543c0-.601.487-1.088 1.086-1.088.6 0 1.088.487 1.088 1.088 0 .6-.487 1.087-1.088 1.087-.6 0-1.086-.487-1.086-1.087zM71.765 200.176c0-.602.487-1.089 1.086-1.089.6 0 1.088.487 1.088 1.089 0 .601-.487 1.087-1.088 1.087-.6 0-1.086-.486-1.086-1.087zM71.765 204.808c0-.601.487-1.088 1.086-1.088.6 0 1.088.487 1.088 1.088 0 .602-.487 1.089-1.088 1.089-.6 0-1.086-.487-1.086-1.089zM71.765 209.44c0-.599.487-1.086 1.086-1.086.6 0 1.088.487 1.088 1.087 0 .601-.487 1.089-1.088 1.089-.6 0-1.086-.488-1.086-1.09zM71.765 177.012c0-.602.487-1.087 1.086-1.087.6 0 1.088.485 1.088 1.087 0 .601-.487 1.089-1.088 1.089-.6 0-1.086-.488-1.086-1.09zM73.937 214.133c-.034.6-.546 1.06-1.146 1.027-.599-.034-1.058-.547-1.024-1.146.032-.6.544-1.06 1.144-1.026.6.032 1.058.545 1.026 1.145zM76.833 181.644c0-.601.487-1.087 1.087-1.087s1.087.486 1.087 1.087c0 .602-.487 1.089-1.087 1.089s-1.087-.487-1.087-1.089zM76.833 186.277c0-.6.487-1.087 1.087-1.087s1.087.487 1.087 1.087c0 .601-.487 1.088-1.087 1.088s-1.087-.487-1.087-1.088zM76.833 190.91c0-.6.487-1.088 1.087-1.088s1.087.488 1.087 1.089c0 .6-.487 1.087-1.087 1.087s-1.087-.487-1.087-1.087zM76.833 195.543c0-.601.487-1.088 1.087-1.088s1.087.487 1.087 1.088c0 .6-.487 1.087-1.087 1.087s-1.087-.487-1.087-1.087zM76.833 200.176c0-.602.487-1.089 1.087-1.089s1.087.487 1.087 1.089c0 .601-.487 1.087-1.087 1.087s-1.087-.486-1.087-1.087zM76.833 204.808c0-.601.487-1.088 1.087-1.088s1.087.487 1.087 1.088c0 .602-.487 1.089-1.087 1.089s-1.087-.487-1.087-1.089zM76.833 209.44c0-.599.487-1.086 1.087-1.086s1.087.487 1.087 1.087c0 .601-.487 1.089-1.087 1.089s-1.087-.488-1.087-1.09zM76.833 177.012c0-.602.487-1.087 1.087-1.087s1.087.485 1.087 1.087c0 .601-.487 1.089-1.087 1.089s-1.087-.488-1.087-1.09zM79.005 214.133c-.033.6-.545 1.06-1.146 1.027-.597-.034-1.057-.547-1.025-1.146.033-.6.545-1.06 1.146-1.026.6.032 1.059.545 1.025 1.145zM81.975 181.644c0-.601.487-1.087 1.086-1.087.601 0 1.088.486 1.088 1.087 0 .602-.487 1.089-1.088 1.089-.599 0-1.086-.487-1.086-1.089zM81.975 186.277c0-.6.487-1.087 1.086-1.087.601 0 1.088.487 1.088 1.087 0 .601-.487 1.088-1.088 1.088-.599 0-1.086-.487-1.086-1.088zM81.975 190.91c0-.6.487-1.088 1.086-1.088.601 0 1.088.488 1.088 1.089 0 .6-.487 1.087-1.088 1.087-.599 0-1.086-.487-1.086-1.087zM81.975 195.543c0-.601.487-1.088 1.086-1.088.601 0 1.088.487 1.088 1.088 0 .6-.487 1.087-1.088 1.087-.599 0-1.086-.487-1.086-1.087zM81.975 200.176c0-.602.487-1.089 1.086-1.089.601 0 1.088.487 1.088 1.089 0 .601-.487 1.087-1.088 1.087-.599 0-1.086-.486-1.086-1.087zM81.975 204.808c0-.601.487-1.088 1.086-1.088.601 0 1.088.487 1.088 1.088 0 .602-.487 1.089-1.088 1.089-.599 0-1.086-.487-1.086-1.089zM81.975 209.44c0-.599.487-1.086 1.086-1.086.601 0 1.088.487 1.088 1.087 0 .601-.487 1.089-1.088 1.089-.599 0-1.086-.488-1.086-1.09zM81.975 177.012c0-.602.487-1.087 1.086-1.087.601 0 1.088.485 1.088 1.087 0 .601-.487 1.089-1.088 1.089-.599 0-1.086-.488-1.086-1.09zM84.147 214.133c-.034.6-.546 1.06-1.145 1.027-.6-.034-1.059-.547-1.025-1.146.032-.6.545-1.06 1.146-1.026.597.032 1.057.545 1.024 1.145z" transform="translate(-46 -2)"/>
                <path fill="#8ABE2E" d="M130.143 217.246L130.143 173.841 86.776 173.841z" transform="translate(-46 -2)"/>
                <path fill="#E95229" d="M43.408 217.246L86.776 217.246 86.776 173.841z" transform="translate(-46 -2)"/>
                <path fill="url(#prefix__j)" d="M130.143 173.841L173.511 173.841 173.511 130.435 130.143 130.435z" transform="translate(-46 -2)"/>
                <path fill="#FEFEFE" d="M173.686 43.481L217.053 43.481 217.053 0.077 173.686 0.077z" transform="translate(-46 -2)"/>
                <path fill="#95C12B" d="M173.686 4.477L217.053 4.477 217.053 2.929 173.686 2.929zM173.686 7.328L217.053 7.328 217.053 5.781 173.686 5.781zM173.686 10.18L217.053 10.18 217.053 8.633 173.686 8.633zM173.686 13.032L217.053 13.032 217.053 11.483 173.686 11.483zM173.686 15.884L217.053 15.884 217.053 14.335 173.686 14.335zM173.686 18.734L217.053 18.734 217.053 17.187 173.686 17.187zM173.686 21.586L217.053 21.586 217.053 20.039 173.686 20.039zM173.686 24.438L217.053 24.438 217.053 22.891 173.686 22.891zM173.686 27.291L217.053 27.291 217.053 25.744 173.686 25.744zM173.686 30.143L217.053 30.143 217.053 28.594 173.686 28.594zM173.686 32.993L217.053 32.993 217.053 31.446 173.686 31.446zM173.686 35.845L217.053 35.845 217.053 34.298 173.686 34.298zM173.686 38.697L217.053 38.697 217.053 37.15 173.686 37.15zM173.686 41.549L217.053 41.549 217.053 40.002 173.686 40.002z" transform="translate(-46 -2)"/>
                <path fill="#FEFEFE" d="M173.686 130.292L217.053 130.292 217.053 86.886 173.686 86.886zM260.421 43.481L303.788 43.481 303.788.077 260.421.077z" transform="translate(-46 -2)"/>
                <path fill="#2B2A29" d="M260.421 43.481L260.421 0.077 217.053 0.077z" transform="translate(-46 -2)"/>
                <path fill="#FEFEFE" d="M217.053 0.077L217.053 43.481 260.421 43.481z" transform="translate(-46 -2)"/>
                <path fill="#8ABE2E" d="M282.105 21.779L303.788 0.077 260.421 0.077z" transform="translate(-46 -2)"/>
                <path fill="url(#prefix__d)" d="M260.421 43.481L303.788 43.481 282.105 21.779zM303.788 130.292L303.788 86.887 260.421 86.887 260.421 130.292z" transform="translate(-46 -2)"/>
                <path fill="url(#prefix__k)" d="M217.053 86.887L217.053 130.292 260.421 130.292 260.421 86.887z" transform="translate(-46 -2)"/>
                <path fill="#FEFEFE" d="M260.421 86.886L303.788 86.886 303.788 43.481 260.421 43.481z" transform="translate(-46 -2)"/>
                <path fill="#8ABE2E" d="M173.686 86.886L217.053 86.886 217.053 43.481 173.686 43.481z" transform="translate(-46 -2)"/>
                <path fill="#FEFEFE" d="M217.053 86.886L260.421 86.886 260.421 43.481 217.053 43.481z" transform="translate(-46 -2)"/>
                <path fill="#2B2A29" d="M260.421 49.187L303.788 49.187 303.788 47.671 260.421 47.671zM260.421 51.979L303.788 51.979 303.788 50.463 260.421 50.463zM260.421 54.772L303.788 54.772 303.788 53.256 260.421 53.256zM260.421 57.564L303.788 57.564 303.788 56.048 260.421 56.048zM260.421 60.357L303.788 60.357 303.788 58.84 260.421 58.84zM260.421 63.149L303.788 63.149 303.788 61.635 260.421 61.635zM260.421 65.942L303.788 65.942 303.788 64.427 260.421 64.427zM260.421 68.734L303.788 68.734 303.788 67.219 260.421 67.219zM260.421 71.526L303.788 71.526 303.788 70.012 260.421 70.012zM260.421 74.319L303.788 74.319 303.788 72.804 260.421 72.804zM260.421 77.111L303.788 77.111 303.788 75.597 260.421 75.597zM260.421 79.905L303.788 79.905 303.788 78.389 260.421 78.389zM260.421 82.698L303.788 82.698 303.788 81.182 260.421 81.182zM260.421 85.49L303.788 85.49 303.788 83.974 260.421 83.974zM260.421 46.395L303.788 46.395 303.788 44.878 260.421 44.878zM219.68 51.286c0-.601.487-1.087 1.088-1.087.599 0 1.086.486 1.086 1.087s-.487 1.089-1.086 1.089c-.601 0-1.088-.488-1.088-1.089zM219.68 55.918c0-.601.487-1.087 1.088-1.087.599 0 1.086.486 1.086 1.087 0 .602-.487 1.09-1.086 1.09-.601 0-1.088-.488-1.088-1.09zM219.68 60.55c0-.599.487-1.086 1.088-1.086.599 0 1.086.487 1.086 1.087 0 .601-.487 1.089-1.086 1.089-.601 0-1.088-.488-1.088-1.09zM219.68 65.183c0-.6.487-1.087 1.088-1.087.599 0 1.086.488 1.086 1.087 0 .602-.487 1.09-1.086 1.09-.601 0-1.088-.488-1.088-1.09zM219.68 69.816c0-.6.487-1.087 1.088-1.087.599 0 1.086.487 1.086 1.087 0 .601-.487 1.089-1.086 1.089-.601 0-1.088-.488-1.088-1.09zM219.68 74.45c0-.601.487-1.089 1.088-1.089.599 0 1.086.488 1.086 1.09 0 .599-.487 1.086-1.086 1.086-.601 0-1.088-.487-1.088-1.087zM219.68 79.083c0-.602.487-1.09 1.088-1.09.599 0 1.086.488 1.086 1.09 0 .6-.487 1.087-1.086 1.087-.601 0-1.088-.486-1.088-1.087zM219.68 46.654c0-.602.487-1.087 1.088-1.087.599 0 1.086.485 1.086 1.087 0 .6-.487 1.087-1.086 1.087-.601 0-1.088-.486-1.088-1.087zM221.852 83.775c-.032.6-.545 1.06-1.144 1.027-.599-.034-1.059-.547-1.026-1.147.034-.6.546-1.06 1.145-1.027.6.034 1.06.547 1.025 1.147zM224.823 51.286c0-.601.486-1.087 1.087-1.087.6 0 1.086.486 1.086 1.087s-.486 1.089-1.086 1.089c-.6 0-1.087-.488-1.087-1.089zM224.823 55.918c0-.601.486-1.087 1.087-1.087.6 0 1.086.486 1.086 1.087 0 .602-.486 1.09-1.086 1.09-.6 0-1.087-.488-1.087-1.09zM224.823 60.55c0-.599.486-1.086 1.087-1.086.6 0 1.086.487 1.086 1.087 0 .601-.486 1.089-1.086 1.089-.6 0-1.087-.488-1.087-1.09zM224.823 65.183c0-.6.486-1.087 1.087-1.087.6 0 1.086.488 1.086 1.087 0 .602-.486 1.09-1.086 1.09-.6 0-1.087-.488-1.087-1.09zM224.823 69.816c0-.6.486-1.087 1.087-1.087.6 0 1.086.487 1.086 1.087 0 .601-.486 1.089-1.086 1.089-.6 0-1.087-.488-1.087-1.09zM224.823 74.45c0-.601.486-1.089 1.087-1.089.6 0 1.086.488 1.086 1.09 0 .599-.486 1.086-1.086 1.086-.6 0-1.087-.487-1.087-1.087zM224.823 79.083c0-.602.486-1.09 1.087-1.09.6 0 1.086.488 1.086 1.09 0 .6-.486 1.087-1.086 1.087-.6 0-1.087-.486-1.087-1.087zM224.823 46.654c0-.602.486-1.087 1.087-1.087.6 0 1.086.485 1.086 1.087 0 .6-.486 1.087-1.086 1.087-.6 0-1.087-.486-1.087-1.087zM226.995 83.775c-.033.6-.545 1.06-1.146 1.027-.597-.034-1.057-.547-1.025-1.147.033-.6.545-1.06 1.146-1.027.6.034 1.057.547 1.025 1.147zM229.89 51.286c0-.601.487-1.087 1.088-1.087.6 0 1.088.486 1.088 1.087s-.489 1.089-1.088 1.089c-.6 0-1.088-.488-1.088-1.089zM229.89 55.918c0-.601.487-1.087 1.088-1.087.6 0 1.088.486 1.088 1.087 0 .602-.489 1.09-1.088 1.09-.6 0-1.088-.488-1.088-1.09zM229.89 60.55c0-.599.487-1.086 1.088-1.086.6 0 1.088.487 1.088 1.087 0 .601-.489 1.089-1.088 1.089-.6 0-1.088-.488-1.088-1.09zM229.89 65.183c0-.6.487-1.087 1.088-1.087.6 0 1.088.488 1.088 1.087 0 .602-.489 1.09-1.088 1.09-.6 0-1.088-.488-1.088-1.09zM229.89 69.816c0-.6.487-1.087 1.088-1.087.6 0 1.088.487 1.088 1.087 0 .601-.489 1.089-1.088 1.089-.6 0-1.088-.488-1.088-1.09zM229.89 74.45c0-.601.487-1.089 1.088-1.089.6 0 1.088.488 1.088 1.09 0 .599-.489 1.086-1.088 1.086-.6 0-1.088-.487-1.088-1.087zM229.89 79.083c0-.602.487-1.09 1.088-1.09.6 0 1.088.488 1.088 1.09 0 .6-.489 1.087-1.088 1.087-.6 0-1.088-.486-1.088-1.087zM229.89 46.654c0-.602.487-1.087 1.088-1.087.6 0 1.088.485 1.088 1.087 0 .6-.489 1.087-1.088 1.087-.6 0-1.088-.486-1.088-1.087zM232.062 83.775c-.032.6-.544 1.06-1.143 1.027-.6-.034-1.06-.547-1.027-1.147.032-.6.546-1.06 1.146-1.027.599.034 1.059.547 1.024 1.147zM235.033 51.286c0-.601.487-1.087 1.088-1.087.599 0 1.086.486 1.086 1.087s-.487 1.089-1.086 1.089c-.601 0-1.088-.488-1.088-1.089zM235.033 55.918c0-.601.487-1.087 1.088-1.087.599 0 1.086.486 1.086 1.087 0 .602-.487 1.09-1.086 1.09-.601 0-1.088-.488-1.088-1.09zM235.033 60.55c0-.599.487-1.086 1.088-1.086.599 0 1.086.487 1.086 1.087 0 .601-.487 1.089-1.086 1.089-.601 0-1.088-.488-1.088-1.09zM235.033 65.183c0-.6.487-1.087 1.088-1.087.599 0 1.086.488 1.086 1.087 0 .602-.487 1.09-1.086 1.09-.601 0-1.088-.488-1.088-1.09zM235.033 69.816c0-.6.487-1.087 1.088-1.087.599 0 1.086.487 1.086 1.087 0 .601-.487 1.089-1.086 1.089-.601 0-1.088-.488-1.088-1.09zM235.033 74.45c0-.601.487-1.089 1.088-1.089.599 0 1.086.488 1.086 1.09 0 .599-.487 1.086-1.086 1.086-.601 0-1.088-.487-1.088-1.087zM235.033 79.083c0-.602.487-1.09 1.088-1.09.599 0 1.086.488 1.086 1.09 0 .6-.487 1.087-1.086 1.087-.601 0-1.088-.486-1.088-1.087zM235.033 46.654c0-.602.487-1.087 1.088-1.087.599 0 1.086.485 1.086 1.087 0 .6-.487 1.087-1.086 1.087-.601 0-1.088-.486-1.088-1.087zM237.205 83.775c-.032.6-.545 1.06-1.146 1.027-.597-.034-1.057-.547-1.024-1.147.034-.6.544-1.06 1.145-1.027.6.034 1.06.547 1.025 1.147zM240.267 51.286c0-.601.487-1.087 1.088-1.087.6 0 1.086.486 1.086 1.087s-.487 1.089-1.086 1.089c-.6 0-1.088-.488-1.088-1.089zM240.267 55.918c0-.601.487-1.087 1.088-1.087.6 0 1.086.486 1.086 1.087 0 .602-.487 1.09-1.086 1.09-.6 0-1.088-.488-1.088-1.09zM240.267 60.55c0-.599.487-1.086 1.088-1.086.6 0 1.086.487 1.086 1.087 0 .601-.487 1.089-1.086 1.089-.6 0-1.088-.488-1.088-1.09zM240.267 65.183c0-.6.487-1.087 1.088-1.087.6 0 1.086.488 1.086 1.087 0 .602-.487 1.09-1.086 1.09-.6 0-1.088-.488-1.088-1.09zM240.267 69.816c0-.6.487-1.087 1.088-1.087.6 0 1.086.487 1.086 1.087 0 .601-.487 1.089-1.086 1.089-.6 0-1.088-.488-1.088-1.09zM240.267 74.45c0-.601.487-1.089 1.088-1.089.6 0 1.086.488 1.086 1.09 0 .599-.487 1.086-1.086 1.086-.6 0-1.088-.487-1.088-1.087zM240.267 79.083c0-.602.487-1.09 1.088-1.09.6 0 1.086.488 1.086 1.09 0 .6-.487 1.087-1.086 1.087-.6 0-1.088-.486-1.088-1.087zM240.267 46.654c0-.602.487-1.087 1.088-1.087.6 0 1.086.485 1.086 1.087 0 .6-.487 1.087-1.086 1.087-.6 0-1.088-.486-1.088-1.087zM242.44 83.775c-.033.6-.545 1.06-1.146 1.027-.598-.034-1.057-.547-1.025-1.147.033-.6.545-1.06 1.146-1.027.599.034 1.057.547 1.025 1.147zM245.41 51.286c0-.601.487-1.087 1.086-1.087.601 0 1.088.486 1.088 1.087s-.487 1.089-1.088 1.089c-.6 0-1.086-.488-1.086-1.089zM245.41 55.918c0-.601.487-1.087 1.086-1.087.601 0 1.088.486 1.088 1.087 0 .602-.487 1.09-1.088 1.09-.6 0-1.086-.488-1.086-1.09zM245.41 60.55c0-.599.487-1.086 1.086-1.086.601 0 1.088.487 1.088 1.087 0 .601-.487 1.089-1.088 1.089-.6 0-1.086-.488-1.086-1.09zM245.41 65.183c0-.6.487-1.087 1.086-1.087.601 0 1.088.488 1.088 1.087 0 .602-.487 1.09-1.088 1.09-.6 0-1.086-.488-1.086-1.09zM245.41 69.816c0-.6.487-1.087 1.086-1.087.601 0 1.088.487 1.088 1.087 0 .601-.487 1.089-1.088 1.089-.6 0-1.086-.488-1.086-1.09zM245.41 74.45c0-.601.487-1.089 1.086-1.089.601 0 1.088.488 1.088 1.09 0 .599-.487 1.086-1.088 1.086-.6 0-1.086-.487-1.086-1.087zM245.41 79.083c0-.602.487-1.09 1.086-1.09.601 0 1.088.488 1.088 1.09 0 .6-.487 1.087-1.088 1.087-.6 0-1.086-.486-1.086-1.087zM245.41 46.654c0-.602.487-1.087 1.086-1.087.601 0 1.088.485 1.088 1.087 0 .6-.487 1.087-1.088 1.087-.6 0-1.086-.486-1.086-1.087zM247.582 83.775c-.032.6-.546 1.06-1.145 1.027-.6-.034-1.06-.547-1.025-1.147.032-.6.545-1.06 1.144-1.027.6.034 1.059.547 1.026 1.147zM250.478 51.286c0-.601.487-1.087 1.088-1.087.599 0 1.086.486 1.086 1.087s-.487 1.089-1.086 1.089c-.601 0-1.088-.488-1.088-1.089zM250.478 55.918c0-.601.487-1.087 1.088-1.087.599 0 1.086.486 1.086 1.087 0 .602-.487 1.09-1.086 1.09-.601 0-1.088-.488-1.088-1.09zM250.478 60.55c0-.599.487-1.086 1.088-1.086.599 0 1.086.487 1.086 1.087 0 .601-.487 1.089-1.086 1.089-.601 0-1.088-.488-1.088-1.09zM250.478 65.183c0-.6.487-1.087 1.088-1.087.599 0 1.086.488 1.086 1.087 0 .602-.487 1.09-1.086 1.09-.601 0-1.088-.488-1.088-1.09zM250.478 69.816c0-.6.487-1.087 1.088-1.087.599 0 1.086.487 1.086 1.087 0 .601-.487 1.089-1.086 1.089-.601 0-1.088-.488-1.088-1.09zM250.478 74.45c0-.601.487-1.089 1.088-1.089.599 0 1.086.488 1.086 1.09 0 .599-.487 1.086-1.086 1.086-.601 0-1.088-.487-1.088-1.087zM250.478 79.083c0-.602.487-1.09 1.088-1.09.599 0 1.086.488 1.086 1.09 0 .6-.487 1.087-1.086 1.087-.601 0-1.088-.486-1.088-1.087zM250.478 46.654c0-.602.487-1.087 1.088-1.087.599 0 1.086.485 1.086 1.087 0 .6-.487 1.087-1.086 1.087-.601 0-1.088-.486-1.088-1.087zM252.65 83.775c-.032.6-.545 1.06-1.146 1.027-.597-.034-1.057-.547-1.025-1.147.033-.6.545-1.06 1.146-1.027.6.034 1.059.547 1.025 1.147zM255.62 51.286c0-.601.487-1.087 1.086-1.087.601 0 1.088.486 1.088 1.087s-.487 1.089-1.088 1.089c-.599 0-1.086-.488-1.086-1.089zM255.62 55.918c0-.601.487-1.087 1.086-1.087.601 0 1.088.486 1.088 1.087 0 .602-.487 1.09-1.088 1.09-.599 0-1.086-.488-1.086-1.09zM255.62 60.55c0-.599.487-1.086 1.086-1.086.601 0 1.088.487 1.088 1.087 0 .601-.487 1.089-1.088 1.089-.599 0-1.086-.488-1.086-1.09zM255.62 65.183c0-.6.487-1.087 1.086-1.087.601 0 1.088.488 1.088 1.087 0 .602-.487 1.09-1.088 1.09-.599 0-1.086-.488-1.086-1.09zM255.62 69.816c0-.6.487-1.087 1.086-1.087.601 0 1.088.487 1.088 1.087 0 .601-.487 1.089-1.088 1.089-.599 0-1.086-.488-1.086-1.09zM255.62 74.45c0-.601.487-1.089 1.086-1.089.601 0 1.088.488 1.088 1.09 0 .599-.487 1.086-1.088 1.086-.599 0-1.086-.487-1.086-1.087zM255.62 79.083c0-.602.487-1.09 1.086-1.09.601 0 1.088.488 1.088 1.09 0 .6-.487 1.087-1.088 1.087-.599 0-1.086-.486-1.086-1.087zM255.62 46.654c0-.602.487-1.087 1.086-1.087.601 0 1.088.485 1.088 1.087 0 .6-.487 1.087-1.088 1.087-.599 0-1.086-.486-1.086-1.087zM257.793 83.775c-.035.6-.545 1.06-1.146 1.027-.6-.034-1.059-.547-1.025-1.147.032-.6.545-1.06 1.146-1.027.599.034 1.057.547 1.025 1.147z" transform="translate(-46 -2)"/>
                <path fill="#8ABE2E" d="M303.788 86.887L303.788 43.481 260.421 43.481z" transform="translate(-46 -2)"/>
                <path fill="#E95229" d="M217.053 86.887L260.421 86.887 260.421 43.481z" transform="translate(-46 -2)"/>
                <path fill="url(#prefix__l)" d="M215.436 130.292h1.617V86.887h-1.617v43.405zm-41.75-43.405v43.405h1.619V86.887h-1.619zm38.766 43.405h1.619V86.887h-1.619v43.405zm-2.98 0h1.618V86.887h-1.619v43.405zm-2.983 0h1.619V86.887h-1.619v43.405zm-2.982 0h1.618V86.887h-1.618v43.405zm-2.983 0h1.62V86.887h-1.62v43.405zm-2.982 0h1.619V86.887h-1.62v43.405zm-2.98 0h1.618V86.887h-1.619v43.405zm-2.983 0h1.617V86.887h-1.617v43.405zm-2.983 0h1.62V86.887h-1.62v43.405zm-2.982 0h1.619V86.887h-1.62v43.405zm-2.98 0h1.616V86.887h-1.617v43.405zm-2.983 0h1.617V86.887h-1.617v43.405zm-2.983 0h1.618V86.887h-1.618v43.405z" transform="translate(-46 -2)"/>
                <path fill="#FEFEFE" d="M173.553 173.839L216.921 173.839 216.921 130.435 173.553 130.435z" transform="translate(-46 -2)"/>
                <path fill="#95C12B" d="M173.553 134.834L216.921 134.834 216.921 133.287 173.553 133.287zM173.553 137.686L216.921 137.686 216.921 136.137 173.553 136.137zM173.553 140.538L216.921 140.538 216.921 138.989 173.553 138.989zM173.553 143.389L216.921 143.389 216.921 141.842 173.553 141.842zM173.553 146.241L216.921 146.241 216.921 144.694 173.553 144.694zM173.553 149.093L216.921 149.093 216.921 147.544 173.553 147.544zM173.553 151.945L216.921 151.945 216.921 150.396 173.553 150.396zM173.553 154.797L216.921 154.797 216.921 153.248 173.553 153.248zM173.553 157.649L216.921 157.649 216.921 156.1 173.553 156.1zM173.553 160.499L216.921 160.499 216.921 158.952 173.553 158.952zM173.553 163.351L216.921 163.351 216.921 161.803 173.553 161.803zM173.553 166.203L216.921 166.203 216.921 164.655 173.553 164.655zM173.553 169.055L216.921 169.055 216.921 167.507 173.553 167.507zM173.553 171.907L216.921 171.907 216.921 170.359 173.553 170.359zM173.553 131.984L216.921 131.984 216.921 130.435 173.553 130.435z" transform="translate(-46 -2)"/>
                <path fill="#FEFEFE" d="M173.553 260.648L216.921 260.648 216.921 217.244 173.553 217.244zM260.288 173.839L303.656 173.839 303.656 130.435 260.288 130.435z" transform="translate(-46 -2)"/>
                <path fill="#2B2A29" d="M260.288 173.839L260.288 130.435 216.921 130.435z" transform="translate(-46 -2)"/>
                <path fill="#FEFEFE" d="M216.921 130.435L216.921 173.839 260.288 173.839z" transform="translate(-46 -2)"/>
                <path fill="#8ABE2E" d="M281.972 152.137L303.656 130.435 260.288 130.435z" transform="translate(-46 -2)"/>
                <path fill="url(#prefix__d)" d="M260.288 173.839L303.656 173.839 281.972 152.137zM303.656 260.648L303.656 217.244 260.288 217.244 260.288 260.648z" transform="translate(-46 -2)"/>
                <path fill="url(#prefix__f)" d="M216.921 217.244L216.921 260.648 260.288 260.648 260.288 217.244z" transform="translate(-46 -2)"/>
                <path fill="#FEFEFE" d="M260.288 217.244L303.656 217.244 303.656 173.839 260.288 173.839z" transform="translate(-46 -2)"/>
                <path fill="#8ABE2E" d="M173.553 217.244L216.921 217.244 216.921 173.839 173.553 173.839z" transform="translate(-46 -2)"/>
                <path fill="#FEFEFE" d="M216.921 217.244L260.288 217.244 260.288 173.839 216.921 173.839z" transform="translate(-46 -2)"/>
                <path fill="#2B2A29" d="M260.288 179.544L303.656 179.544 303.656 178.027 260.288 178.027zM260.288 182.336L303.656 182.336 303.656 180.821 260.288 180.821zM260.288 185.13L303.656 185.13 303.656 183.614 260.288 183.614zM260.288 187.921L303.656 187.921 303.656 186.405 260.288 186.405zM260.288 190.713L303.656 190.713 303.656 189.199 260.288 189.199zM260.288 193.507L303.656 193.507 303.656 191.991 260.288 191.991zM260.288 196.3L303.656 196.3 303.656 194.784 260.288 194.784zM260.288 199.092L303.656 199.092 303.656 197.576 260.288 197.576zM260.288 201.885L303.656 201.885 303.656 200.37 260.288 200.37zM260.288 204.677L303.656 204.677 303.656 203.161 260.288 203.161zM260.288 207.47L303.656 207.47 303.656 205.955 260.288 205.955zM260.288 210.262L303.656 210.262 303.656 208.747 260.288 208.747zM260.288 213.054L303.656 213.054 303.656 211.54 260.288 211.54zM260.288 215.847L303.656 215.847 303.656 214.332 260.288 214.332zM260.288 176.751L303.656 176.751 303.656 175.235 260.288 175.235zM219.547 181.644c0-.601.487-1.088 1.088-1.088.6 0 1.086.487 1.086 1.088 0 .6-.487 1.087-1.086 1.087-.6 0-1.088-.487-1.088-1.087zM219.547 186.277c0-.602.487-1.089 1.088-1.089.6 0 1.086.487 1.086 1.089 0 .601-.487 1.087-1.086 1.087-.6 0-1.088-.486-1.088-1.087zM219.547 190.91c0-.602.487-1.09 1.088-1.09.6 0 1.086.488 1.086 1.09 0 .6-.487 1.086-1.086 1.086-.6 0-1.088-.485-1.088-1.087zM219.547 195.542c0-.602.487-1.087 1.088-1.087.6 0 1.086.485 1.086 1.087 0 .6-.487 1.088-1.086 1.088-.6 0-1.088-.489-1.088-1.088zM219.547 200.174c0-.6.487-1.089 1.088-1.089.6 0 1.086.49 1.086 1.09 0 .6-.487 1.088-1.086 1.088-.6 0-1.088-.487-1.088-1.089zM219.547 204.807c0-.6.487-1.087 1.088-1.087.6 0 1.086.487 1.086 1.087 0 .601-.487 1.088-1.086 1.088-.6 0-1.088-.487-1.088-1.088zM219.547 209.44c0-.6.487-1.088 1.088-1.088.6 0 1.086.487 1.086 1.087 0 .602-.487 1.089-1.086 1.089-.6 0-1.088-.487-1.088-1.089zM219.547 177.01c0-.6.487-1.087 1.088-1.087.6 0 1.086.487 1.086 1.087 0 .602-.487 1.089-1.086 1.089-.6 0-1.088-.487-1.088-1.089zM221.72 214.133c-.033.598-.545 1.058-1.145 1.026-.6-.033-1.058-.546-1.026-1.147.034-.6.546-1.06 1.146-1.026.599.033 1.058.545 1.024 1.147zM224.69 181.644c0-.601.487-1.088 1.086-1.088.6 0 1.088.487 1.088 1.088 0 .6-.487 1.087-1.088 1.087-.6 0-1.086-.487-1.086-1.087zM224.69 186.277c0-.602.487-1.089 1.086-1.089.6 0 1.088.487 1.088 1.089 0 .601-.487 1.087-1.088 1.087-.6 0-1.086-.486-1.086-1.087zM224.69 190.91c0-.602.487-1.09 1.086-1.09.6 0 1.088.488 1.088 1.09 0 .6-.487 1.086-1.088 1.086-.6 0-1.086-.485-1.086-1.087zM224.69 195.542c0-.602.487-1.087 1.086-1.087.6 0 1.088.485 1.088 1.087 0 .6-.487 1.088-1.088 1.088-.6 0-1.086-.489-1.086-1.088zM224.69 200.174c0-.6.487-1.089 1.086-1.089.6 0 1.088.49 1.088 1.09 0 .6-.487 1.088-1.088 1.088-.6 0-1.086-.487-1.086-1.089zM224.69 204.807c0-.6.487-1.087 1.086-1.087.6 0 1.088.487 1.088 1.087 0 .601-.487 1.088-1.088 1.088-.6 0-1.086-.487-1.086-1.088zM224.69 209.44c0-.6.487-1.088 1.086-1.088.6 0 1.088.487 1.088 1.087 0 .602-.487 1.089-1.088 1.089-.6 0-1.086-.487-1.086-1.089zM224.69 177.01c0-.6.487-1.087 1.086-1.087.6 0 1.088.487 1.088 1.087 0 .602-.487 1.089-1.088 1.089-.6 0-1.086-.487-1.086-1.089zM226.862 214.133c-.032.598-.545 1.058-1.146 1.026-.599-.033-1.057-.546-1.024-1.147.032-.6.544-1.06 1.145-1.026.6.033 1.057.545 1.025 1.147zM229.758 181.644c0-.601.486-1.088 1.087-1.088.6 0 1.088.487 1.088 1.088 0 .6-.488 1.087-1.088 1.087-.6 0-1.087-.487-1.087-1.087zM229.758 186.277c0-.602.486-1.089 1.087-1.089.6 0 1.088.487 1.088 1.089 0 .601-.488 1.087-1.088 1.087-.6 0-1.087-.486-1.087-1.087zM229.758 190.91c0-.602.486-1.09 1.087-1.09.6 0 1.088.488 1.088 1.09 0 .6-.488 1.086-1.088 1.086-.6 0-1.087-.485-1.087-1.087zM229.758 195.542c0-.602.486-1.087 1.087-1.087.6 0 1.088.485 1.088 1.087 0 .6-.488 1.088-1.088 1.088-.6 0-1.087-.489-1.087-1.088zM229.758 200.174c0-.6.486-1.089 1.087-1.089.6 0 1.088.49 1.088 1.09 0 .6-.488 1.088-1.088 1.088-.6 0-1.087-.487-1.087-1.089zM229.758 204.807c0-.6.486-1.087 1.087-1.087.6 0 1.088.487 1.088 1.087 0 .601-.488 1.088-1.088 1.088-.6 0-1.087-.487-1.087-1.088zM229.758 209.44c0-.6.486-1.088 1.087-1.088.6 0 1.088.487 1.088 1.087 0 .602-.488 1.089-1.088 1.089-.6 0-1.087-.487-1.087-1.089zM229.758 177.01c0-.6.486-1.087 1.087-1.087.6 0 1.088.487 1.088 1.087 0 .602-.488 1.089-1.088 1.089-.6 0-1.087-.487-1.087-1.089zM231.93 214.133c-.033.598-.545 1.058-1.144 1.026-.6-.033-1.06-.546-1.027-1.147.033-.6.547-1.06 1.146-1.026.6.033 1.059.545 1.025 1.147zM234.9 181.644c0-.601.487-1.088 1.088-1.088.6 0 1.086.487 1.086 1.088 0 .6-.487 1.087-1.086 1.087-.601 0-1.088-.487-1.088-1.087zM234.9 186.277c0-.602.487-1.089 1.088-1.089.6 0 1.086.487 1.086 1.089 0 .601-.487 1.087-1.086 1.087-.601 0-1.088-.486-1.088-1.087zM234.9 190.91c0-.602.487-1.09 1.088-1.09.6 0 1.086.488 1.086 1.09 0 .6-.487 1.086-1.086 1.086-.601 0-1.088-.485-1.088-1.087zM234.9 195.542c0-.602.487-1.087 1.088-1.087.6 0 1.086.485 1.086 1.087 0 .6-.487 1.088-1.086 1.088-.601 0-1.088-.489-1.088-1.088zM234.9 200.174c0-.6.487-1.089 1.088-1.089.6 0 1.086.49 1.086 1.09 0 .6-.487 1.088-1.086 1.088-.601 0-1.088-.487-1.088-1.089zM234.9 204.807c0-.6.487-1.087 1.088-1.087.6 0 1.086.487 1.086 1.087 0 .601-.487 1.088-1.086 1.088-.601 0-1.088-.487-1.088-1.088zM234.9 209.44c0-.6.487-1.088 1.088-1.088.6 0 1.086.487 1.086 1.087 0 .602-.487 1.089-1.086 1.089-.601 0-1.088-.487-1.088-1.089zM234.9 177.01c0-.6.487-1.087 1.088-1.087.6 0 1.086.487 1.086 1.087 0 .602-.487 1.089-1.086 1.089-.601 0-1.088-.487-1.088-1.089zM237.072 214.133c-.032.598-.544 1.058-1.145 1.026-.6-.033-1.057-.546-1.025-1.147.034-.6.545-1.06 1.146-1.026.599.033 1.058.545 1.024 1.147zM240.135 181.644c0-.601.487-1.088 1.087-1.088s1.087.487 1.087 1.088c0 .6-.487 1.087-1.087 1.087s-1.087-.487-1.087-1.087zM240.135 186.277c0-.602.487-1.089 1.087-1.089s1.087.487 1.087 1.089c0 .601-.487 1.087-1.087 1.087s-1.087-.486-1.087-1.087zM240.135 190.91c0-.602.487-1.09 1.087-1.09s1.087.488 1.087 1.09c0 .6-.487 1.086-1.087 1.086s-1.087-.485-1.087-1.087zM240.135 195.542c0-.602.487-1.087 1.087-1.087s1.087.485 1.087 1.087c0 .6-.487 1.088-1.087 1.088s-1.087-.489-1.087-1.088zM240.135 200.174c0-.6.487-1.089 1.087-1.089s1.087.49 1.087 1.09c0 .6-.487 1.088-1.087 1.088s-1.087-.487-1.087-1.089zM240.135 204.807c0-.6.487-1.087 1.087-1.087s1.087.487 1.087 1.087c0 .601-.487 1.088-1.087 1.088s-1.087-.487-1.087-1.088zM240.135 209.44c0-.6.487-1.088 1.087-1.088s1.087.487 1.087 1.087c0 .602-.487 1.089-1.087 1.089s-1.087-.487-1.087-1.089zM240.135 177.01c0-.6.487-1.087 1.087-1.087s1.087.487 1.087 1.087c0 .602-.487 1.089-1.087 1.089s-1.087-.487-1.087-1.089zM242.307 214.133c-.033.598-.547 1.058-1.146 1.026-.597-.033-1.057-.546-1.025-1.147.033-.6.545-1.06 1.144-1.026.601.033 1.06.545 1.027 1.147zM245.277 181.644c0-.601.487-1.088 1.086-1.088.601 0 1.088.487 1.088 1.088 0 .6-.487 1.087-1.088 1.087-.599 0-1.086-.487-1.086-1.087zM245.277 186.277c0-.602.487-1.089 1.086-1.089.601 0 1.088.487 1.088 1.089 0 .601-.487 1.087-1.088 1.087-.599 0-1.086-.486-1.086-1.087zM245.277 190.91c0-.602.487-1.09 1.086-1.09.601 0 1.088.488 1.088 1.09 0 .6-.487 1.086-1.088 1.086-.599 0-1.086-.485-1.086-1.087zM245.277 195.542c0-.602.487-1.087 1.086-1.087.601 0 1.088.485 1.088 1.087 0 .6-.487 1.088-1.088 1.088-.599 0-1.086-.489-1.086-1.088zM245.277 200.174c0-.6.487-1.089 1.086-1.089.601 0 1.088.49 1.088 1.09 0 .6-.487 1.088-1.088 1.088-.599 0-1.086-.487-1.086-1.089zM245.277 204.807c0-.6.487-1.087 1.086-1.087.601 0 1.088.487 1.088 1.087 0 .601-.487 1.088-1.088 1.088-.599 0-1.086-.487-1.086-1.088zM245.277 209.44c0-.6.487-1.088 1.086-1.088.601 0 1.088.487 1.088 1.087 0 .602-.487 1.089-1.088 1.089-.599 0-1.086-.487-1.086-1.089zM245.277 177.01c0-.6.487-1.087 1.086-1.087.601 0 1.088.487 1.088 1.087 0 .602-.487 1.089-1.088 1.089-.599 0-1.086-.487-1.086-1.089zM247.45 214.133c-.035.598-.547 1.058-1.146 1.026-.6-.033-1.059-.546-1.025-1.147.032-.6.545-1.06 1.144-1.026.6.033 1.059.545 1.026 1.147zM250.345 181.644c0-.601.487-1.088 1.088-1.088.599 0 1.086.487 1.086 1.088 0 .6-.487 1.087-1.086 1.087-.601 0-1.088-.487-1.088-1.087zM250.345 186.277c0-.602.487-1.089 1.088-1.089.599 0 1.086.487 1.086 1.089 0 .601-.487 1.087-1.086 1.087-.601 0-1.088-.486-1.088-1.087zM250.345 190.91c0-.602.487-1.09 1.088-1.09.599 0 1.086.488 1.086 1.09 0 .6-.487 1.086-1.086 1.086-.601 0-1.088-.485-1.088-1.087zM250.345 195.542c0-.602.487-1.087 1.088-1.087.599 0 1.086.485 1.086 1.087 0 .6-.487 1.088-1.086 1.088-.601 0-1.088-.489-1.088-1.088zM250.345 200.174c0-.6.487-1.089 1.088-1.089.599 0 1.086.49 1.086 1.09 0 .6-.487 1.088-1.086 1.088-.601 0-1.088-.487-1.088-1.089zM250.345 204.807c0-.6.487-1.087 1.088-1.087.599 0 1.086.487 1.086 1.087 0 .601-.487 1.088-1.086 1.088-.601 0-1.088-.487-1.088-1.088zM250.345 209.44c0-.6.487-1.088 1.088-1.088.599 0 1.086.487 1.086 1.087 0 .602-.487 1.089-1.086 1.089-.601 0-1.088-.487-1.088-1.089zM250.345 177.01c0-.6.487-1.087 1.088-1.087.599 0 1.086.487 1.086 1.087 0 .602-.487 1.089-1.086 1.089-.601 0-1.088-.487-1.088-1.089zM252.517 214.133c-.032.598-.545 1.058-1.146 1.026-.597-.033-1.057-.546-1.024-1.147.032-.6.544-1.06 1.145-1.026.6.033 1.06.545 1.025 1.147zM255.488 181.644c0-.601.486-1.088 1.086-1.088.6 0 1.087.487 1.087 1.088 0 .6-.486 1.087-1.087 1.087-.6 0-1.086-.487-1.086-1.087zM255.488 186.277c0-.602.486-1.089 1.086-1.089.6 0 1.087.487 1.087 1.089 0 .601-.486 1.087-1.087 1.087-.6 0-1.086-.486-1.086-1.087zM255.488 190.91c0-.602.486-1.09 1.086-1.09.6 0 1.087.488 1.087 1.09 0 .6-.486 1.086-1.087 1.086-.6 0-1.086-.485-1.086-1.087zM255.488 195.542c0-.602.486-1.087 1.086-1.087.6 0 1.087.485 1.087 1.087 0 .6-.486 1.088-1.087 1.088-.6 0-1.086-.489-1.086-1.088zM255.488 200.174c0-.6.486-1.089 1.086-1.089.6 0 1.087.49 1.087 1.09 0 .6-.486 1.088-1.087 1.088-.6 0-1.086-.487-1.086-1.089zM255.488 204.807c0-.6.486-1.087 1.086-1.087.6 0 1.087.487 1.087 1.087 0 .601-.486 1.088-1.087 1.088-.6 0-1.086-.487-1.086-1.088zM255.488 209.44c0-.6.486-1.088 1.086-1.088.6 0 1.087.487 1.087 1.087 0 .602-.486 1.089-1.087 1.089-.6 0-1.086-.487-1.086-1.089zM255.488 177.01c0-.6.486-1.087 1.086-1.087.6 0 1.087.487 1.087 1.087 0 .602-.486 1.089-1.087 1.089-.6 0-1.086-.487-1.086-1.089zM257.66 214.133c-.034.598-.545 1.058-1.146 1.026-.6-.033-1.059-.546-1.025-1.147.033-.6.545-1.06 1.146-1.026.597.033 1.057.545 1.025 1.147z" transform="translate(-46 -2)"/>
                <path fill="#8ABE2E" d="M303.656 217.244L303.656 173.839 260.288 173.839z" transform="translate(-46 -2)"/>
                <path fill="#E95229" d="M216.921 217.244L260.288 217.244 260.288 173.839z" transform="translate(-46 -2)"/>
                <path fill="url(#prefix__m)" d="M215.302 260.648h1.619v-43.404h-1.62v43.404zm-41.749-43.404v43.404h1.617v-43.404h-1.617zm38.766 43.404h1.62v-43.404h-1.62v43.404zm-2.98 0h1.619v-43.404h-1.62v43.404zm-2.983 0h1.62v-43.404h-1.62v43.404zm-2.982 0h1.619v-43.404h-1.62v43.404zm-2.983 0h1.62v-43.404h-1.62v43.404zm-2.982 0h1.619v-43.404h-1.619v43.404zm-2.98 0h1.618v-43.404h-1.619v43.404zm-2.983 0h1.617v-43.404h-1.617v43.404zm-2.982 0h1.618v-43.404h-1.618v43.404zm-2.983 0h1.619v-43.404h-1.619v43.404zm-2.98 0h1.617v-43.404H182.5v43.404zm-2.983 0h1.617v-43.404h-1.617v43.404zm-2.982 0h1.617v-43.404h-1.617v43.404z" transform="translate(-46 -2)"/>
            </g>
        </g>
        <path d="M127.5 4C195.708 4 251 59.293 251 127.5S195.707 251 127.5 251 4 195.707 4 127.5 59.293 4 127.5 4z" mask="url(#prefix__c)"/>
        <circle cx="127.5" cy="127.5" r="94.5" fill="url(#prefix__n)" mask="url(#prefix__c)"/>
        <circle cx="127.5" cy="127.5" r="90.5" fill="#FEFEFE" mask="url(#prefix__c)"/>
        <path fill="url(#prefix__o)" d="M127.5 39c48.878 0 88.5 39.624 88.5 88.5 0 48.878-39.622 88.5-88.5 88.5S39 176.378 39 127.5C39 78.625 78.622 39 127.5 39zm0 1.778c47.896 0 86.723 38.826 86.723 86.723 0 47.895-38.827 86.722-86.722 86.722-47.897 0-86.723-38.827-86.723-86.722 0-47.897 38.826-86.723 86.723-86.723z" mask="url(#prefix__c)"/>
        <g fill="#2B2A29" mask="url(#prefix__c)">
            <g>
                <path fill-rule="nonzero" d="M7.634 6.483c0 2.332 1.37 2.666 2.027 2.666.509 0 2.097-.2 2.097-2.666 0-2.45-1.588-2.658-2.097-2.658-.79 0-2.027.5-2.027 2.658zm2.027-2.817c1.61 0 2.974 1.25 2.974 2.817 0 1.908-1.75 2.824-2.974 2.824-1.213 0-2.963-.916-2.963-2.824 0-1.567 1.365-2.817 2.963-2.817zM108.442 2.703c1.095-1.495 2.114-2.023 3.27-2.497-1.255.643-2.212 1.354-3.27 2.497zm-.106.087c2.295.65 3.492-2.668 3.492-2.668-2.874-.592-3.53 2.603-3.492 2.668z" transform="translate(72 177)"/>
                <path d="M5.414 4.623l-.136.126s.057-.056.136-.126z" transform="translate(72 177)"/>
                <path fill-rule="nonzero" d="M15.076 8.503v-4.46c1.452 0 3.523.15 3.523 2.26 0 1.923-1.89 2.19-3.523 2.2zm0-4.686v-.002h-1.353v.1s.256.001.38.122c.156.154.204.392.217.528V9.57c-.013.136-.061.374-.216.529-.125.12-.38.122-.38.122v.1h.605v-.004h.737v.003h.604v-.099s-.256-.001-.379-.122c-.145-.143-.196-.358-.215-.495v-.77c1.918-.002 4.381-.07 4.381-2.509 0-2.436-2.085-2.506-4.38-2.508z" transform="translate(72 177)"/>
                <path d="M28.586 10.095c-.193-.187-.254-.503-.27-.6L28.1 4.498c.019-.196.089-.444.319-.53.13-.049.324-.054.324-.054v-.107l-1.424-.002h-.002v.004l-2.784 5.575-2.675-5.572H20.4v.102s.198-.005.327.042c.063.025.173.083.173.118l-.246 5.43c-.017.103-.08.407-.268.591-.123.121-.38.123-.38.123v.099h1.642v-.099s-.303-.02-.397-.114c-.2-.196-.222-.539-.225-.624l.227-4.977 2.837 5.817h.38l2.878-5.736.212 4.884c0 .055-.014.428-.225.636-.096.094-.398.114-.398.114v.099h2.027v-.099s-.256-.002-.379-.123zM45.723 10.095c-.19-.187-.252-.505-.268-.6l-.216-4.997c.018-.196.088-.444.317-.53.131-.049.324-.064.324-.064v-.097h-.672v-.002h-.754v.004l-2.837 5.684-2.783-5.688H38.051v.002h-.513v.097s.194.015.324.064c.063.024.121.062.177.106l-.247 5.43c-.017.103-.079.407-.266.591-.123.121-.38.123-.38.123v.099h1.7v-.099s-.302-.02-.396-.114c-.221-.218-.223-.613-.223-.638l.211-4.872c.006.007.009.013.012.02l2.756 5.703h.404l2.878-5.733.206 4.877s.007.418-.221.643c-.096.094-.398.114-.398.114v.099h2.029v-.099s-.256-.002-.38-.123zM35.999 10.099c-.164-.16-.208-.411-.22-.542V4.53c.017-.137.066-.359.216-.503.123-.121.38-.124.38-.124v-.098H35.022l-3.837 5.83v-4.99c.009-.1.05-.432.242-.622.096-.094.398-.114.398-.114V3.81h-.665v.004h-1.333v.1s.256-.008.379.113c.191.188.22.5.223.597v4.862c-.001.086-.025.418-.223.613-.123.12-.38.124-.38.124v.097h1.359l3.837-5.825v5.022c-.01.129-.056.416-.23.587-.094.094-.396.114-.396.114v.097h.626v.002h.75v.003h.606v-.097s-.257-.003-.38-.124zM12.674 8.725c-.034.055-.732 1.396-3.062 1.396-1.862 0-2.924-.854-4.908-2.804-.656-.646-1.32-.884-1.826-.968l1.814-1.795s.179-.197.505-.465c.24-.2.615-.185.615-.185v-.092H4.168v.1s.21-.014.298.091c.101.123-.027.279-.122.374l-1.95 1.93c-.166-.002-.287.008-.35.008l-.666.002V4.487c0-.006.002-.01.004-.016.014-.305.266-.548.578-.557l.005-.001v-.098H.023v.098c.313 0 .567.24.593.543.002.014.002.029.003.044v.002c.002.03.004.063.004.1v4.88l.001.147c0 .324-.266.587-.595.587l-.01.004v.1h1.946v-.1l-.012-.002c-.575 0-.575-.592-.575-.594V6.795l.666-.003c1.116 0 1.39.072 2.535 1.2 1.912 1.879 2.823 2.73 5.033 2.73 2.504 0 3.306-1.749 3.347-1.82l-.285-.177zM106.29 9.783v.093c.536 0 .971.609.971.609h3.095s.435-.609.972-.609v-.093h-5.037zM55.156 3.805H49.79v.098l.006.001c.312.009.564.252.58.556l.001.015V9.614c0 .003 0 .594-.573.594l-.014.002v.1h1.947v-.1l-.01-.004c-.328 0-.596-.263-.596-.587l.002-5.441h4.023v5.441c0 .324-.268.587-.596.587l-.01.004v.1h1.947v-.1l-.014-.002c-.571 0-.573-.59-.573-.594V4.475l.002-.015c.017-.304.267-.547.58-.556l.005-.001v-.098h-1.341z" transform="translate(72 177)"/>
                <path fill-rule="nonzero" d="M71.907 10.027V6.782c1.91 0 3.922.307 3.922 1.743 0 1.549-2.344 1.502-3.922 1.502zm0-5.911l1.862.003c1.06 0 1.344.641 1.352 1.079.007.28-.011 1.27-1.122 1.27h-2.092V4.116zm2.72 2.574c.854-.259 1.264-.903 1.252-1.499-.017-.805-.86-1.376-2.07-1.376l-1.903-.006v-.005h-1.343v.099l.005.001c.312.007.565.25.58.557l.002.015v.014h.002s-.002 0-.002.002v5.122c0 .003 0 .594-.573.594-.009 0-.014.002-.014.002v.1h1.343v-.003h.001c2.179 0 4.79.02 4.79-1.8 0-1.18-.898-1.638-2.07-1.817z" transform="translate(72 177)"/>
                <path d="M83.229 9.614V4.476l.003-.015c.015-.305.266-.55.578-.557l.005-.001v-.098h-1.341v.009l-.005-.009-3.81 5.822V9.62 3.805H77.32v.098l.005.001c.312.007.563.252.578.557 0 .004.004.01.004.015v5.138c0 .003-.002.594-.574.594-.008 0-.013.002-.013.002v.1h1.341v-.005l3.814-5.79v5.795h1.341v-.1s-.005-.002-.012-.002c-.573 0-.574-.59-.574-.594z" transform="translate(72 177)"/>
                <path d="M84.805 3.804v.099s.256.001.379.124c.23.225.213.582.213.582.01.67 0 4.827 0 4.827 0 1.807-1.783 1.836-2.38 1.836l.44.636c.964 0 2.375-.53 2.375-2.698V4.178h3.526v6.132H90.7v-.1l-.012-.002c-.573 0-.575-.59-.575-.594V4.476c0-.005.004-.01.004-.015.017-.307.268-.548.58-.557l.003-.001v-.1h-5.894z" transform="translate(72 177)"/>
                <path fill-rule="nonzero" d="M93.076 10.027V6.782c1.532 0 3.895.307 3.895 1.743 0 1.549-2.319 1.502-3.895 1.502zm0-3.559l-.004-2.66v-.004H91.73v.099l.006.001c.313.007.563.25.579.557l.003.015v5.138c0 .003-.001.594-.573.594-.009 0-.015.002-.015.002v.1h1.342v-.003h.004c2.177 0 4.79.02 4.79-1.8 0-1.868-3.98-2.039-4.79-2.039zM64.414 7.797l1.747-3.549 1.59 3.549h-3.337zm4.958 1.752l-2.598-5.745h-.816L63.15 9.557c-.169.309-.332.493-.547.582-.111.047-.307.07-.307.07v.1h1.573v-.1s-.224.009-.308-.075c-.14-.136-.076-.377.053-.65l.625-1.278 3.698.007.638 1.386s.19.366-.005.535c-.088.079-.307.076-.307.076v.099h1.942v-.1s-.198-.023-.31-.07c-.22-.09-.434-.428-.523-.59zM58.795 4.035c1.632.01 3.635.248 3.635 2.23 0 1.68-2.003 2.22-3.635 2.228V4.035zm0 5.559v-.769c2.255 0 4.38-.473 4.38-2.56 0-2.42-2.084-2.455-4.38-2.456v-.002h-1.353v.097s.256.004.38.124c.156.155.203.393.217.529V9.56c-.014.138-.061.376-.217.529-.124.122-.38.124-.38.124v.099h.606v-.003h.735v.003h.606v-.1s-.256 0-.38-.123c-.144-.141-.197-.356-.214-.495z" transform="translate(72 177)"/>
                <path d="M104.378 4.377l.002-.013c.015-.307.266-.549.58-.557l.003-.002v-.099h-1.943v.1h.002c.314 0 .568.24.592.541.002.015.003.029.003.046.004.031.005.063.005.102v2.1h-3.906V4.378c0-.005.003-.01.003-.013.017-.307.268-.549.58-.557l.005-.002v-.099H98.36v.1h.002c.314 0 .568.24.592.541l.005.046c.002.031.003.063.003.102v4.879l.002.148c0 .323-.266.585-.595.587l-.01.002v.1h1.946v-.099l-.014-.003c-.573 0-.574-.59-.574-.592V6.968h3.906v2.406l.002.148c0 .323-.268.585-.595.587l-.012.002v.1H104.963v-.099l-.012-.003c-.573 0-.573-.59-.573-.592V4.377z" transform="translate(72 177)"/>
                <path fill-rule="nonzero" d="M106.743 6.532c0 2.37 1.392 2.711 2.062 2.711.515 0 2.131-.205 2.131-2.711 0-2.492-1.616-2.703-2.13-2.703-.806 0-2.063.508-2.063 2.703zm2.062-2.864c1.636 0 3.023 1.27 3.023 2.864 0 1.94-1.779 2.87-3.023 2.87-1.235 0-3.016-.93-3.016-2.87 0-1.594 1.389-2.864 3.016-2.864z" transform="translate(72 177)"/>
            </g>
        </g>
        <path fill="#2B2A29" d="M97 165v.66c6.278 0 11.372 4.34 11.372 4.34h36.258s5.094-4.34 11.37-4.34V165H97z" mask="url(#prefix__c)"/>
        <path fill="#2B2A29" fill-rule="nonzero" d="M102.194 125.955c0 28.115 16.373 32.14 24.25 32.14 6.076 0 25.058-2.412 25.058-32.14 0-29.53-18.982-32.04-25.058-32.04-9.455 0-24.25 6.026-24.25 32.04zM126.444 92C145.685 92 162 107.072 162 125.955 162 148.95 141.067 160 126.444 160 111.926 160 91 148.949 91 125.955 91 107.072 107.317 92 126.444 92z" mask="url(#prefix__c)"/>
        <path fill="url(#prefix__p)" d="M125.163 82.932v-.004h-.067c-.505-.04-1.013-.096-1.527-.17v-.009h-.051c-.625-.09-1.256-.211-1.896-.354v-.004h-.013c-.23-.051-.463-.108-.695-.167v-.01h-.042c-.222-.055-.444-.115-.666-.177v-.002h-.008c-.06-.017-.12-.031-.181-.048-.087-.159.16-1.862.887-4.418h.01v-.036c.807-2.834 2.205-6.705 4.39-10.682h.036v-.066l.164-.292h.014v-.02c.33-.59.677-1.179 1.042-1.766h.02v-.03l.318-.505h.036v-.055c.102-.16.205-.32.312-.48h.041v-.063l.32-.475h.035v-.05c.111-.162.225-.323.34-.485h.013v-.02c.335-.474.683-.944 1.045-1.41h.018v-.022c.226-.292.458-.583.695-.87h.012v-.016l.134-.164h.043v-.052c.34-.406.691-.804 1.051-1.198h.012V58.8l.15-.165h.026v-.03l.142-.15h.035v-.037l.135-.141h.043v-.045l.128-.134h.05v-.05l.122-.128h.055v-.057l.123-.122h.052v-.053l.128-.126h.05v-.048l.131-.13h.046v-.046l.135-.132h.043v-.042l.148-.137h.028V57l.165-.153h.012v-.012c.39-.36.787-.717 1.196-1.061h.043v-.034l.174-.143h.003v-.004c.144-.117.287-.237.432-.354h.099v-.076l.133-.104h.044v-.032c.219-.17.439-.338.662-.503h.046v-.033c.234-.17.47-.339.709-.502.264-.183.534-.362.807-.536h.078v-.048c.164-.105.331-.208.498-.31h.033v-.019l.263-.16h.092v-.052c.283-.165.57-.327.86-.484h.024v-.012l.319-.165h.035v-.019c.222-.115.448-.229.673-.339h.036v-.017l.34-.162h.013v-.007c.123-.057.245-.115.37-.17h.162v-.071l.254-.108h.1v-.043c.105-.045.208-.093.315-.136h.04v-.016c.136-.057.28-.108.419-.164h.11v-.043l.35-.134h.004v-.002c.167-.062.338-.118.507-.177h.025v-.009c.55-.19 1.111-.368 1.685-.526h.262v-.068l.432-.111h.276v-.071c.163-.04.328-.072.492-.109h.217v-.046c.215-.047.431-.091.651-.133h.234v-.04c.27-.05.541-.096.817-.139h.067v-.008c.452-.067.913-.12 1.377-.169h.925v-.083c.754-.055 1.523-.084 2.312-.084h.118c.935.003 1.895.046 2.881.13v.037h.403c.45.043.906.095 1.367.155v.022h.17c.296.042.593.085.893.131v.048h.297c.31.052.624.107.942.167v.012h.063c.298.057.597.118.899.181 0 0-3.315 9.425-9.813 18.218h-.002v.002c-.397.539-.807 1.076-1.228 1.606h-.01v.012c-2.164 2.726-4.64 5.324-7.424 7.491h-.01v.009c-.231.179-.465.353-.7.527h-.009v.007c-.962.709-1.959 1.367-2.99 1.957h-.02v.012c-.796.455-1.617.866-2.457 1.238h-.022v.01c-.58.257-1.169.493-1.77.705v.001c-.172.06-.346.121-.52.178h-.01v.003c-.389.128-.78.248-1.176.355h-.064v.019c-1.31.35-2.664.585-4.063.695h-.186v.016c-1.094.077-2.215.076-3.363-.012zm34.482-32.045c-1.373.72-2.716 1.446-4.033 2.185v.024h-.043l-.31.176v.003h-.006c-.834.472-1.66.947-2.474 1.427v.002h-.002l-.883.527v.009h-.016l-.868.526v.009h-.016c-.95.582-1.89 1.173-2.817 1.773v.014h-.02l-.512.332v.026h-.038l-.493.324v.033h-.05l-.48.32v.038h-.055l-.476.32v.036h-.055c-.935.634-1.861 1.281-2.778 1.94v.025h-.035c-.403.29-.806.582-1.205.878v.015h-.02l-.688.512v.024h-.03l-.678.513v.024h-.03c-.762.578-1.518 1.17-2.27 1.773v.012h-.016c-.29.233-.58.467-.87.705v.01h-.013l-.164.134v.045h-.055c-.276.227-.554.458-.83.689v.025h-.032c-.759.634-1.515 1.283-2.269 1.944v.02h-.026c-.464.409-.928.822-1.39 1.24v.01h-.012l-.166.15v.03h-.032c-.578.527-1.159 1.06-1.739 1.605v.003h-.003c-2.348 2.206-4.696 4.564-7.078 7.107v.038h-.034l-.143.152v.027h-.024l-.152.164v.014h-.015c-.645.694-1.294 1.401-1.946 2.123 12.871-18.008 24.815-24.363 38.39-30.055z" mask="url(#prefix__c)"/>
        <g mask="url(#prefix__c)">
            <g>
                <path fill="#FEFEFE" d="M16.925 33.459c.244-.004.484-.016.722-.033l-.722-1.28v1.313zm10.25-5.686c1.376-2.142 2.15-4.744 2.15-7.543 0-2.999-.889-5.771-2.456-7.996.67 1.393 1.045 2.956 1.045 4.605 0 2.692-1.11 5.23-2.943 7.109l2.204 3.825z" transform="translate(169 46)"/>
                <path fill="#FEFEFE" d="M.05.163V40.3h16.602c11.214 0 19.51-9.017 19.51-20.069 0-11.05-8.296-20.067-19.51-20.067H.05z" transform="translate(169 46)"/>
                <path fill="url(#prefix__q)" d="M20.01 30.985l-4.031-7.17h-2.314v7.17h-4.78V9.475h8.437c4.063 0 7.332 3.302 7.332 7.364 0 2.627-1.59 5.057-3.941 6.248l4.552 7.898H20.01zM16.652 3.74H3.626v32.98h13.026c9.046 0 15.934-7.21 15.934-16.49 0-9.28-6.888-16.49-15.934-16.49z" transform="translate(169 46)"/>
                <path fill="url(#prefix__r)" d="M16.216 15.43c.979 1.085 3.33 5.225 4.031 3.792.35-1.295-.013-3.039-.577-3.736-1.422-1.76-4.67-2.194-5.03-2.903-.163.26-.44 1.561-.472 3.35-.029 1.717.849 4.629 3.863 4.825 1.863-.399-1.815-5.329-1.815-5.329z" transform="translate(169 46)"/>
            </g>
        </g>
    </g>
</svg>
