<svg xmlns="http://www.w3.org/2000/svg" width="120" height="38" viewBox="0 0 120 38">
    <g fill="none" fill-rule="evenodd">
        <path fill="#0057A0" d="M42 37l6.155-36H58l-6.16 36zM87 1.546C85.085.8 82.085 0 78.338 0c-9.55 0-16.277 4.993-16.334 12.15-.054 5.289 4.803 8.24 8.468 10 3.762 1.805 5.027 2.956 5.01 4.567-.025 2.468-3.005 3.595-5.783 3.595-3.868 0-5.923-.558-9.097-1.932l-1.246-.585L58 36.036c2.257 1.027 6.432 1.918 10.766 1.964 10.159 0 16.754-4.936 16.829-12.577.036-4.188-2.538-7.375-8.114-10.003-3.378-1.703-5.447-2.84-5.425-4.564 0-1.53 1.75-3.166 5.534-3.166 3.16-.051 5.45.665 7.234 1.41l.866.425L87 1.546"/>
        <path fill="#0057A0" fill-rule="nonzero" d="M112.111 1h-7.532c-2.333 0-4.079.641-5.104 2.987L85 37h10.235s1.674-4.439 2.052-5.413c1.119 0 11.061.015 12.483.015A697.064 697.064 0 0 1 110.956 37H120l-7.889-36zm-12.019 23.219c.806-2.076 3.883-10.07 3.883-10.07-.057.096.8-2.086 1.293-3.438l.659 3.105 2.256 10.402h-8.091z"/>
        <path fill="#0057A0" d="M34.79 1l-9.436 24.588-1.005-4.996C22.592 14.832 17.119 8.59 11 5.466L19.628 37l10.198-.012L45 1H34.79"/>
        <path fill="#FAA61A" d="M16.057 1H.127L0 1.765C12.394 4.808 20.596 12.163 24 21L20.536 4.104C19.938 1.776 18.203 1.081 16.057 1"/>
    </g>
</svg>
