<svg xmlns="http://www.w3.org/2000/svg" width="82" height="64" viewBox="0 0 82 64">
    <g fill="none" fill-rule="evenodd">
        <path d="M-10.578-10.436H92.579v84.872H-10.578z"/>
        <path fill="#000" fill-rule="nonzero" d="M14.93 63.792v-4.23c0-1.621-.984-2.678-2.67-2.678-.844 0-1.757.282-2.39 1.198-.492-.775-1.194-1.198-2.248-1.198-.703 0-1.406.211-1.968.986v-.845H4.178v6.767h1.476v-3.736c0-1.199.632-1.763 1.616-1.763.984 0 1.476.635 1.476 1.763v3.736h1.476v-3.736c0-1.199.702-1.763 1.616-1.763.984 0 1.476.635 1.476 1.763v3.736h1.616zm21.854-6.767h-2.39V54.98H32.92v2.045h-1.335v1.339h1.335v3.102c0 1.55.632 2.467 2.319 2.467.632 0 1.335-.212 1.827-.494l-.422-1.269c-.421.282-.913.353-1.265.353-.702 0-.983-.423-.983-1.128v-3.031h2.389v-1.34zm12.508-.141c-.843 0-1.406.423-1.757.986v-.845H46.06v6.767h1.476v-3.807c0-1.128.492-1.762 1.406-1.762.28 0 .632.07.913.14l.422-1.409c-.281-.07-.703-.07-.984-.07zm-18.903.705c-.703-.494-1.686-.705-2.74-.705-1.687 0-2.811.846-2.811 2.185 0 1.128.843 1.762 2.319 1.974l.702.07c.773.141 1.195.353 1.195.705 0 .493-.562.846-1.546.846a3.87 3.87 0 0 1-2.249-.705l-.702 1.128c.773.564 1.827.846 2.88.846 1.968 0 3.093-.917 3.093-2.185 0-1.199-.914-1.833-2.32-2.045l-.702-.07c-.632-.07-1.124-.212-1.124-.635 0-.493.492-.775 1.265-.775.843 0 1.686.352 2.108.564l.632-1.198zm39.211-.705c-.843 0-1.405.423-1.757.986v-.845h-1.475v6.767h1.475v-3.807c0-1.128.492-1.762 1.406-1.762.28 0 .632.07.913.14l.422-1.409c-.281-.07-.703-.07-.984-.07zm-18.832 3.524c0 2.044 1.405 3.525 3.583 3.525.984 0 1.687-.212 2.39-.776l-.703-1.198c-.562.423-1.124.634-1.757.634-1.195 0-2.038-.845-2.038-2.185 0-1.269.843-2.115 2.038-2.185.633 0 1.195.211 1.757.634l.703-1.198c-.703-.564-1.406-.775-2.39-.775-2.178 0-3.583 1.48-3.583 3.524zm13.632 0v-3.383h-1.476v.845c-.492-.634-1.194-.986-2.108-.986-1.897 0-3.373 1.48-3.373 3.524s1.476 3.525 3.373 3.525c.984 0 1.687-.353 2.108-.987v.846H64.4v-3.384zm-5.41 0c0-1.198.772-2.185 2.037-2.185 1.195 0 2.038.916 2.038 2.185 0 1.199-.843 2.185-2.038 2.185-1.265-.07-2.038-.986-2.038-2.185zM41.35 56.884c-1.967 0-3.373 1.41-3.373 3.524 0 2.115 1.406 3.525 3.444 3.525.983 0 1.967-.282 2.74-.917l-.703-1.057c-.562.423-1.264.705-1.967.705-.914 0-1.827-.423-2.038-1.621h4.99v-.564c.07-2.186-1.195-3.595-3.093-3.595zm0 1.268c.914 0 1.546.564 1.687 1.622h-3.514c.14-.917.773-1.622 1.827-1.622zm36.611 2.256v-6.062h-1.476v3.524c-.491-.634-1.194-.986-2.108-.986-1.897 0-3.373 1.48-3.373 3.524s1.476 3.525 3.373 3.525c.984 0 1.687-.353 2.108-.987v.846h1.476v-3.384zm-5.41 0c0-1.198.772-2.185 2.037-2.185 1.195 0 2.038.916 2.038 2.185 0 1.199-.843 2.185-2.038 2.185-1.265-.07-2.038-.986-2.038-2.185zm-49.33 0v-3.383h-1.476v.845c-.492-.634-1.195-.986-2.108-.986-1.897 0-3.373 1.48-3.373 3.524s1.476 3.525 3.373 3.525c.984 0 1.686-.353 2.108-.987v.846h1.476v-3.384zm-5.481 0c0-1.198.773-2.185 2.037-2.185 1.195 0 2.038.916 2.038 2.185 0 1.199-.843 2.185-2.038 2.185-1.264-.07-2.037-.986-2.037-2.185z"/>
        <path fill="#FF5F00" d="M29.897 5.636h22.135v39.898H29.897z"/>
        <path fill="#EB001B" d="M31.303 25.585c0-8.106 3.794-15.296 9.627-19.949C36.643 2.252 31.232.208 25.33.208 11.346.208.032 11.558.032 25.585c0 14.028 11.314 25.377 25.298 25.377 5.902 0 11.313-2.044 15.6-5.428-5.833-4.582-9.627-11.842-9.627-19.949z"/>
        <path fill="#F79E1B" d="M81.897 25.585c0 14.028-11.313 25.377-25.297 25.377-5.903 0-11.314-2.044-15.6-5.428 5.903-4.652 9.627-11.842 9.627-19.949 0-8.106-3.795-15.296-9.627-19.949C45.286 2.252 50.697.208 56.6.208c13.984 0 25.297 11.42 25.297 25.377z"/>
    </g>
</svg>
