<svg xmlns="http://www.w3.org/2000/svg" width="135" height="37" viewBox="0 0 135 37">
    <defs>
        <linearGradient id="a" x1=".008%" y1="50%" y2="50%">
            <stop offset="30%" stop-color="#00B4E6"/>
            <stop offset="100%" stop-color="#088CCB"/>
        </linearGradient>
    </defs>
    <g fill="none" fill-rule="evenodd">
        <path fill="#4DB45E" d="M36.083 0v.016c-.017 0-5.23-.016-6.62 4.847a5201.95 5201.95 0 0 1-4.966 17.11h-.994S19.83 9.388 18.538 4.848C17.148-.016 11.918 0 11.918 0H0v37h11.917V15.026h.993L19.862 37h8.276l6.952-21.958h.993V37H48V0H36.083zM79.667 0S76.15.307 74.5 3.878L66 21.974h-1V0H53v37h11.333s3.684-.323 5.334-3.878L78 15.026h1V37h12V0H79.667zM97 17v20h11.893V25.32h12.884c5.616 0 10.373-3.472 12.14-8.32H97z"/>
        <path fill="url(#a)" d="M26.946 0H.15C1.49 6.957 6.962 12.543 14.04 14.362A20.14 20.14 0 0 0 19.08 15h20.653c.184-.83.268-1.676.268-2.553C40 5.569 34.159 0 26.946 0z" transform="translate(95)"/>
    </g>
</svg>
