<svg xmlns="http://www.w3.org/2000/svg" width="23" height="23" viewBox="0 0 23 23">
    <path fill="#37B23A" fill-rule="evenodd" d="M22.425 18.129l-3.543-3.543c-.705-.703-1.874-.682-2.604.049l-1.785 1.784-.352-.196c-1.127-.624-2.67-1.48-4.293-3.105-1.628-1.628-2.485-3.173-3.111-4.3-.066-.12-.13-.235-.192-.344l1.198-1.196.589-.59c.731-.732.751-1.9.047-2.605L4.837.54c-.704-.704-1.873-.682-2.605.049l-.998 1.004.027.027c-.335.427-.614.92-.823 1.451a6.017 6.017 0 0 0-.366 1.472c-.467 3.878 1.305 7.423 6.114 12.232 6.648 6.647 12.005 6.145 12.236 6.12.504-.06.986-.18 1.476-.37a5.754 5.754 0 0 0 1.446-.82l.022.02 1.012-.99c.73-.732.75-1.9.047-2.606z"/>
</svg>
