<svg xmlns="http://www.w3.org/2000/svg" width="30" height="27" viewBox="0 0 30 27">
    <g fill="#37B23A" fill-rule="evenodd">
        <path d="M16.875 0C10.276 0 4.815 5.035 3.9 11.559H0l5.625 5.78 5.625-5.78H7.69c.87-4.391 4.658-7.706 9.185-7.706 5.17 0 9.375 4.321 9.375 9.632s-4.206 9.633-9.375 9.633c-3.007 0-5.854-1.5-7.614-4.01l-3.043 2.25c2.463 3.515 6.447 5.613 10.657 5.613C24.112 26.97 30 20.92 30 13.485 30 6.05 24.112 0 16.875 0z"/>
        <path d="M14.595 7.356v7.943l5.426 3.499 1.87-3.35-3.661-2.362v-5.73z"/>
    </g>
</svg>
