<svg xmlns="http://www.w3.org/2000/svg" xmlns:xlink="http://www.w3.org/1999/xlink" width="181" height="39" viewBox="0 0 181 39">
    <defs>
        <linearGradient id="b" x1="50%" x2="50%" y1="-.693%" y2="100.671%">
            <stop offset="0%" stop-color="#FECF57"/>
            <stop offset="10.196%" stop-color="#C99548"/>
            <stop offset="41.176%" stop-color="#F8EAAB"/>
            <stop offset="63.922%" stop-color="#B96D2B"/>
            <stop offset="81.961%" stop-color="#E49F4E"/>
            <stop offset="100%" stop-color="#A65C28"/>
        </linearGradient>
        <circle id="a" cx="17.988" cy="17.998" r="17.974"/>
        <linearGradient id="d" x1="100%" x2="0%" y1="50%" y2="50%">
            <stop offset="0%" stop-color="#06512F"/>
            <stop offset="100%" stop-color="#8ABE2E"/>
        </linearGradient>
        <linearGradient id="e" x1="100%" x2="0%" y1="49.998%" y2="49.998%">
            <stop offset="0%" stop-color="#06512F"/>
            <stop offset="100%" stop-color="#8ABE2E"/>
        </linearGradient>
        <linearGradient id="f" x1="50%" x2="50%" y1="100%" y2="0%">
            <stop offset="0%" stop-color="#E95229"/>
            <stop offset="23.137%" stop-color="#E95229"/>
            <stop offset="61.961%" stop-color="#F08630"/>
            <stop offset="100%" stop-color="#F9B33B"/>
        </linearGradient>
        <linearGradient id="g" x1="0%" y1="50%" y2="50%">
            <stop offset="0%" stop-color="#E95229"/>
            <stop offset="23.137%" stop-color="#E95229"/>
            <stop offset="61.961%" stop-color="#F08630"/>
            <stop offset="100%" stop-color="#F9B33B"/>
        </linearGradient>
        <linearGradient id="h" x1="0%" y1="50%" y2="50%">
            <stop offset="0%" stop-color="#06512F"/>
            <stop offset="100%" stop-color="#8ABE2E"/>
        </linearGradient>
        <linearGradient id="i" x1="100%" x2="0%" y1="49.996%" y2="49.996%">
            <stop offset="0%" stop-color="#06512F"/>
            <stop offset="100%" stop-color="#8ABE2E"/>
        </linearGradient>
        <linearGradient id="j" x1="50%" x2="50%" y1="100%" y2=".004%">
            <stop offset="0%" stop-color="#E95229"/>
            <stop offset="23.137%" stop-color="#E95229"/>
            <stop offset="61.961%" stop-color="#F08630"/>
            <stop offset="100%" stop-color="#F9B33B"/>
        </linearGradient>
        <linearGradient id="k" x1="50%" x2="50%" y1="99.996%" y2="0%">
            <stop offset="0%" stop-color="#E95229"/>
            <stop offset="23.137%" stop-color="#E95229"/>
            <stop offset="61.961%" stop-color="#F08630"/>
            <stop offset="100%" stop-color="#F9B33B"/>
        </linearGradient>
        <linearGradient id="l" x1="0%" y1="50.004%" y2="50.004%">
            <stop offset="0%" stop-color="#E95229"/>
            <stop offset="23.137%" stop-color="#E95229"/>
            <stop offset="61.961%" stop-color="#F08630"/>
            <stop offset="100%" stop-color="#F9B33B"/>
        </linearGradient>
        <linearGradient id="m" x1="0%" y1="50.004%" y2="50.004%">
            <stop offset="0%" stop-color="#06512F"/>
            <stop offset="100%" stop-color="#8ABE2E"/>
        </linearGradient>
        <linearGradient id="n" x1="50%" x2="50%" y1="99.996%" y2="0%">
            <stop offset="0%" stop-color="#374B2F"/>
            <stop offset="3.137%" stop-color="#374B2F"/>
            <stop offset="52.157%" stop-color="#44793B"/>
            <stop offset="100%" stop-color="#55AE3E"/>
        </linearGradient>
        <linearGradient id="o" x1="50%" x2="50%" y1="100%" y2="0%">
            <stop offset="0%" stop-color="#374B2F"/>
            <stop offset="3.137%" stop-color="#374B2F"/>
            <stop offset="52.157%" stop-color="#44793B"/>
            <stop offset="100%" stop-color="#55AE3E"/>
        </linearGradient>
        <linearGradient id="p" x1="50%" x2="50%" y1="-.692%" y2="100.671%">
            <stop offset="0%" stop-color="#FECF57"/>
            <stop offset="10.196%" stop-color="#C99548"/>
            <stop offset="41.176%" stop-color="#F8EAAB"/>
            <stop offset="63.922%" stop-color="#B96D2B"/>
            <stop offset="81.961%" stop-color="#E49F4E"/>
            <stop offset="100%" stop-color="#A65C28"/>
        </linearGradient>
        <linearGradient id="q" x1="50%" x2="50%" y1="-.692%" y2="100.671%">
            <stop offset="0%" stop-color="#FECF57"/>
            <stop offset="10.196%" stop-color="#C99548"/>
            <stop offset="41.176%" stop-color="#F8EAAB"/>
            <stop offset="63.922%" stop-color="#B96D2B"/>
            <stop offset="81.961%" stop-color="#E49F4E"/>
            <stop offset="100%" stop-color="#A65C28"/>
        </linearGradient>
        <linearGradient id="r" x1="-1.104%" x2="101.103%" y1="98.275%" y2="1.732%">
            <stop offset="0%" stop-color="#06512F"/>
            <stop offset="100%" stop-color="#8ABE2E"/>
        </linearGradient>
        <linearGradient id="s" x1="89.205%" x2="10.795%" y1="105.844%" y2="-5.844%">
            <stop offset="0%" stop-color="#40AA3F"/>
            <stop offset="12.157%" stop-color="#40AA3F"/>
            <stop offset="85.098%" stop-color="#2E7038"/>
            <stop offset="100%" stop-color="#2E7038"/>
        </linearGradient>
        <linearGradient id="t" x1="93.116%" x2="6.863%" y1="103.215%" y2="-3.236%">
            <stop offset="0%" stop-color="#40AA3F"/>
            <stop offset="12.157%" stop-color="#40AA3F"/>
            <stop offset="85.098%" stop-color="#2E7038"/>
            <stop offset="100%" stop-color="#2E7038"/>
        </linearGradient>
        <path id="u" d="M.013.022h12.588v11.971H.013z"/>
        <path id="w" d="M0 .015h27.416v14.729H0z"/>
        <path id="y" d="M.023.018h7.384v5.997H.023z"/>
        <path id="A" d="M.018.012H16.31v17.292H.018z"/>
    </defs>
    <g fill="none" fill-rule="evenodd">
        <mask id="c" fill="#fff">
            <use xlink:href="#a"/>
        </mask>
        <use fill="url(#b)" xlink:href="#a"/>
        <circle cx="17.988" cy="17.998" r="17.738" mask="url(#c)"/>
        <path fill="#FEFEFE" d="M17.988.614c9.6 0 17.383 7.783 17.383 17.384 0 9.6-7.782 17.383-17.383 17.383-9.6 0-17.383-7.783-17.383-17.383C.605 8.398 8.388.614 17.988.614z" mask="url(#c)"/>
        <g mask="url(#c)">
            <path fill="#FEFEFE" d="M11.856 5.88h6.106V-.226h-6.106zM5.75 5.88h6.106V-.226H5.749z"/>
            <path fill="#2B2A29" d="M5.75 5.88V-.226H-.358z"/>
            <path fill="#FEFEFE" d="M-.357-.226V5.88h6.106z"/>
            <path fill="#8ABE2E" d="M8.802 2.827l3.054-3.053H5.749z"/>
            <path fill="url(#d)" d="M12.237 6.117h6.106L15.29 3.064z" transform="translate(-6.488 -.237)"/>
            <path fill="#E95229" d="M11.856 5.88h6.106V-.226h-6.106z"/>
            <path fill="url(#e)" d="M18.343 18.33v-6.106h-6.106v6.106z" transform="translate(-6.488 -.237)"/>
            <path fill="url(#f)" d="M6.13 12.224v6.106h6.107v-6.106z" transform="translate(-6.488 -.237)"/>
            <path fill="#2B2A29" d="M11.856 18.093h6.106v-6.107h-6.106z"/>
            <path fill="#FEFEFE" d="M5.75 11.986h6.106V5.88H5.749zM-.357 11.986h6.106V5.88H-.357z"/>
            <path fill="url(#g)" d="M18.343 12.224h6.107l-6.107-6.107z" transform="translate(-6.488 -.237)"/>
            <path fill="url(#h)" d="M24.45 12.224V6.117h-6.107z" transform="translate(-6.488 -.237)"/>
            <path fill="#2B2A29" d="M5.75 6.682h6.106V6.47H5.749zM5.75 7.075h6.106v-.213H5.749zM5.75 7.468h6.106v-.213H5.749zM5.75 7.861h6.106v-.213H5.749zM5.75 8.254h6.106V8.04H5.749zM5.75 8.647h6.106v-.213H5.749zM5.75 9.04h6.106v-.213H5.749zM5.75 9.433h6.106v-.214H5.749zM5.75 9.826h6.106v-.214H5.749zM5.75 10.218h6.106v-.213H5.749zM5.75 10.611h6.106v-.213H5.749zM5.75 11.004h6.106v-.213H5.749zM5.75 11.397h6.106v-.213H5.749zM5.75 11.79h6.106v-.213H5.749zM5.75 6.29h6.106v-.213H5.749zM.013 6.978a.153.153 0 1 1 .306 0 .153.153 0 0 1-.306 0zM.013 7.63a.153.153 0 1 1 .306 0 .153.153 0 0 1-.306 0zM.013 8.281a.153.153 0 1 1 .306 0 .153.153 0 0 1-.306 0zM.013 8.933a.153.153 0 1 1 .306 0 .153.153 0 0 1-.306 0zM.013 9.585a.153.153 0 1 1 .306 0 .153.153 0 0 1-.306 0zM.013 10.237a.153.153 0 1 1 .306 0 .153.153 0 0 1-.306 0zM.013 10.888a.153.153 0 1 1 .306 0 .153.153 0 0 1-.306 0zM.013 6.326a.153.153 0 1 1 .306 0 .153.153 0 0 1-.306 0zM.319 11.549a.153.153 0 1 1-.306-.017.153.153 0 0 1 .306.017zM.737 6.978a.153.153 0 1 1 .306 0 .153.153 0 0 1-.306 0zM.737 7.63a.153.153 0 1 1 .306 0 .153.153 0 0 1-.306 0zM.737 8.281a.153.153 0 1 1 .306 0 .153.153 0 0 1-.306 0zM.737 8.933a.153.153 0 1 1 .306 0 .153.153 0 0 1-.306 0zM.737 9.585a.153.153 0 1 1 .306 0 .153.153 0 0 1-.306 0zM.737 10.237a.153.153 0 1 1 .306 0 .153.153 0 0 1-.306 0zM.737 10.888a.153.153 0 1 1 .306 0 .153.153 0 0 1-.306 0zM.737 6.326a.153.153 0 1 1 .306 0 .153.153 0 0 1-.306 0zM1.043 11.549a.153.153 0 1 1-.306-.017.153.153 0 0 1 .306.017zM1.45 6.978a.153.153 0 1 1 .307 0 .153.153 0 0 1-.307 0zM1.45 7.63a.153.153 0 1 1 .306 0 .153.153 0 0 1-.306 0zM1.45 8.281a.153.153 0 1 1 .306 0 .153.153 0 0 1-.306 0zM1.45 8.933a.153.153 0 1 1 .306 0 .153.153 0 0 1-.306 0zM1.45 9.585a.153.153 0 1 1 .307 0 .153.153 0 0 1-.307 0zM1.45 10.237a.153.153 0 1 1 .307 0 .153.153 0 0 1-.307 0zM1.45 10.888a.153.153 0 1 1 .307 0 .153.153 0 0 1-.307 0zM1.45 6.326a.153.153 0 1 1 .307 0 .153.153 0 0 1-.307 0zM1.756 11.549a.153.153 0 1 1-.305-.018.153.153 0 0 1 .305.018zM2.174 6.978a.153.153 0 1 1 .307 0 .153.153 0 0 1-.307 0zM2.174 7.63a.153.153 0 1 1 .306 0 .153.153 0 0 1-.306 0zM2.174 8.281a.153.153 0 1 1 .306 0 .153.153 0 0 1-.306 0zM2.174 8.933a.153.153 0 1 1 .306 0 .153.153 0 0 1-.306 0zM2.174 9.585a.153.153 0 1 1 .307 0 .153.153 0 0 1-.307 0zM2.174 10.237a.153.153 0 1 1 .307 0 .153.153 0 0 1-.307 0zM2.174 10.888a.153.153 0 1 1 .307 0 .153.153 0 0 1-.307 0zM2.174 6.326a.153.153 0 1 1 .307 0 .153.153 0 0 1-.307 0zM2.48 11.549a.153.153 0 1 1-.305-.017.153.153 0 0 1 .305.017zM2.912 6.978a.153.153 0 1 1 .306 0 .153.153 0 0 1-.306 0zM2.912 7.63a.153.153 0 1 1 .305 0 .153.153 0 0 1-.305 0zM2.912 8.281a.153.153 0 1 1 .305 0 .153.153 0 0 1-.305 0zM2.912 8.933a.153.153 0 1 1 .305 0 .153.153 0 0 1-.305 0zM2.912 9.585a.153.153 0 1 1 .306 0 .153.153 0 0 1-.306 0zM2.912 10.237a.153.153 0 1 1 .306 0 .153.153 0 0 1-.306 0zM2.912 10.888a.153.153 0 1 1 .306 0 .153.153 0 0 1-.306 0zM2.912 6.326a.153.153 0 1 1 .306 0 .153.153 0 0 1-.306 0zM3.217 11.549a.153.153 0 1 1-.305-.017.153.153 0 0 1 .305.017zM3.636 6.978a.153.153 0 1 1 .306 0 .153.153 0 0 1-.306 0zM3.636 7.63a.153.153 0 1 1 .305 0 .153.153 0 0 1-.305 0zM3.636 8.281a.153.153 0 1 1 .305 0 .153.153 0 0 1-.305 0zM3.636 8.933a.153.153 0 1 1 .305 0 .153.153 0 0 1-.305 0zM3.636 9.585a.153.153 0 1 1 .306 0 .153.153 0 0 1-.306 0zM3.636 10.237a.153.153 0 1 1 .306 0 .153.153 0 0 1-.306 0zM3.636 10.888a.153.153 0 1 1 .306 0 .153.153 0 0 1-.306 0zM3.636 6.326a.153.153 0 1 1 .306 0 .153.153 0 0 1-.306 0zM3.941 11.549a.153.153 0 1 1-.305-.018.153.153 0 0 1 .305.018zM4.35 6.978a.153.153 0 1 1 .305 0 .153.153 0 0 1-.306 0zM4.35 7.63a.153.153 0 1 1 .305 0 .153.153 0 0 1-.306 0zM4.35 8.281a.153.153 0 1 1 .305 0 .153.153 0 0 1-.306 0zM4.35 8.933a.153.153 0 1 1 .305 0 .153.153 0 0 1-.306 0zM4.35 9.585a.153.153 0 1 1 .305 0 .153.153 0 0 1-.306 0zM4.35 10.237a.153.153 0 1 1 .305 0 .153.153 0 0 1-.306 0zM4.35 10.888a.153.153 0 1 1 .305 0 .153.153 0 0 1-.306 0zM4.35 6.326a.153.153 0 1 1 .305 0 .153.153 0 0 1-.306 0zM4.655 11.549a.153.153 0 1 1-.305-.017.153.153 0 0 1 .305.017zM5.073 6.978a.153.153 0 1 1 .306 0 .153.153 0 0 1-.306 0zM5.073 7.63a.153.153 0 1 1 .306 0 .153.153 0 0 1-.306 0zM5.073 8.281a.153.153 0 1 1 .306 0 .153.153 0 0 1-.306 0zM5.073 8.933a.153.153 0 1 1 .306 0 .153.153 0 0 1-.306 0zM5.073 9.585a.153.153 0 1 1 .306 0 .153.153 0 0 1-.306 0zM5.073 10.237a.153.153 0 1 1 .306 0 .153.153 0 0 1-.306 0zM5.073 10.888a.153.153 0 1 1 .306 0 .153.153 0 0 1-.306 0zM5.073 6.326a.153.153 0 1 1 .306 0 .153.153 0 0 1-.306 0zM5.38 11.549a.153.153 0 1 1-.307-.017.153.153 0 0 1 .306.017z"/>
            <path fill="#8ABE2E" d="M11.856 11.986V5.88H5.749z"/>
            <path fill="#E95229" d="M-.357 11.986h6.106V5.88z"/>
            <path fill="url(#f)" d="M18.343 6.117h6.107V.011h-6.107z" transform="translate(-6.488 -.237)"/>
            <path fill="#FEFEFE" d="M11.837 24.22h6.106v-6.107h-6.106z"/>
            <path fill="#FEFEFE" d="M5.73 24.22h6.107v-6.107H5.73z"/>
            <path fill="#2B2A29" d="M5.73 24.22v-6.107H-.375z"/>
            <path fill="#FEFEFE" d="M-.376 18.113v6.106h6.107z"/>
            <path fill="#8ABE2E" d="M8.784 21.166l3.053-3.053H5.73z"/>
            <path fill="url(#i)" d="M12.218 24.457h6.107l-3.053-3.054z" transform="translate(-6.488 -.237)"/>
            <path fill="#E95229" d="M11.837 24.22h6.106v-6.107h-6.106z"/>
            <path fill="url(#d)" d="M18.325 36.67v-6.107h-6.107v6.106z" transform="translate(-6.488 -.237)"/>
            <path fill="url(#f)" d="M6.112 30.563v6.106h6.106v-6.106z" transform="translate(-6.488 -.237)"/>
            <path fill="#2B2A29" d="M11.837 36.432h6.106v-6.106h-6.106z"/>
            <path fill="#FEFEFE" d="M5.73 30.326h6.107v-6.107H5.73z"/>
            <path fill="#FEFEFE" d="M-.376 30.326h6.107v-6.107H-.376z"/>
            <path fill="url(#g)" d="M18.325 30.563h6.106l-6.106-6.106z" transform="translate(-6.488 -.237)"/>
            <path fill="url(#h)" d="M24.431 30.563v-6.106h-6.106z" transform="translate(-6.488 -.237)"/>
            <path fill="#2B2A29" d="M5.73 25.022h6.107v-.213H5.73zM5.73 25.415h6.107V25.2H5.73zM5.73 25.808h6.107v-.214H5.73zM5.73 26.2h6.107v-.213H5.73zM5.73 26.593h6.107v-.213H5.73zM5.73 26.986h6.107v-.213H5.73zM5.73 27.379h6.107v-.213H5.73zM5.73 27.772h6.107v-.213H5.73zM5.73 28.165h6.107v-.213H5.73zM5.73 28.558h6.107v-.214H5.73zM5.73 28.95h6.107v-.213H5.73zM5.73 29.343h6.107v-.213H5.73zM5.73 29.736h6.107v-.213H5.73zM5.73 30.13h6.107v-.214H5.73zM5.73 24.629h6.107v-.213H5.73zM-.006 25.317a.153.153 0 1 1 .306 0 .153.153 0 0 1-.306 0zM-.006 25.969a.153.153 0 1 1 .306 0 .153.153 0 0 1-.306 0zM-.006 26.62a.153.153 0 1 1 .306 0 .153.153 0 0 1-.306 0zM-.006 27.273a.153.153 0 1 1 .306 0 .153.153 0 0 1-.306 0zM-.006 27.924a.153.153 0 1 1 .306 0 .153.153 0 0 1-.306 0zM-.006 28.576a.153.153 0 1 1 .306 0 .153.153 0 0 1-.306 0zM-.006 29.228a.153.153 0 1 1 .306 0 .153.153 0 0 1-.306 0zM-.006 24.665a.153.153 0 1 1 .306 0 .153.153 0 0 1-.306 0zM.3 29.888a.153.153 0 1 1-.306-.017.153.153 0 0 1 .306.017zM.718 25.317a.153.153 0 1 1 .306 0 .153.153 0 0 1-.306 0zM.718 25.969a.153.153 0 1 1 .306 0 .153.153 0 0 1-.306 0zM.718 26.62a.153.153 0 1 1 .306 0 .153.153 0 0 1-.306 0zM.718 27.273a.153.153 0 1 1 .306 0 .153.153 0 0 1-.306 0zM.718 27.924a.153.153 0 1 1 .306 0 .153.153 0 0 1-.306 0zM.718 28.576a.153.153 0 1 1 .306 0 .153.153 0 0 1-.306 0zM.718 29.228a.153.153 0 1 1 .306 0 .153.153 0 0 1-.306 0zM.718 24.665a.153.153 0 1 1 .306 0 .153.153 0 0 1-.306 0zM1.024 29.888a.153.153 0 1 1-.306-.017.153.153 0 0 1 .306.017zM1.432 25.317a.153.153 0 1 1 .306 0 .153.153 0 0 1-.306 0zM1.432 25.969a.153.153 0 1 1 .306 0 .153.153 0 0 1-.306 0zM1.432 26.62a.153.153 0 1 1 .306 0 .153.153 0 0 1-.306 0zM1.432 27.273a.153.153 0 1 1 .306 0 .153.153 0 0 1-.306 0zM1.432 27.924a.153.153 0 1 1 .306 0 .153.153 0 0 1-.306 0zM1.432 28.576a.153.153 0 1 1 .306 0 .153.153 0 0 1-.306 0zM1.432 29.228a.153.153 0 1 1 .306 0 .153.153 0 0 1-.306 0zM1.432 24.665a.153.153 0 1 1 .306 0 .153.153 0 0 1-.306 0zM1.738 29.888a.153.153 0 1 1-.306-.017.153.153 0 0 1 .306.017zM2.156 25.317a.153.153 0 1 1 .306 0 .153.153 0 0 1-.306 0zM2.156 25.969a.153.153 0 1 1 .306 0 .153.153 0 0 1-.306 0zM2.156 26.62a.153.153 0 1 1 .306 0 .153.153 0 0 1-.306 0zM2.156 27.273a.153.153 0 1 1 .306 0 .153.153 0 0 1-.306 0zM2.156 27.924a.153.153 0 1 1 .306 0 .153.153 0 0 1-.306 0zM2.156 28.576a.153.153 0 1 1 .306 0 .153.153 0 0 1-.306 0zM2.156 29.228a.153.153 0 1 1 .306 0 .153.153 0 0 1-.306 0zM2.156 24.665a.153.153 0 1 1 .306 0 .153.153 0 0 1-.306 0zM2.462 29.888a.153.153 0 1 1-.306-.017.153.153 0 0 1 .306.017zM2.893 25.317a.153.153 0 1 1 .306 0 .153.153 0 0 1-.306 0zM2.893 25.969a.153.153 0 1 1 .306 0 .153.153 0 0 1-.306 0zM2.893 26.62a.153.153 0 1 1 .306 0 .153.153 0 0 1-.306 0zM2.893 27.273a.153.153 0 1 1 .306 0 .153.153 0 0 1-.306 0zM2.893 27.924a.153.153 0 1 1 .306 0 .153.153 0 0 1-.306 0zM2.893 28.576a.153.153 0 1 1 .306 0 .153.153 0 0 1-.306 0zM2.893 29.228a.153.153 0 1 1 .306 0 .153.153 0 0 1-.306 0zM2.893 24.665a.153.153 0 1 1 .306 0 .153.153 0 0 1-.306 0zM3.199 29.888a.153.153 0 1 1-.306-.017.153.153 0 0 1 .306.017zM3.617 25.317a.153.153 0 1 1 .306 0 .153.153 0 0 1-.306 0zM3.617 25.969a.153.153 0 1 1 .306 0 .153.153 0 0 1-.306 0zM3.617 26.62a.153.153 0 1 1 .306 0 .153.153 0 0 1-.306 0zM3.617 27.273a.153.153 0 1 1 .306 0 .153.153 0 0 1-.306 0zM3.617 27.924a.153.153 0 1 1 .306 0 .153.153 0 0 1-.306 0zM3.617 28.576a.153.153 0 1 1 .306 0 .153.153 0 0 1-.306 0zM3.617 29.228a.153.153 0 1 1 .306 0 .153.153 0 0 1-.306 0zM3.617 24.665a.153.153 0 1 1 .306 0 .153.153 0 0 1-.306 0zM3.923 29.888a.153.153 0 0 1-.306-.017.153.153 0 1 1 .306.017zM4.33 25.317a.153.153 0 1 1 .306 0 .153.153 0 0 1-.306 0zM4.33 25.969a.153.153 0 1 1 .307 0 .153.153 0 0 1-.307 0zM4.33 26.62a.153.153 0 1 1 .307 0 .153.153 0 0 1-.307 0zM4.33 27.273a.153.153 0 1 1 .307 0 .153.153 0 0 1-.307 0zM4.33 27.924a.153.153 0 1 1 .307 0 .153.153 0 0 1-.307 0zM4.33 28.576a.153.153 0 1 1 .307 0 .153.153 0 0 1-.307 0zM4.33 29.228a.153.153 0 1 1 .307 0 .153.153 0 0 1-.307 0zM4.33 24.665a.153.153 0 1 1 .306 0 .153.153 0 0 1-.306 0zM4.636 29.888a.153.153 0 1 1-.305-.017.153.153 0 0 1 .305.017zM5.055 25.317a.153.153 0 1 1 .305 0 .153.153 0 0 1-.305 0zM5.055 25.969a.153.153 0 1 1 .306 0 .153.153 0 0 1-.306 0zM5.055 26.62a.153.153 0 1 1 .306 0 .153.153 0 0 1-.306 0zM5.055 27.273a.153.153 0 1 1 .306 0 .153.153 0 0 1-.306 0zM5.055 27.924a.153.153 0 1 1 .306 0 .153.153 0 0 1-.306 0zM5.055 28.576a.153.153 0 1 1 .306 0 .153.153 0 0 1-.306 0zM5.055 29.228a.153.153 0 1 1 .306 0 .153.153 0 0 1-.306 0zM5.055 24.665a.153.153 0 1 1 .305 0 .153.153 0 0 1-.305 0zM5.36 29.888a.153.153 0 0 1-.305-.017.153.153 0 1 1 .305.017z"/>
            <path fill="#8ABE2E" d="M11.837 30.326v-6.107H5.73z"/>
            <path fill="#E95229" d="M-.376 30.326h6.107v-6.107z"/>
            <path fill="url(#j)" d="M18.325 24.457h6.106V18.35h-6.106z" transform="translate(-6.488 -.237)"/>
            <path fill="#FEFEFE" d="M17.968 5.88h6.106V-.227h-6.106z"/>
            <path fill="#95C12B" d="M17.968.393h6.106V.175h-6.106zM17.968.794h6.106V.576h-6.106zM17.968 1.195h6.106V.977h-6.106zM17.968 1.596h6.106v-.218h-6.106zM17.968 1.997h6.106V1.78h-6.106zM17.968 2.398h6.106v-.217h-6.106zM17.968 2.8h6.106v-.218h-6.106zM17.968 3.2h6.106v-.217h-6.106zM17.968 3.602h6.106v-.218h-6.106zM17.968 4.003h6.106v-.218h-6.106zM17.968 4.404h6.106v-.217h-6.106zM17.968 4.805h6.106v-.217h-6.106zM17.968 5.207h6.106v-.218h-6.106zM17.968 5.608h6.106V5.39h-6.106z"/>
            <path fill="#FEFEFE" d="M17.968 18.093h6.106v-6.107h-6.106zM36.287 5.88h6.106V-.227h-6.106zM30.18 5.88h6.107V-.227H30.18z"/>
            <path fill="#2B2A29" d="M30.18 5.88V-.227h-6.106z"/>
            <path fill="#FEFEFE" d="M24.074-.227V5.88h6.107z"/>
            <path fill="#8ABE2E" d="M33.234 2.827l3.053-3.054H30.18z"/>
            <path fill="url(#d)" d="M36.668 6.117h6.107l-3.053-3.053z" transform="translate(-6.488 -.237)"/>
            <path fill="#E95229" d="M36.287 5.88h6.106V-.227h-6.106z"/>
            <path fill="url(#d)" d="M42.775 18.33v-6.106h-6.107v6.106z" transform="translate(-6.488 -.237)"/>
            <path fill="url(#k)" d="M30.562 12.224v6.106h6.106v-6.106z" transform="translate(-6.488 -.237)"/>
            <path fill="#2B2A29" d="M36.287 18.093h6.106v-6.107h-6.106z"/>
            <path fill="#FEFEFE" d="M30.18 11.986h6.107V5.88H30.18z"/>
            <path fill="#8ABE2E" d="M17.968 11.986h6.106V5.88h-6.106z"/>
            <path fill="#FEFEFE" d="M24.074 11.986h6.107V5.88h-6.107z"/>
            <path fill="url(#l)" d="M42.775 12.223h6.106l-6.106-6.106z" transform="translate(-6.488 -.237)"/>
            <path fill="url(#m)" d="M48.881 12.223V6.117h-6.106z" transform="translate(-6.488 -.237)"/>
            <path fill="#2B2A29" d="M30.18 6.682h6.107V6.47H30.18zM30.18 7.075h6.107v-.213H30.18zM30.18 7.468h6.107v-.213H30.18zM30.18 7.861h6.107v-.213H30.18zM30.18 8.254h6.107V8.04H30.18zM30.18 8.647h6.107v-.213H30.18zM30.18 9.04h6.107v-.213H30.18zM30.18 9.432h6.107V9.22H30.18zM30.18 9.825h6.107v-.213H30.18zM30.18 10.218h6.107v-.213H30.18zM30.18 10.611h6.107v-.213H30.18zM30.18 11.004h6.107v-.213H30.18zM30.18 11.397h6.107v-.213H30.18zM30.18 11.79h6.107v-.214H30.18zM30.18 6.29h6.107v-.214H30.18zM24.444 6.978a.153.153 0 1 1 .306 0 .153.153 0 0 1-.306 0zM24.444 7.63a.153.153 0 1 1 .306 0 .153.153 0 0 1-.306 0zM24.444 8.281a.153.153 0 1 1 .306 0 .153.153 0 0 1-.306 0zM24.444 8.933a.153.153 0 1 1 .306 0 .153.153 0 0 1-.306 0zM24.444 9.585a.153.153 0 1 1 .306 0 .153.153 0 0 1-.306 0zM24.444 10.237a.153.153 0 1 1 .306 0 .153.153 0 0 1-.306 0zM24.444 10.888a.153.153 0 1 1 .306 0 .153.153 0 0 1-.306 0zM24.444 6.326a.153.153 0 1 1 .306 0 .153.153 0 0 1-.306 0zM24.75 11.548a.153.153 0 1 1-.306-.016.153.153 0 0 1 .306.016zM25.168 6.978a.153.153 0 1 1 .306 0 .153.153 0 0 1-.306 0zM25.168 7.63a.153.153 0 1 1 .306 0 .153.153 0 0 1-.306 0zM25.168 8.281a.153.153 0 1 1 .306 0 .153.153 0 0 1-.306 0zM25.168 8.933a.153.153 0 1 1 .306 0 .153.153 0 0 1-.306 0zM25.168 9.585a.153.153 0 1 1 .306 0 .153.153 0 0 1-.306 0zM25.168 10.237a.153.153 0 1 1 .306 0 .153.153 0 0 1-.306 0zM25.168 10.888a.153.153 0 1 1 .306 0 .153.153 0 0 1-.306 0zM25.168 6.326a.153.153 0 1 1 .306 0 .153.153 0 0 1-.306 0zM25.474 11.548a.153.153 0 1 1-.306-.016.153.153 0 0 1 .306.016zM25.882 6.978a.153.153 0 1 1 .306 0 .153.153 0 0 1-.306 0zM25.882 7.63a.153.153 0 1 1 .306 0 .153.153 0 0 1-.306 0zM25.882 8.281a.153.153 0 1 1 .306 0 .153.153 0 0 1-.306 0zM25.882 8.933a.153.153 0 1 1 .306 0 .153.153 0 0 1-.306 0zM25.882 9.585a.153.153 0 1 1 .306 0 .153.153 0 0 1-.306 0zM25.882 10.237a.153.153 0 1 1 .306 0 .153.153 0 0 1-.306 0zM25.882 10.888a.153.153 0 1 1 .306 0 .153.153 0 0 1-.306 0zM25.882 6.326a.153.153 0 1 1 .306 0 .153.153 0 0 1-.306 0zM26.188 11.548a.153.153 0 1 1-.306-.016.153.153 0 0 1 .306.016zM26.606 6.978a.153.153 0 1 1 .306 0 .153.153 0 0 1-.306 0zM26.606 7.63a.153.153 0 1 1 .306 0 .153.153 0 0 1-.306 0zM26.606 8.281a.153.153 0 1 1 .306 0 .153.153 0 0 1-.306 0zM26.606 8.933a.153.153 0 1 1 .306 0 .153.153 0 0 1-.306 0zM26.606 9.585a.153.153 0 1 1 .306 0 .153.153 0 0 1-.306 0zM26.606 10.237a.153.153 0 1 1 .306 0 .153.153 0 0 1-.306 0zM26.606 10.888a.153.153 0 1 1 .306 0 .153.153 0 0 1-.306 0zM26.606 6.326a.153.153 0 1 1 .306 0 .153.153 0 0 1-.306 0zM26.912 11.548a.153.153 0 1 1-.306-.016.153.153 0 0 1 .306.016zM27.343 6.978a.153.153 0 1 1 .306 0 .153.153 0 0 1-.306 0zM27.343 7.63a.153.153 0 1 1 .306 0 .153.153 0 0 1-.306 0zM27.343 8.281a.153.153 0 1 1 .306 0 .153.153 0 0 1-.306 0zM27.343 8.933a.153.153 0 1 1 .306 0 .153.153 0 0 1-.306 0zM27.343 9.585a.153.153 0 1 1 .306 0 .153.153 0 0 1-.306 0zM27.343 10.237a.153.153 0 1 1 .306 0 .153.153 0 0 1-.306 0zM27.343 10.888a.153.153 0 1 1 .306 0 .153.153 0 0 1-.306 0zM27.343 6.326a.153.153 0 1 1 .306 0 .153.153 0 0 1-.306 0zM27.649 11.548a.153.153 0 1 1-.306-.016.153.153 0 0 1 .306.016zM28.067 6.978a.153.153 0 1 1 .306 0 .153.153 0 0 1-.306 0zM28.067 7.63a.153.153 0 1 1 .306 0 .153.153 0 0 1-.306 0zM28.067 8.281a.153.153 0 1 1 .306 0 .153.153 0 0 1-.306 0zM28.067 8.933a.153.153 0 1 1 .306 0 .153.153 0 0 1-.306 0zM28.067 9.585a.153.153 0 1 1 .306 0 .153.153 0 0 1-.306 0zM28.067 10.237a.153.153 0 1 1 .306 0 .153.153 0 0 1-.306 0zM28.067 10.888a.153.153 0 1 1 .306 0 .153.153 0 0 1-.306 0zM28.067 6.326a.153.153 0 1 1 .306 0 .153.153 0 0 1-.306 0zM28.373 11.548a.153.153 0 1 1-.306-.017.153.153 0 0 1 .306.017zM28.78 6.978a.153.153 0 1 1 .306 0 .153.153 0 0 1-.305 0zM28.78 7.63a.153.153 0 1 1 .306 0 .153.153 0 0 1-.305 0zM28.78 8.281a.153.153 0 1 1 .307 0 .153.153 0 0 1-.306 0zM28.78 8.933a.153.153 0 1 1 .307 0 .153.153 0 0 1-.306 0zM28.78 9.585a.153.153 0 1 1 .307 0 .153.153 0 0 1-.306 0zM28.78 10.237a.153.153 0 1 1 .307 0 .153.153 0 0 1-.306 0zM28.78 10.888a.153.153 0 1 1 .307 0 .153.153 0 0 1-.306 0zM28.78 6.326a.153.153 0 1 1 .306 0 .153.153 0 0 1-.305 0zM29.086 11.548a.153.153 0 1 1-.305-.016.153.153 0 0 1 .305.016zM29.505 6.978a.153.153 0 1 1 .305 0 .153.153 0 0 1-.305 0zM29.505 7.63a.153.153 0 1 1 .305 0 .153.153 0 0 1-.305 0zM29.505 8.281a.153.153 0 1 1 .306 0 .153.153 0 0 1-.306 0zM29.505 8.933a.153.153 0 1 1 .306 0 .153.153 0 0 1-.306 0zM29.505 9.585a.153.153 0 1 1 .306 0 .153.153 0 0 1-.306 0zM29.505 10.237a.153.153 0 1 1 .306 0 .153.153 0 0 1-.306 0zM29.505 10.888a.153.153 0 1 1 .306 0 .153.153 0 0 1-.306 0zM29.505 6.326a.153.153 0 1 1 .305 0 .153.153 0 0 1-.305 0zM29.81 11.548a.153.153 0 1 1-.306-.017.153.153 0 0 1 .306.017z"/>
            <path fill="#8ABE2E" d="M36.287 11.986V5.88H30.18z"/>
            <path fill="#E95229" d="M24.074 11.986h6.107V5.88z"/>
            <path fill="url(#f)" d="M42.775 6.117h6.106V.011h-6.106z" transform="translate(-6.488 -.237)"/>
            <path fill="url(#n)" d="M30.334 18.33h.228v-6.106h-.228v6.106zm-5.878-6.106v6.106h.228v-6.106h-.228zm5.458 6.106h.228v-6.106h-.228v6.106zm-.42 0h.228v-6.106h-.227v6.106zm-.42 0h.229v-6.106h-.228v6.106zm-.42 0h.229v-6.106h-.228v6.106zm-.42 0h.229v-6.106h-.228v6.106zm-.42 0h.229v-6.106h-.228v6.106zm-.419 0h.228v-6.106h-.228v6.106zm-.42 0h.228v-6.106h-.228v6.106zm-.42 0h.228v-6.106h-.228v6.106zm-.42 0h.228v-6.106h-.228v6.106zm-.42 0h.228v-6.106h-.227v6.106zm-.42 0h.228v-6.106h-.227v6.106zm-.42 0h.228v-6.106h-.227v6.106z" transform="translate(-6.488 -.237)"/>
            <path fill="#FEFEFE" d="M17.95 24.22h6.106v-6.107h-6.107z"/>
            <path fill="#95C12B" d="M17.95 18.732h6.106v-.218h-6.107zM17.95 19.133h6.106v-.218h-6.107zM17.95 19.534h6.106v-.218h-6.107zM17.95 19.935h6.106v-.217h-6.107zM17.95 20.336h6.106v-.217h-6.107zM17.95 20.738h6.106v-.218h-6.107zM17.95 21.139h6.106v-.218h-6.107zM17.95 21.54h6.106v-.218h-6.107zM17.95 21.941h6.106v-.218h-6.107zM17.95 22.342h6.106v-.217h-6.107zM17.95 22.744h6.106v-.218h-6.107zM17.95 23.145h6.106v-.218h-6.107zM17.95 23.546h6.106v-.218h-6.107zM17.95 23.947h6.106v-.218h-6.107zM17.95 18.33h6.106v-.217h-6.107z"/>
            <path fill="#FEFEFE" d="M17.95 36.432h6.106v-6.107h-6.107zM36.268 24.22h6.107v-6.107h-6.107zM30.162 24.22h6.106v-6.107h-6.106z"/>
            <path fill="#2B2A29" d="M30.162 24.22v-6.107h-6.106z"/>
            <path fill="#FEFEFE" d="M24.056 18.113v6.106h6.106z"/>
            <path fill="#8ABE2E" d="M33.215 21.166l3.053-3.053h-6.106z"/>
            <path fill="url(#d)" d="M36.65 24.457h6.106l-3.053-3.054z" transform="translate(-6.488 -.237)"/>
            <path fill="#E95229" d="M36.268 24.22h6.107v-6.107h-6.107z"/>
            <path fill="url(#d)" d="M42.756 36.67v-6.107H36.65v6.106z" transform="translate(-6.488 -.237)"/>
            <path fill="url(#f)" d="M30.543 30.563v6.106h6.107v-6.106z" transform="translate(-6.488 -.237)"/>
            <path fill="#2B2A29" d="M36.268 36.432h6.107v-6.107h-6.107z"/>
            <path fill="#FEFEFE" d="M30.162 30.325h6.106V24.22h-6.106z"/>
            <path fill="#8ABE2E" d="M17.95 30.325h6.106V24.22h-6.107z"/>
            <path fill="#FEFEFE" d="M24.056 30.325h6.106V24.22h-6.106z"/>
            <path fill="url(#g)" d="M42.756 30.563h6.106l-6.106-6.106z" transform="translate(-6.488 -.237)"/>
            <path fill="url(#h)" d="M48.862 30.563v-6.106h-6.106z" transform="translate(-6.488 -.237)"/>
            <path fill="#2B2A29" d="M30.162 25.022h6.106v-.214h-6.106zM30.162 25.414h6.106v-.213h-6.106zM30.162 25.808h6.106v-.214h-6.106zM30.162 26.2h6.106v-.213h-6.106zM30.162 26.593h6.106v-.213h-6.106zM30.162 26.986h6.106v-.213h-6.106zM30.162 27.379h6.106v-.213h-6.106zM30.162 27.772h6.106v-.214h-6.106zM30.162 28.165h6.106v-.213h-6.106zM30.162 28.558h6.106v-.214h-6.106zM30.162 28.95h6.106v-.213h-6.106zM30.162 29.343h6.106v-.213h-6.106zM30.162 29.736h6.106v-.213h-6.106zM30.162 30.129h6.106v-.213h-6.106zM30.162 24.629h6.106v-.214h-6.106zM24.425 25.317a.153.153 0 1 1 .307 0 .153.153 0 0 1-.307 0zM24.425 25.969a.153.153 0 1 1 .307 0 .153.153 0 0 1-.307 0zM24.425 26.62a.153.153 0 1 1 .307 0 .153.153 0 0 1-.307 0zM24.425 27.272a.153.153 0 1 1 .306 0 .153.153 0 0 1-.306 0zM24.425 27.924a.153.153 0 1 1 .307 0 .153.153 0 0 1-.307 0zM24.425 28.576a.153.153 0 1 1 .307 0 .153.153 0 0 1-.307 0zM24.425 29.227a.153.153 0 1 1 .307 0 .153.153 0 0 1-.307 0zM24.425 24.665a.153.153 0 1 1 .307 0 .153.153 0 0 1-.307 0zM24.731 29.888a.153.153 0 1 1-.305-.017.153.153 0 0 1 .305.017zM25.15 25.317a.153.153 0 1 1 .306 0 .153.153 0 0 1-.307 0zM25.15 25.969a.153.153 0 1 1 .306 0 .153.153 0 0 1-.307 0zM25.15 26.62a.153.153 0 1 1 .306 0 .153.153 0 0 1-.307 0zM25.15 27.272a.153.153 0 1 1 .305 0 .153.153 0 0 1-.306 0zM25.15 27.924a.153.153 0 1 1 .306 0 .153.153 0 0 1-.307 0zM25.15 28.576a.153.153 0 1 1 .306 0 .153.153 0 0 1-.307 0zM25.15 29.227a.153.153 0 1 1 .306 0 .153.153 0 0 1-.307 0zM25.15 24.665a.153.153 0 1 1 .306 0 .153.153 0 0 1-.307 0zM25.455 29.888a.153.153 0 1 1-.305-.017.153.153 0 0 1 .305.017zM25.863 25.317a.153.153 0 1 1 .306 0 .153.153 0 0 1-.306 0zM25.863 25.969a.153.153 0 1 1 .306 0 .153.153 0 0 1-.306 0zM25.863 26.62a.153.153 0 1 1 .306 0 .153.153 0 0 1-.306 0zM25.863 27.272a.153.153 0 1 1 .306 0 .153.153 0 0 1-.306 0zM25.863 27.924a.153.153 0 1 1 .307 0 .153.153 0 0 1-.307 0zM25.863 28.576a.153.153 0 1 1 .306 0 .153.153 0 0 1-.306 0zM25.863 29.227a.153.153 0 1 1 .306 0 .153.153 0 0 1-.306 0zM25.863 24.665a.153.153 0 1 1 .306 0 .153.153 0 0 1-.306 0zM26.169 29.888a.153.153 0 1 1-.306-.017.153.153 0 0 1 .306.017zM26.587 25.317a.153.153 0 1 1 .306 0 .153.153 0 0 1-.306 0zM26.587 25.969a.153.153 0 1 1 .306 0 .153.153 0 0 1-.306 0zM26.587 26.62a.153.153 0 1 1 .306 0 .153.153 0 0 1-.306 0zM26.587 27.272a.153.153 0 1 1 .306 0 .153.153 0 0 1-.306 0zM26.587 27.924a.153.153 0 1 1 .307 0 .153.153 0 0 1-.307 0zM26.587 28.576a.153.153 0 1 1 .306 0 .153.153 0 0 1-.306 0zM26.587 29.227a.153.153 0 1 1 .306 0 .153.153 0 0 1-.306 0zM26.587 24.665a.153.153 0 1 1 .306 0 .153.153 0 0 1-.306 0zM26.893 29.888a.153.153 0 1 1-.306-.017.153.153 0 0 1 .306.017zM27.324 25.317a.153.153 0 1 1 .306 0 .153.153 0 0 1-.306 0zM27.324 25.969a.153.153 0 1 1 .306 0 .153.153 0 0 1-.306 0zM27.324 26.62a.153.153 0 1 1 .306 0 .153.153 0 0 1-.306 0zM27.324 27.272a.153.153 0 1 1 .306 0 .153.153 0 0 1-.306 0zM27.324 27.924a.153.153 0 1 1 .307 0 .153.153 0 0 1-.307 0zM27.324 28.576a.153.153 0 1 1 .306 0 .153.153 0 0 1-.306 0zM27.324 29.227a.153.153 0 1 1 .306 0 .153.153 0 0 1-.306 0zM27.324 24.665a.153.153 0 1 1 .306 0 .153.153 0 0 1-.306 0zM27.63 29.888a.153.153 0 1 1-.306-.018.153.153 0 0 1 .306.018zM28.048 25.317a.153.153 0 1 1 .306 0 .153.153 0 0 1-.306 0zM28.048 25.969a.153.153 0 1 1 .306 0 .153.153 0 0 1-.306 0zM28.048 26.62a.153.153 0 1 1 .306 0 .153.153 0 0 1-.306 0zM28.048 27.272a.153.153 0 1 1 .306 0 .153.153 0 0 1-.306 0zM28.048 27.924a.153.153 0 1 1 .307 0 .153.153 0 0 1-.307 0zM28.048 28.576a.153.153 0 1 1 .306 0 .153.153 0 0 1-.306 0zM28.048 29.227a.153.153 0 1 1 .306 0 .153.153 0 0 1-.306 0zM28.048 24.665a.153.153 0 1 1 .306 0 .153.153 0 0 1-.306 0zM28.354 29.888a.153.153 0 1 1-.306-.018.153.153 0 0 1 .306.018zM28.762 25.317a.153.153 0 1 1 .306 0 .153.153 0 0 1-.306 0zM28.762 25.969a.153.153 0 1 1 .306 0 .153.153 0 0 1-.306 0zM28.762 26.62a.153.153 0 1 1 .306 0 .153.153 0 0 1-.306 0zM28.762 27.272a.153.153 0 1 1 .306 0 .153.153 0 0 1-.306 0zM28.762 27.924a.153.153 0 1 1 .306 0 .153.153 0 0 1-.306 0zM28.762 28.576a.153.153 0 1 1 .306 0 .153.153 0 0 1-.306 0zM28.762 29.227a.153.153 0 1 1 .306 0 .153.153 0 0 1-.306 0zM28.762 24.665a.153.153 0 1 1 .306 0 .153.153 0 0 1-.306 0zM29.068 29.888a.153.153 0 1 1-.306-.017.153.153 0 0 1 .306.017zM29.486 25.317a.153.153 0 1 1 .306 0 .153.153 0 0 1-.306 0zM29.486 25.969a.153.153 0 1 1 .306 0 .153.153 0 0 1-.306 0zM29.486 26.62a.153.153 0 1 1 .306 0 .153.153 0 0 1-.306 0zM29.486 27.272a.153.153 0 1 1 .306 0 .153.153 0 0 1-.306 0zM29.486 27.924a.153.153 0 1 1 .306 0 .153.153 0 0 1-.306 0zM29.486 28.576a.153.153 0 1 1 .306 0 .153.153 0 0 1-.306 0zM29.486 29.227a.153.153 0 1 1 .306 0 .153.153 0 0 1-.306 0zM29.486 24.665a.153.153 0 1 1 .306 0 .153.153 0 0 1-.306 0zM29.792 29.888a.153.153 0 1 1-.306-.018.153.153 0 0 1 .306.018z"/>
            <path fill="#8ABE2E" d="M36.268 30.325V24.22h-6.106z"/>
            <path fill="#E95229" d="M24.056 30.325h6.106V24.22z"/>
            <path fill="url(#f)" d="M42.756 24.457h6.106V18.35h-6.106z" transform="translate(-6.488 -.237)"/>
            <path fill="url(#o)" d="M30.315 36.67h.228v-6.107h-.228v6.106zm-5.878-6.107v6.106h.228v-6.106h-.228zm5.459 6.106h.227v-6.106h-.227v6.106zm-.42 0h.228v-6.106h-.228v6.106zm-.42 0h.228v-6.106h-.228v6.106zm-.42 0h.228v-6.106h-.228v6.106zm-.42 0h.228v-6.106h-.228v6.106zm-.42 0h.228v-6.106h-.228v6.106zm-.42 0h.228v-6.106h-.228v6.106zm-.42 0h.228v-6.106h-.228v6.106zm-.42 0h.228v-6.106h-.227v6.106zm-.42 0h.229v-6.106h-.228v6.106zm-.42 0h.229v-6.106h-.228v6.106zm-.419 0h.228v-6.106h-.228v6.106zm-.42 0h.228v-6.106h-.228v6.106z" transform="translate(-6.488 -.237)"/>
        </g>
        <path d="M17.988.614c9.6 0 17.383 7.783 17.383 17.384 0 9.6-7.782 17.383-17.383 17.383-9.6 0-17.383-7.783-17.383-17.383C.605 8.398 8.388.614 17.988.614z" mask="url(#c)"/>
        <circle cx="17.988" cy="17.998" r="13.312" fill="url(#p)" mask="url(#c)"/>
        <circle cx="17.988" cy="17.998" r="12.73" fill="#FEFEFE" mask="url(#c)"/>
        <path fill="url(#q)" d="M17.988 5.533c6.884 0 12.465 5.58 12.465 12.465 0 6.884-5.58 12.465-12.465 12.465-6.884 0-12.465-5.581-12.465-12.465 0-6.884 5.58-12.465 12.465-12.465zm0 .25c6.746 0 12.215 5.469 12.215 12.215 0 6.746-5.469 12.214-12.215 12.214-6.746 0-12.214-5.468-12.214-12.214S11.242 5.783 17.988 5.783z" mask="url(#c)"/>
        <g fill="#2B2A29" mask="url(#c)">
            <path fill-rule="nonzero" d="M11.267 25.832c0 .333.193.381.285.381.071 0 .294-.028.294-.38 0-.35-.223-.38-.294-.38-.111 0-.285.071-.285.38zm.285-.402c.226 0 .418.178.418.402 0 .273-.246.404-.418.404-.17 0-.416-.131-.416-.404 0-.224.191-.402.416-.402zM25.43 25.292a.948.948 0 0 1 .46-.356c-.177.091-.311.193-.46.356zm-.015.013c.323.092.49-.381.49-.381-.403-.085-.495.371-.49.38z"/>
            <path d="M10.955 25.567l-.019.018.02-.018z"/>
            <path fill-rule="nonzero" d="M12.313 26.12v-.636c.204 0 .495.021.495.323 0 .274-.266.312-.495.314zm0-.669h-.19v.014s.036 0 .053.018a.129.129 0 0 1 .03.075v.715a.129.129 0 0 1-.03.076c-.017.017-.053.017-.053.017v.014h.273v-.014s-.036 0-.053-.017a.125.125 0 0 1-.03-.07v-.11c.269-.001.615-.011.615-.36 0-.347-.293-.357-.615-.358z"/>
            <path d="M14.21 26.348a.165.165 0 0 1-.037-.086l-.03-.713c.002-.028.012-.064.044-.076.018-.007.046-.008.046-.008v-.015h-.2l-.392.797-.376-.796h-.204v.014s.028 0 .046.006c.009.004.024.012.024.017l-.035.776a.165.165 0 0 1-.037.084c-.017.018-.054.018-.054.018v.014h.231v-.014s-.043-.003-.056-.016c-.028-.029-.03-.077-.031-.09l.032-.71.398.83h.054l.404-.82.03.699c0 .008-.002.06-.032.09-.013.014-.056.017-.056.017v.014h.285v-.014s-.036 0-.053-.018zM16.618 26.348a.167.167 0 0 1-.037-.086l-.03-.713c.002-.028.012-.064.044-.076a.203.203 0 0 1 .045-.01v-.013h-.2l-.399.812-.39-.812h-.183v.014s.028.002.046.009a.096.096 0 0 1 .025.015l-.035.776a.164.164 0 0 1-.037.084c-.018.018-.054.018-.054.018v.014h.24v-.014s-.043-.003-.056-.016c-.032-.032-.032-.088-.032-.092l.03-.696.002.003.387.815h.057l.404-.82.029.698s0 .06-.031.092c-.014.013-.056.016-.056.016v.014h.285v-.014s-.036 0-.054-.018zM15.252 26.349a.129.129 0 0 1-.03-.078v-.718a.123.123 0 0 1 .03-.072c.017-.017.053-.017.053-.017v-.014h-.19l-.539.833v-.713c.001-.015.007-.062.034-.09.013-.013.056-.015.056-.015v-.015h-.281v.015s.036 0 .053.016c.027.027.031.072.032.086v.694c0 .013-.004.06-.032.088-.017.017-.053.018-.053.018v.013h.191l.54-.832v.718c-.002.018-.009.06-.033.084-.013.013-.056.016-.056.016v.014h.279v-.013s-.037-.001-.054-.018zM11.975 26.152c-.005.008-.103.2-.43.2-.262 0-.41-.122-.69-.4a.468.468 0 0 0-.256-.139l.255-.256s.025-.028.07-.067c.034-.028.087-.026.087-.026v-.013h-.23v.014s.029-.002.041.013c.014.017-.004.04-.017.053l-.274.276-.05.001h-.093v-.261-.002a.083.083 0 0 1 .082-.08v-.014h-.272v.014c.044 0 .08.034.083.078v.006l.001.015v.717a.084.084 0 0 1-.083.085h-.002v.014h.274v-.014h-.002c-.08 0-.08-.085-.08-.085v-.404h.093c.156 0 .195.01.356.17.269.27.397.39.707.39.352 0 .464-.25.47-.26l-.04-.025zM25.128 26.304v.013c.075 0 .136.087.136.087h.435s.061-.087.137-.087v-.013h-.708zM17.944 25.45H17.19v.014c.044.001.08.036.082.08v.736s0 .084-.08.084h-.002v.015h.273v-.014h-.001a.084.084 0 0 1-.084-.085v-.777h.566v.777a.084.084 0 0 1-.084.084h-.001v.015h.273v-.014h-.002c-.08 0-.08-.085-.08-.085V25.545v-.002a.084.084 0 0 1 .081-.08h.001v-.013h-.188z"/>
            <path fill-rule="nonzero" d="M20.297 26.338v-.463c.268 0 .551.044.551.249 0 .221-.33.214-.55.214zm0-.844h.262c.149 0 .189.092.19.155 0 .04-.002.181-.158.181h-.294v-.336zm.382.368c.12-.037.178-.13.176-.214-.002-.115-.12-.197-.29-.197h-.268v-.002h-.189v.015h.001c.044 0 .08.036.082.08v.736s0 .084-.08.084h-.003v.015h.189c.306 0 .673.002.673-.258 0-.168-.126-.234-.29-.26z"/>
            <path d="M21.888 26.28V25.546v-.003a.083.083 0 0 1 .081-.08h.001v-.013h-.188l-.536.831v-.831h-.189v.014h.001c.044 0 .08.036.081.08v.736s0 .084-.08.084h-.002v.015h.188l.537-.828v.828h.188v-.014h-.001c-.081 0-.081-.085-.081-.085z"/>
            <path d="M22.11 25.45v.014s.035 0 .052.017c.033.032.03.084.03.084.002.095 0 .69 0 .69 0 .257-.25.261-.334.261l.062.091c.135 0 .334-.076.334-.385v-.72h.495v.877h.188v-.014h-.001c-.08 0-.081-.085-.081-.085v-.734-.003a.084.084 0 0 1 .082-.08v-.014h-.828z"/>
            <path fill-rule="nonzero" d="M23.271 26.338v-.463c.215 0 .547.044.547.249 0 .221-.325.214-.547.214zm0-.508v-.38h-.189v.014h.001c.044 0 .08.036.081.08v.736s0 .084-.08.084h-.002v.015h.189c.306 0 .673.002.673-.258 0-.266-.559-.29-.673-.29zM19.244 26.02l.246-.507.223.507h-.469zm.697.25l-.365-.82h-.115l-.394.821c-.024.044-.047.07-.077.084-.016.006-.043.01-.043.01v.014h.22v-.014s-.03 0-.042-.011c-.02-.02-.011-.054.007-.093l.088-.183.52.001.09.198s.026.053-.002.077c-.012.011-.043.01-.043.01v.015h.273v-.014s-.028-.004-.043-.01c-.031-.013-.062-.062-.074-.085zM18.455 25.483c.23.001.51.035.51.318 0 .24-.28.317-.51.318v-.636zm0 .794v-.11c.317 0 .615-.068.615-.366 0-.346-.292-.35-.615-.35v-.001h-.19v.014s.036 0 .053.018a.129.129 0 0 1 .03.075v.715a.128.128 0 0 1-.03.075c-.017.018-.053.018-.053.018v.014h.273v-.014s-.036 0-.053-.018a.122.122 0 0 1-.03-.07z"/>
            <path d="M24.86 25.531v-.001a.083.083 0 0 1 .08-.08h.001v-.014h-.273v.014c.045 0 .08.034.084.077v.007l.001.014v.3h-.549v-.317-.001a.084.084 0 0 1 .082-.08v-.014h-.272v.014c.044 0 .08.034.083.077v.007l.001.014v.718a.084.084 0 0 1-.083.084h-.002v.015h.274v-.014h-.002c-.08 0-.08-.085-.08-.085v-.364h.548V26.266a.084.084 0 0 1-.085.084v.015h.273v-.014h-.001c-.08 0-.08-.085-.08-.085V25.53z"/>
            <path fill-rule="nonzero" d="M25.191 25.84c0 .338.196.387.29.387.073 0 .3-.03.3-.388 0-.356-.227-.386-.3-.386-.113 0-.29.073-.29.386zm.29-.41c.23 0 .425.181.425.41 0 .276-.25.41-.425.41-.173 0-.424-.134-.424-.41 0-.229.196-.41.424-.41z"/>
        </g>
        <path fill="#2B2A29" d="M13.576 23.23v.096c.883 0 1.6.628 1.6.628h5.101s.717-.628 1.6-.628v-.096h-8.301z" mask="url(#c)"/>
        <path fill="#2B2A29" fill-rule="nonzero" d="M14.32 17.782c0 3.974 2.295 4.543 3.399 4.543.851 0 3.511-.341 3.511-4.543 0-4.174-2.66-4.53-3.511-4.53-1.325 0-3.399.852-3.399 4.53zm3.399-4.8c2.696 0 4.983 2.13 4.983 4.8 0 3.25-2.934 4.812-4.983 4.812-2.035 0-4.967-1.562-4.967-4.812 0-2.67 2.286-4.8 4.967-4.8z" mask="url(#c)"/>
        <path fill="url(#r)" d="M17.67 11.646h-.01a3.534 3.534 0 0 1-.214-.024v-.001h-.008a3.663 3.663 0 0 1-.266-.05h-.002a3.822 3.822 0 0 1-.097-.023v-.002h-.006a3.361 3.361 0 0 1-.094-.024h-.001l-.025-.007c-.013-.022.022-.26.124-.615h.002v-.005a7.27 7.27 0 0 1 .616-1.487h.005v-.01l.023-.04h.002v-.003c.047-.082.095-.164.147-.246h.002v-.004l.045-.07h.005v-.008l.044-.067h.006v-.009l.045-.066h.005v-.007l.047-.067h.002v-.003a5.09 5.09 0 0 1 .147-.196h.003v-.003c.031-.041.064-.082.097-.122h.002v-.002l.019-.023h.006v-.007c.048-.056.097-.112.147-.167h.002v-.001l.021-.023h.004V8.26l.02-.021h.005v-.005l.019-.02h.006v-.006l.018-.02h.007v-.006l.017-.018h.008v-.008l.017-.017h.007v-.007l.018-.018h.007v-.006l.019-.019h.006v-.006l.019-.018h.006v-.006l.02-.02h.005v-.003l.023-.021h.002v-.002c.054-.05.11-.1.168-.147h.006V7.86l.024-.02.061-.05h.014v-.01l.019-.015h.006v-.004c.03-.024.062-.047.093-.07h.007v-.005a4.116 4.116 0 0 1 .212-.145h.011v-.006l.07-.043h.005V7.49l.037-.022h.013V7.46l.12-.068h.004v-.002l.045-.023h.005v-.002l.094-.047h.005v-.003l.048-.022h.002v-.001l.052-.024h.023v-.01l.035-.015h.014v-.006l.045-.019h.005v-.002l.06-.023h.015v-.006l.049-.018c.024-.01.048-.017.071-.025h.004v-.002c.077-.026.156-.05.237-.073h.037v-.01l.06-.015h.039v-.01l.07-.015h.03v-.006l.091-.019h.033V6.99l.115-.02h.01c.063-.01.127-.018.193-.024h.13v-.012c.105-.008.213-.012.324-.012h.017c.131 0 .266.007.405.018v.006h.056l.192.021v.003h.024l.125.019v.006h.042l.132.024v.001h.01l.126.025s-.466 1.312-1.379 2.537a7.85 7.85 0 0 1-.173.223h-.001v.002a6.24 6.24 0 0 1-1.043 1.043h-.001v.001a4.353 4.353 0 0 1-.52.347h-.003v.002c-.112.063-.227.12-.345.172h-.003v.001a3.738 3.738 0 0 1-.322.123h-.001c-.055.019-.11.035-.165.05h-.01v.003a3.2 3.2 0 0 1-.57.097h-.026v.002a3.24 3.24 0 0 1-.473-.002zm4.843-4.46c-.193.1-.381.2-.566.303v.004h-.006l-.044.024c-.118.066-.234.132-.348.2l-.125.073v.001h-.002l-.122.073v.002h-.002a18.07 18.07 0 0 0-.396.246v.002H20.9l-.072.047v.003h-.006l-.069.045v.005h-.007l-.067.044v.006h-.008l-.067.044v.005h-.008c-.131.089-.261.179-.39.27v.004h-.005l-.17.122v.002h-.002l-.097.071v.004h-.004l-.095.071v.004h-.004a16 16 0 0 0-.32.246v.002h-.001l-.123.098v.002h-.002l-.023.018v.006h-.007l-.117.096v.004h-.004c-.107.088-.213.179-.319.27v.003h-.004l-.195.173v.001h-.002l-.023.021v.004h-.004l-.245.224c-.33.307-.66.636-.994.99v.005h-.005l-.02.021v.004h-.004l-.021.023v.002h-.002c-.09.096-.182.195-.273.295 1.808-2.507 3.485-3.391 5.392-4.184z" mask="url(#c)"/>
        <g mask="url(#c)">
            <path fill="#FEFEFE" d="M26.17 11.19c.035 0 .068-.002.101-.004l-.1-.179v.184zm1.43-.793c.193-.299.3-.662.3-1.052a1.93 1.93 0 0 0-.342-1.116 1.426 1.426 0 0 1-.265 1.634l.308.534z"/>
            <path fill="#FEFEFE" d="M23.816 6.545v5.6h2.316c1.565 0 2.723-1.258 2.723-2.8 0-1.542-1.158-2.8-2.723-2.8h-2.316z"/>
            <path fill="url(#s)" d="M2.792 4.324l-.562-1h-.323v1H1.24V1.322h1.177c.567 0 1.023.46 1.023 1.028a.993.993 0 0 1-.55.871l.635 1.103h-.733zM2.324.522H.506v4.602h1.818c1.262 0 2.223-1.006 2.223-2.301 0-1.295-.961-2.301-2.223-2.301z" transform="translate(23.809 6.522)"/>
            <path fill="url(#t)" d="M2.263 2.153c.136.151.464.729.562.53.05-.182-.002-.425-.08-.522-.199-.246-.652-.306-.702-.405-.023.036-.062.218-.066.467-.004.24.118.646.539.673.26-.055-.253-.743-.253-.743z" transform="translate(23.809 6.522)"/>
        </g>
        <g>
            <g transform="translate(63.093 1)">
                <mask id="v" fill="#fff">
                    <use xlink:href="#u"/>
                </mask>
                <path fill="#2B2A29" d="M1.998 6c0 4.95 2.902 5.658 4.3 5.658 1.076 0 4.442-.426 4.442-5.658C10.74.8 7.374.359 6.298.359c-1.677 0-4.3 1.062-4.3 5.64m4.3-5.977C9.708.022 12.6 2.676 12.6 6c0 4.047-3.71 5.993-6.303 5.993C3.723 11.993.013 10.047.013 6 .013 2.676 2.906.022 6.298.022" mask="url(#v)"/>
            </g>
            <path fill="#2B2A29" d="M59.772 2.59l-.066.06.066-.06M80.877 11.335V1.849c3.08 0 7.47.316 7.47 4.805 0 4.094-4.009 4.661-7.47 4.68m0-9.967V1.36h-1.585V1.36h-1.283v.21s.545.005.805.262c.334.328.433.835.464 1.124v10.65c-.031.288-.13.796-.464 1.124-.26.257-.805.263-.805.263v.21h1.283v-.006h1.562v.006h1.283v-.21s-.543-.006-.805-.263c-.306-.3-.415-.758-.455-1.054v-1.637c4.062-.003 9.288-.15 9.288-5.337 0-5.185-4.42-5.334-9.288-5.335M109.459 14.725c-.406-.401-.536-1.07-.567-1.276l-.459-10.617c.04-.417.187-.944.673-1.126.275-.104.685-.114.685-.114v-.23l-3.01-.002h-.005v.01l-5.883 11.845-5.656-11.842-3.078.002v.217s.417-.011.692.093c.133.05.364.17.364.245l-.521 11.536c-.035.223-.166.868-.563 1.26-.261.256-.804.261-.804.261v.21l3.469-.004v-.21s-.638-.042-.839-.239c-.42-.417-.47-1.146-.473-1.324l.477-10.575c.008.014 5.997 12.358 5.997 12.358h.806l6.084-12.185.447 10.374c-.001.117-.031.91-.479 1.352-.2.197-.839.24-.839.24v.209l4.286.004v-.21s-.544-.005-.804-.262M145.805 14.732c-.407-.403-.535-1.073-.567-1.278l-.458-10.62c.04-.419.186-.945.672-1.128.276-.104.686-.135.686-.135v-.209h-1.422V1.36h-1.593v.01l-5.998 12.078-5.882-12.088H129.59v.002h-1.084v.21s.409.03.686.134c.132.051.254.132.371.224l-.522 11.542c-.035.223-.166.868-.563 1.26-.261.257-.804.262-.804.262v.21l3.597-.005v-.209s-.638-.042-.839-.24c-.467-.463-.47-1.304-.47-1.357l.446-10.355.026.043 5.821 12.122h.856l6.084-12.184.437 10.366s.012.887-.472 1.365c-.2.198-.838.24-.838.24v.21l4.288.003v-.209s-.543-.005-.804-.262M125.222 14.732c-.343-.34-.438-.872-.464-1.154V2.904c.037-.295.144-.764.456-1.074.26-.257.803-.261.803-.261v-.21h-2.854l-8.114 12.39V3.146c.019-.215.105-.92.512-1.323.202-.197.84-.24.84-.24v-.208h-1.404v.003h-2.82v.214s.543-.019.803.238c.403.4.465 1.063.475 1.272v10.331c-.006.18-.057.886-.477 1.3-.26.256-.802.261-.802.261v.21h1.28v-.002h1.593l8.114-12.376v10.67c-.026.273-.122.885-.489 1.248-.2.198-.839.24-.839.24v.21h1.328v.004h1.583v.005h1.28v-.209s-.543-.005-.804-.262"/>
            <g transform="translate(49 1.336)">
                <mask id="x" fill="#fff">
                    <use xlink:href="#w"/>
                </mask>
                <path fill="#2B2A29" d="M26.813 10.486c-.07.119-1.55 2.977-6.487 2.977-3.945 0-6.198-1.821-10.4-5.977C8.537 6.108 7.13 5.602 6.06 5.423L9.9 1.595s.379-.42 1.068-.992C11.482.177 12.275.21 12.275.21V.015H8.793v.214s.444-.034.631.193c.214.261-.057.591-.262.798L5.03 5.332c-.35-.004-.608.017-.737.017l-1.413.007V1.45c0-.01.006-.021.006-.032A1.257 1.257 0 0 1 4.114.232l.01-.003V.02H.007v.21c.667 0 1.205.512 1.257 1.157.004.03.006.06.009.094v.004c.005.064.01.133.01.217v10.4l.002.316c0 .69-.566 1.25-1.262 1.252-.014.002-.022.005-.022.005v.215h4.125v-.214l-.028-.005c-1.215 0-1.217-1.26-1.217-1.266V6.37l1.413-.005c2.364 0 2.944.154 5.371 2.555 4.05 4.01 5.98 5.823 10.662 5.823 5.306 0 7.002-3.727 7.09-3.878l-.603-.38z" mask="url(#x)"/>
            </g>
            <g transform="translate(172.955 13.284)">
                <mask id="z" fill="#fff">
                    <use xlink:href="#y"/>
                </mask>
                <path fill="#2B2A29" d="M.25 5.65C2.567 2.477 4.718 1.355 7.161.35 4.508 1.712 2.486 3.225.25 5.65m-.224.186C4.877 7.216 7.406.174 7.406.174 1.33-1.085-.05 5.698.027 5.836" mask="url(#z)"/>
            </g>
            <path fill="#2B2A29" d="M168.644 33.99v.124c1.137 0 2.058.81 2.058.81h6.562s.922-.81 2.059-.81v-.125h-10.679zM60.352 21.25H49v.209l.01.003a1.253 1.253 0 0 1 1.226 1.185c0 .01.006.02.006.03V33.61c0 .008-.002 1.265-1.215 1.265L49 34.88v.213h4.119v-.215l-.022-.006a1.255 1.255 0 0 1-1.26-1.249c0-.049 0-8.854.002-11.577h8.513v11.577c0 .69-.564 1.248-1.26 1.25l-.021.005v.215h4.118v-.213l-.026-.005c-1.213 0-1.216-1.257-1.216-1.264V22.676c0-.01.007-.02.007-.03a1.252 1.252 0 0 1 1.226-1.184l.01-.003v-.21h-2.838zM95.867 34.489v-6.904c4.037 0 8.294.653 8.294 3.71 0 3.295-4.958 3.194-8.294 3.194zm0-12.576c.9-.003 3.734.006 3.935.006 2.244 0 2.845 1.363 2.864 2.295.011.597-.026 2.7-2.376 2.7-.124 0-3.757.003-4.423.002v-5.003zm5.752 5.474c1.805-.548 2.672-1.917 2.647-3.188-.033-1.712-1.82-2.924-4.374-2.924l-4.03-.019v-.007h-2.84v.21l.012.003c.661.017 1.191.534 1.225 1.185 0 .009.005.02.005.03v.03l.001.001-.001.002V33.61c0 .007-.002 1.265-1.214 1.265l-.028.005v.213h2.839v-.008h.006c4.607 0 10.134.043 10.134-3.827 0-2.51-1.906-3.488-4.382-3.871zM119.816 33.61V22.679c0-.012.006-.022.007-.032a1.255 1.255 0 0 1 1.23-1.184l.01-.003v-.209h-2.85v.02l-.01-.022-8.094 12.389v-.016l.001-12.371h-2.85v.21s.007 0 .01.002a1.255 1.255 0 0 1 1.23 1.184c0 .01.007.02.007.031V33.61c0 .007-.002 1.264-1.22 1.264l-.027.005v.213H110.11v-.01l8.103-12.32a46566.079 46566.079 0 0 1 0 12.33h2.85v-.213l-.027-.005c-1.218 0-1.22-1.257-1.22-1.264"/>
            <g transform="translate(119.343 21.25)">
                <mask id="B" fill="#fff">
                    <use xlink:href="#A"/>
                </mask>
                <path fill="#2B2A29" d="M3.81.012v.211s.545.005.806.263c.483.48.449 1.245.449 1.245.023 1.43 0 10.3 0 10.3 0 3.856-3.781 3.917-5.047 3.917l.936 1.356c2.045 0 5.035-1.131 5.035-5.758V.811h7.478v13.084h2.844v-.213l-.028-.005c-1.215 0-1.216-1.26-1.216-1.267V1.446c0-.011.005-.022.005-.03A1.257 1.257 0 0 1 16.3.225l.01-.002v-.21L3.81.012z" mask="url(#B)"/>
            </g>
            <path fill="#2B2A29" d="M140.688 34.489v-6.904c3.242 0 8.24.653 8.24 3.71 0 3.295-4.905 3.194-8.24 3.194m0-7.573l-.006-5.66v-.007h-2.839v.21l.011.003c.661.017 1.192.534 1.225 1.185 0 .009.006.02.006.03V33.61c0 .007-.002 1.265-1.214 1.265l-.028.005v.213h2.839v-.008h.006c4.606 0 10.134.043 10.134-3.827 0-3.977-8.419-4.342-10.134-4.342M79.99 29.745l3.704-7.55 3.377 7.55H79.99zm10.52 3.728l-5.516-12.224h-1.732l-5.955 12.242c-.36.655-.705 1.051-1.161 1.242-.236.097-.655.149-.655.149v.21h3.338v-.21s-.473.015-.652-.16c-.294-.29-.158-.805.115-1.382l1.322-2.723 7.848.016 1.353 2.946s.4.78-.009 1.142c-.19.167-.653.16-.653.16v.212h4.118v-.211s-.42-.052-.653-.149c-.469-.196-.924-.912-1.109-1.26zM68.043 21.737c3.462.02 7.707.53 7.707 4.744 0 3.576-4.245 4.725-7.707 4.743v-9.487zm0 11.83v-1.64c4.78 0 9.288-1.004 9.288-5.446 0-5.151-4.42-5.224-9.288-5.225v-.007h-2.868v.21s.545.004.805.262c.334.329.433.836.463 1.124v10.651c-.03.29-.13.795-.463 1.125-.26.258-.805.262-.805.262v.21h1.283v-.007h1.562v.007h1.283v-.21s-.543-.004-.805-.262c-.306-.302-.415-.759-.455-1.054zM164.567 22.51c0-.011.005-.023.006-.033a1.252 1.252 0 0 1 1.226-1.183.064.064 0 0 1 .012-.003v-.21h-4.118v.21h.001c.666 0 1.205.509 1.256 1.154.003.03.007.06.009.092v.004c.005.066.01.135.01.217v4.47h-8.274V22.51c0-.011.006-.023.006-.033a1.254 1.254 0 0 1 1.227-1.183l.01-.003v-.21h-4.118v.21h.003c.664 0 1.205.509 1.255 1.154l.01.092v.004c.004.066.01.135.01.217v10.383c-.002.03 0 .256 0 .315 0 .687-.564 1.246-1.261 1.249l-.022.005v.215H155.938v-.214s-.01 0-.026-.004c-1.214 0-1.217-1.256-1.217-1.264v-5.42h8.273v5.118l.003.315a1.26 1.26 0 0 1-1.263 1.249.112.112 0 0 1-.022.005v.215h4.125v-.214s-.012 0-.029-.004c-1.213 0-1.215-1.256-1.215-1.264V22.51zM169.592 27.047c0 5.059 2.943 5.784 4.357 5.784 1.094 0 4.505-.434 4.505-5.784 0-5.313-3.411-5.765-4.505-5.765-1.698 0-4.357 1.085-4.357 5.765m4.357-6.11c3.459 0 6.391 2.713 6.391 6.11 0 4.14-3.761 6.126-6.39 6.126-2.61 0-6.371-1.986-6.371-6.126 0-3.397 2.932-6.11 6.37-6.11"/>
        </g>
    </g>
</svg>
