<svg xmlns="http://www.w3.org/2000/svg" width="101" height="77" viewBox="0 0 101 77">
    <defs>
        <linearGradient id="a" x1="0%" x2="100.001%" y1="50%" y2="50%">
            <stop offset="0%" stop-color="#007B40"/>
            <stop offset="100%" stop-color="#55B330"/>
        </linearGradient>
        <linearGradient id="b" x1="0%" y1="50%" y2="50%">
            <stop offset="0%" stop-color="#1D2970"/>
            <stop offset="100%" stop-color="#006DBA"/>
        </linearGradient>
        <linearGradient id="c" x1="0%" y1="50%" y2="50%">
            <stop offset="0%" stop-color="#6E2B2F"/>
            <stop offset="100%" stop-color="#E30138"/>
        </linearGradient>
    </defs>
    <g fill="none" fill-rule="evenodd">
        <path fill="#FFF" d="M101 61.454C101 70.039 93.969 77 85.29 77H0V15.549C0 6.96 7.032 0 15.711 0H101v61.454z"/>
        <path fill="url(#a)" d="M72.55 39.337H79.18a3.879 3.879 0 0 1 .328.02 5.752 5.752 0 0 1 .328.04l.067.012.043.01a2.755 2.755 0 0 1 .438.135 3.05 3.05 0 0 1 .657.363 2.935 2.935 0 0 1 .658.668 2.85 2.85 0 0 1 .328.619 2.96 2.96 0 0 1 .187 1.035 2.977 2.977 0 0 1-.187 1.038 2.809 2.809 0 0 1-.986 1.287 2.999 2.999 0 0 1-.876.436 2.926 2.926 0 0 1-.22.058l-.042.01a1.434 1.434 0 0 1-.176.029 4.79 4.79 0 0 1-.438.039 4.204 4.204 0 0 1-.11.004H72.55v-5.803zm8.82-6.568c.044.195.068.401.068.618 0 .217-.024.424-.068.618a2.589 2.589 0 0 1-.328.797 2.567 2.567 0 0 1-.877.846 2.774 2.774 0 0 1-.657.286 2.912 2.912 0 0 1-.328.077l-.027.004a1.87 1.87 0 0 1-.193.024 6.259 6.259 0 0 1-.438.026H72.55V30.71H78.568l.064.002a4.826 4.826 0 0 1 .328.023 6.62 6.62 0 0 1 .193.021l.027.005a2.826 2.826 0 0 1 .547.151 2.956 2.956 0 0 1 .548.282 2.656 2.656 0 0 1 .767.778 2.5 2.5 0 0 1 .328.797zM94.955 5H95v55a10.785 10.785 0 0 1-.812 4.091 10.626 10.626 0 0 1-.767 1.507 11.729 11.729 0 0 1-.438.662 11.341 11.341 0 0 1-.548.704l-.11.127-.109.125a11.557 11.557 0 0 1-.329.35c-.036.038-.073.074-.11.11l-.109.109-.11.103-.109.103a11.49 11.49 0 0 1-.657.558l-.11.085-.11.082-.109.082-.11.078-.11.078c-.035.025-.072.05-.109.074-.036.025-.072.05-.11.074l-.109.07-.11.07-.109.068a10.574 10.574 0 0 1-.219.13l-.11.063c-.036.02-.072.042-.11.062l-.109.06-.11.058-.109.056-.11.056-.109.053-.11.052c-.036.018-.072.034-.109.051l-.11.05-.11.048-.109.046-.11.046-.109.044-.11.043-.109.04-.11.041-.109.04-.11.037-.11.037-.109.035-.11.034-.109.033-.11.031-.109.031-.11.03-.11.028-.109.027-.11.026-.109.025-.11.023-.109.023-.11.021-.109.02-.11.02c-.036.007-.073.012-.11.018l-.109.018-.11.016-.109.015-.11.014-.109.013-.11.012-.109.01-.11.01-.11.01-.109.007-.11.007-.109.006-.11.004-.109.004-.11.003-.109.001-.11.002H67V48.575H84.656l.11-.002.11-.002.11-.003c.036 0 .072-.003.109-.004l.11-.005.109-.006.11-.008.109-.008.11-.01.109-.01.11-.012.11-.013.109-.014.11-.016.109-.016.11-.018.109-.019.11-.02.109-.022.11-.023.11-.024.109-.026a8.61 8.61 0 0 0 .438-.117l.11-.034a7.183 7.183 0 0 0 .328-.109l.11-.04.11-.042.109-.043a7.091 7.091 0 0 0 .657-.307 6.742 6.742 0 0 0 .877-.554 6.136 6.136 0 0 0 .438-.367 5.257 5.257 0 0 0 .767-.889 4.944 4.944 0 0 0 .329-.565 4.625 4.625 0 0 0 .328-.887 5.156 5.156 0 0 0 .11-1.95 4.545 4.545 0 0 0-.329-1.16 4.33 4.33 0 0 0-.438-.777 4.68 4.68 0 0 0-.657-.757 5.326 5.326 0 0 0-.548-.454 6.533 6.533 0 0 0-1.425-.79 8.555 8.555 0 0 0-.11-.044l-.109-.043a8.445 8.445 0 0 0-.11-.04l-.109-.04a9.91 9.91 0 0 0-.438-.14l-.11-.03a8.657 8.657 0 0 0-.657-.158l-.11-.021-.11-.02-.109-.02a8.596 8.596 0 0 0-.11-.018l-.109-.016a8.857 8.857 0 0 0-.11-.016l-.109-.014-.11-.014-.109-.012-.11-.01-.11-.01-.109-.01-.1-.007v-.127l.1-.015.11-.018.11-.019.109-.02.11-.022.11-.023a7.955 7.955 0 0 0 .876-.245 6.62 6.62 0 0 0 1.533-.764 5.561 5.561 0 0 0 .658-.534 5.179 5.179 0 0 0 .438-.478 4.719 4.719 0 0 0 .657-1.106 4.567 4.567 0 0 0 .33-1.294 4.867 4.867 0 0 0 0-1.044 4.748 4.748 0 0 0-.22-1.02 4.376 4.376 0 0 0-.548-1.083 4.356 4.356 0 0 0-.438-.535 4.731 4.731 0 0 0-.548-.493 5.1 5.1 0 0 0-.548-.375 6.3 6.3 0 0 0-.986-.483 8.001 8.001 0 0 0-.657-.225l-.11-.032a8.27 8.27 0 0 0-.219-.058l-.11-.027a8.262 8.262 0 0 0-.218-.05l-.11-.022-.11-.021-.11-.02-.109-.019-.11-.017-.109-.016-.11-.015-.109-.014-.11-.013-.109-.011-.11-.011-.11-.01-.109-.008-.11-.007-.109-.006-.043-.003-.066-.004-.11-.006-.11-.006-.109-.005-.11-.005-.11-.005-.109-.004-.11-.003-.109-.002-.11-.002H67V16a10.719 10.719 0 0 1 1.222-4.97 11.312 11.312 0 0 1 .767-1.251l.11-.153a11.637 11.637 0 0 1 .22-.287c.035-.046.072-.093.109-.138a9.99 9.99 0 0 1 .22-.26c.035-.043.071-.085.108-.127l.11-.12a11.943 11.943 0 0 1 .548-.557c.036-.034.072-.07.11-.103.035-.034.072-.066.109-.1.036-.032.072-.065.11-.097l.109-.094a12.044 12.044 0 0 1 .438-.356l.11-.083.11-.082a11.827 11.827 0 0 1 .218-.157l.11-.075.11-.074.109-.071.11-.07.11-.069.109-.066.11-.065c.036-.022.072-.042.109-.063l.11-.063.109-.059.11-.06.11-.056.109-.056.11-.053.109-.053.11-.051.109-.05.11-.049.109-.046.11-.047.11-.044.109-.043.11-.042.109-.04.11-.04.109-.037.11-.038.109-.035.11-.034.11-.034.109-.031.11-.032.109-.029.11-.029.109-.027c.036-.01.073-.018.11-.026l.109-.026.11-.023.11-.023.109-.022.11-.02c.036-.007.072-.015.109-.021.036-.007.073-.012.11-.018l.109-.018.11-.016c.036-.006.073-.01.11-.015l.109-.015.11-.013.109-.012.11-.012.109-.01.11-.009.109-.008.11-.006.11-.007.109-.004.11-.004.109-.004.11-.001.109-.002H94.956z"/>
        <path fill="url(#b)" d="M5.235 43.276A37.47 37.47 0 0 1 5 43.167V16.001a10.717 10.717 0 0 1 1.22-4.964 10.482 10.482 0 0 1 .437-.761 11.152 11.152 0 0 1 .328-.49c.036-.052.072-.103.11-.153a11.218 11.218 0 0 1 .219-.287c.035-.047.072-.093.108-.139l.11-.131a10.643 10.643 0 0 1 .219-.254l.109-.12.11-.12.109-.113a10.705 10.705 0 0 1 .218-.22l.11-.105c.036-.034.072-.07.11-.103.035-.034.072-.066.109-.099l.109-.098.11-.094.109-.093.11-.09a10.465 10.465 0 0 1 .546-.417l.11-.077a10.38 10.38 0 0 1 .437-.291l.11-.069.109-.066.109-.066.11-.062.109-.063.11-.06.109-.059.109-.056.11-.056.109-.054.109-.052.11-.052.109-.05.11-.049c.035-.016.072-.03.109-.046l.109-.047.11-.044.109-.043.109-.042.11-.04.109-.04.11-.038.109-.037.109-.036.11-.034.109-.034.109-.031.11-.032.109-.03.11-.028.109-.028.109-.025c.036-.01.073-.018.11-.026l.109-.024.11-.023.108-.022.11-.02c.036-.007.073-.015.11-.02l.109-.02.109-.017.11-.017.109-.015.11-.015.108-.013.11-.012c.036-.004.073-.009.11-.012l.109-.01.109-.009.11-.008.109-.007.11-.007.108-.005.11-.004.11-.004.109-.001.109-.001.049-.001H33v55a10.77 10.77 0 0 1-.421 2.977 10.767 10.767 0 0 1-1.86 3.637 10.143 10.143 0 0 1-.546.65l-.11.119-.109.114c-.036.038-.072.076-.11.113a11.38 11.38 0 0 1-.328.319l-.109.1-.11.099-.109.094-.109.094-.11.09-.109.09-.11.085-.109.085-.109.08c-.036.028-.072.055-.11.081l-.109.078-.109.076-.11.074-.109.073-.11.07-.109.07-.109.066-.11.066-.109.063-.109.063-.11.06a9.977 9.977 0 0 1-.218.116l-.11.056-.109.055-.11.053-.109.052-.109.05-.11.05-.109.046-.11.047-.109.045-.109.043c-.036.014-.073.03-.11.043l-.109.04-.11.04c-.035.014-.072.026-.108.039l-.11.037-.11.036-.109.035-.109.034-.11.032-.109.031-.11.03-.108.03-.11.028-.11.026-.109.026-.109.024-.11.023-.109.023c-.036.008-.073.014-.11.02l-.108.02-.11.02-.11.017c-.036.006-.072.013-.109.018-.036.006-.072.01-.109.015l-.11.015-.109.014-.11.012c-.036.004-.072.009-.109.012l-.109.01-.11.01-.109.01-.109.006-.11.007-.109.005-.11.004-.109.004-.109.002-.11.002-.1.001H5V47.818s.08.022.235.06l.11.026.109.026.109.025.11.025.109.025.11.024.109.024.109.024.11.023.109.023.109.022.11.023.109.022.11.021.109.022.109.021.11.021.109.02.11.021.108.02.11.02.11.02.109.02.109.018.11.02.109.018.11.018.108.018.11.018.11.018.109.017.109.017.11.017.109.017.11.016.108.017.11.015.11.016.109.016.109.015.11.015.109.015.11.014.108.015.11.014.11.014.109.014.109.013.11.013.109.013.11.013.109.012.109.013.11.012.109.012.109.011.11.012.109.011.11.01.109.012.109.01.11.01.109.01.109.01.11.01.109.01.11.008.109.01.109.008.11.008.109.008.109.008.11.008.109.008.11.007.109.007.109.007.11.006.109.006.11.007.108.005.11.006.11.006.109.005.109.005.11.004.109.005.11.004.108.004.11.003.11.004.109.003.109.003.11.003.109.002.11.003.108.001.11.002.11.002h.109l.109.002h.11l.109.001h.328l.11-.001h.109l.109-.001.11-.002.109-.002.11-.002.109-.002.109-.003.11-.003.109-.003.109-.004.11-.003.109-.005.11-.004.109-.005.109-.005.11-.006.109-.006.109-.006.11-.006.109-.007.11-.008.109-.007.109-.008.11-.009.109-.009.109-.009.11-.009.109-.01.11-.01.109-.012.109-.01.11-.012.109-.013.109-.012.11-.012.109-.014.11-.014.108-.015.11-.014.11-.016.109-.016.109-.016.11-.017.109-.018.11-.017.108-.018.11-.02.11-.02.109-.02.109-.02.11-.022.109-.022.11-.022.108-.024.11-.024.11-.024.109-.026.109-.026.11-.026.109-.028.11-.028.109-.028.109-.03.11-.031.109-.03.109-.033.11-.034c.036-.01.073-.021.109-.033l.11-.035.109-.036.109-.036.11-.038.109-.039.109-.04.11-.04.109-.042.11-.043.109-.045.109-.044.11-.048.109-.048.109-.049.11-.05.109-.052.11-.055.109-.054.109-.058a10.455 10.455 0 0 0 .328-.18l.11-.063.109-.067.11-.067.109-.07.109-.072.11-.075.109-.077.11-.08a8.07 8.07 0 0 0 .327-.256l.11-.091.109-.096.11-.098a7.076 7.076 0 0 0 .218-.211l.11-.11.109-.119a6.917 6.917 0 0 0 .875-1.187 6.786 6.786 0 0 0 .437-.892 7.402 7.402 0 0 0 .329-1.01 8.425 8.425 0 0 0 .218-1.258c.037-.358.055-.723.055-1.094V27.424h-9.763v12.763a5.93 5.93 0 0 1-.245 1.73 5.295 5.295 0 0 1-.328.827 4.817 4.817 0 0 1-1.094 1.429 5.06 5.06 0 0 1-1.094.744 5.217 5.217 0 0 1-.437.2 5.713 5.713 0 0 1-.438.16 6.563 6.563 0 0 1-.328.097l-.11.029a6.817 6.817 0 0 1-.655.132l-.11.016a8.381 8.381 0 0 1-.219.028l-.109.011-.11.01-.109.01a8.639 8.639 0 0 1-.218.013l-.11.005c-.036.002-.073.002-.11.003l-.109.003-.109.001H14.641l-.109-.002-.11-.002-.109-.003-.11-.004-.109-.004-.109-.005-.11-.005-.109-.006-.11-.007-.108-.008-.11-.008-.11-.009-.109-.01-.109-.01-.11-.01-.109-.012-.11-.012-.108-.013-.11-.013-.11-.014-.109-.015-.109-.015-.11-.016-.109-.017-.11-.017-.108-.018-.11-.018-.11-.02-.109-.019-.109-.02-.11-.021-.109-.022-.11-.022-.108-.022-.11-.024-.11-.024-.109-.024-.109-.025-.11-.026-.109-.026-.11-.027-.109-.027-.109-.028-.11-.029-.109-.029-.109-.03-.11-.03-.109-.03-.11-.032-.109-.032-.109-.032-.11-.033-.109-.034-.109-.034-.11-.035-.109-.035-.11-.036-.109-.036-.109-.037-.11-.037-.109-.038-.109-.038-.11-.04-.109-.039-.11-.04-.109-.04-.109-.041-.11-.042-.109-.041-.11-.043-.108-.043-.11-.043-.11-.044-.109-.045-.109-.045-.11-.045-.109-.046-.11-.047-.108-.046-.11-.048-.11-.047-.109-.049-.109-.049-.11-.049-.109-.05-.11-.05z"/>
        <path fill="url(#c)" d="M36.235 30.213c-.08.062-.158.125-.235.189V16.001a10.72 10.72 0 0 1 1.11-4.749 10.875 10.875 0 0 1 .875-1.466c.036-.05.072-.102.11-.152a11.227 11.227 0 0 1 .219-.287c.035-.047.071-.093.108-.139l.11-.131a10.776 10.776 0 0 1 .219-.254l.109-.12.11-.12a10.94 10.94 0 0 1 .218-.224l.11-.109.109-.105c.036-.034.072-.07.11-.103.035-.034.072-.066.108-.1l.11-.097.11-.094.109-.093.109-.09a13.103 13.103 0 0 1 .437-.338 11.8 11.8 0 0 1 .547-.378l.11-.07c.036-.023.072-.046.11-.068.035-.023.072-.045.109-.067l.109-.065.11-.063.109-.062.11-.06.108-.059c.037-.02.073-.038.11-.056.036-.02.072-.038.11-.056l.108-.054.11-.053.11-.052.109-.05.109-.048.11-.047.109-.046.11-.044.109-.044.109-.042.11-.04.109-.04.11-.038.108-.037.11-.035.11-.035.109-.033.109-.032.11-.032.109-.029.109-.029.11-.027c.036-.01.072-.018.109-.026l.11-.026.109-.024.109-.023.11-.022.109-.02c.036-.007.072-.015.11-.02l.109-.02.109-.017.11-.017.109-.015.109-.015.11-.013.109-.012c.036-.004.073-.009.11-.012l.108-.01.11-.009.11-.008.109-.007.109-.007.11-.005.109-.004.11-.004.109-.001.109-.001L47.33 5H64v55a10.76 10.76 0 0 1-.53 3.33 10.765 10.765 0 0 1-1.313 2.679c-.036.053-.072.107-.11.16a11.507 11.507 0 0 1-.546.716c-.036.043-.072.087-.11.13a10.84 10.84 0 0 1-.219.248l-.109.12-.109.114c-.036.038-.072.076-.11.113l-.109.108a11.14 11.14 0 0 1-.218.21l-.11.1c-.036.033-.072.067-.11.1l-.109.094-.109.094-.11.09-.109.089-.109.085-.11.085-.109.081c-.036.027-.072.054-.11.08-.035.027-.072.052-.109.078l-.109.077-.11.073-.109.074-.11.07-.108.07-.11.065c-.036.022-.072.045-.11.066-.035.022-.072.042-.109.064l-.109.062-.11.06-.109.06-.11.057-.108.056-.11.055-.11.053-.109.052-.109.05-.11.05-.109.046-.11.047-.109.044-.109.044-.11.043-.109.04-.109.04-.11.038-.109.038-.11.036c-.035.012-.072.023-.109.034l-.109.035-.11.032-.109.031-.109.03-.11.029-.109.029-.11.026-.109.025-.109.025-.11.023-.109.023-.11.02-.108.02-.11.02-.11.017-.109.018-.109.015-.11.015-.109.014-.109.012c-.037.004-.073.009-.11.012l-.109.01-.11.01-.109.01-.109.006-.11.007-.109.005-.11.004-.108.004-.11.002-.11.002-.101.001H36V45.602a10.464 10.464 0 0 0 .454.356l.109.081.11.078a11.225 11.225 0 0 0 .218.15l.11.073.109.07.11.07.109.068.109.065.11.065.109.063.11.061.109.06.109.06.11.056c.036.02.072.038.109.057l.109.055.11.053.109.053.11.051.109.051.109.049.11.048.109.047.109.047.11.045.109.044.11.043.108.043.11.042.11.04.109.04.109.039.11.038.109.037.11.037.108.036.11.035.11.034.109.034.109.033.11.032.109.031.11.031.109.03.109.03.11.029.109.028.11.028.108.027.11.026.11.026.108.026.11.024.11.025.109.023.109.023.11.023.109.022.11.022.109.02.109.021.11.02.109.02.11.02.108.018.11.018.11.018.109.017.109.017.11.016.109.016.109.016.11.015.109.015.11.014.109.014.109.013.11.013.109.013.11.012.109.012.109.012.11.011.109.011.109.01.11.01.109.01.11.01.108.009.11.009.11.008.109.008.109.008.11.007.109.007.11.007.109.006.109.007.11.006.109.005.109.005.11.005.109.005.11.004.109.004.109.004.11.003.109.004.11.002.108.003.11.003.11.002.109.001.109.002.11.001.109.001.11.001h.656l.109-.001.11-.002.109-.001.109-.002.11-.002.109-.002.109-.002.11-.003.109-.003.11-.003.108-.003.11-.004.11-.003.109-.004.109-.004.11-.005.109-.004.053-.002.056-.003.11-.005.109-.006.11-.006.109-.006.109-.007.11-.007.109-.007.11-.008.109-.008.109-.008.11-.009.109-.009.109-.01.11-.009.109-.01.11-.01.109-.01.109-.011.11-.011.109-.012.11-.011.108-.012.11-.013.11-.012.109-.013.109-.013.11-.013.109-.014.109-.013.11-.015.109-.014.11-.014.109-.015.109-.015.11-.015.109-.016.11-.016.108-.016.11-.016.11-.016.109-.017.109-.017.11-.017.109-.017.11-.017.108-.018.11-.018.11-.018.109-.019.109-.018.11-.019.109-.019.11-.02.109-.019.109-.02.11-.02.109-.02.11-.02.108-.02.11-.02.11-.021.109-.021.109-.022.11-.021.109-.022.109-.022.11-.022.109-.022.11-.023.109-.023.109-.023.11-.023.109-.023.11-.024.108-.024.11-.024.11-.025.109-.025.109-.025.11-.026.108-.026v-4.653l-.109.053-.109.052-.11.052-.109.051-.11.051-.109.05-.109.05-.11.05-.109.049-.109.048-.11.048-.109.047-.11.047-.109.046-.109.046-.11.045-.109.044-.11.044-.108.044-.11.042-.11.043-.109.041-.109.041-.11.04-.109.04-.11.04-.108.038-.11.039-.11.037-.109.037-.109.036-.11.036-.109.035-.11.034-.109.034-.109.033-.11.033-.109.032-.109.031-.11.031-.109.03-.11.03-.109.03-.109.027-.11.028-.109.027-.109.027-.11.026-.109.026-.11.024-.109.024-.109.024-.11.023-.109.023-.11.021-.108.022-.11.02-.11.02-.109.02-.109.019-.11.018-.109.018-.109.017-.11.017-.109.016-.11.015-.109.015-.109.014-.11.014-.109.013-.11.013-.108.012-.11.011-.11.011-.109.01-.109.01-.11.01-.109.008-.066.005-.043.003-.11.007-.109.007-.11.006-.109.005-.109.005-.11.004-.109.003-.11.002-.109.002-.109.001h-.219l-.109-.002-.11-.002-.109-.003-.11-.004-.108-.005-.11-.006-.11-.006-.109-.007-.11-.009-.108-.008-.11-.01-.11-.012-.109-.012-.109-.013-.11-.014-.109-.015-.109-.015-.11-.018c-.036-.006-.073-.011-.109-.018l-.11-.02c-.036-.006-.072-.012-.109-.02l-.109-.021-.11-.023-.109-.024-.11-.025-.108-.027-.11-.027-.11-.03a8.249 8.249 0 0 1-.109-.03l-.109-.032a9.839 9.839 0 0 1-.219-.068l-.11-.036-.108-.038-.11-.04-.11-.04-.109-.043-.109-.045-.11-.046-.109-.049-.11-.05a8.277 8.277 0 0 1-.218-.107l-.11-.056-.109-.06-.11-.06a8.168 8.168 0 0 1-.218-.13l-.11-.07-.108-.072a6.757 6.757 0 0 1-.438-.319l-.11-.088a6.454 6.454 0 0 1-.437-.396 6.144 6.144 0 0 1-.437-.483 6.217 6.217 0 0 1-.657-.97 6.593 6.593 0 0 1-.437-.97 7.427 7.427 0 0 1-.328-1.214 8.862 8.862 0 0 1-.11-.779 10.001 10.001 0 0 1 .11-2.683 8.147 8.147 0 0 1 .218-.89 7.478 7.478 0 0 1 .329-.86 6.747 6.747 0 0 1 .656-1.123 6.395 6.395 0 0 1 .984-1.068l.11-.094.109-.088a7.283 7.283 0 0 1 .219-.166 6.758 6.758 0 0 1 .219-.152c.036-.025.072-.05.109-.073.036-.024.073-.046.11-.069a6.746 6.746 0 0 1 .218-.13l.11-.061.109-.06.11-.056a8.345 8.345 0 0 1 .218-.107l.11-.05.109-.049.109-.046.11-.045.109-.042.11-.042.109-.039.109-.038.11-.036a9.866 9.866 0 0 1 .327-.1l.11-.03.11-.03c.035-.01.072-.018.109-.027.036-.01.072-.018.109-.027l.11-.025c.036-.008.072-.017.109-.024l.11-.023.108-.022.11-.02.11-.02.109-.017.109-.018.11-.015.109-.016.11-.014.108-.012.11-.013.11-.01.109-.011.109-.009.11-.008.109-.007.11-.007.109-.006.109-.004.11-.004.109-.003.109-.002.11-.002h.327l.11.002.11.003.109.003.109.004.11.004.109.006.11.006.109.007.109.007.043.003.066.005.11.008.109.01.11.009.109.01.11.01.109.012.109.012.11.012.109.013.109.014.11.014.109.015.11.015.109.016.109.016.11.017.109.017.11.019.108.018.11.02.11.02.109.02.109.021.11.022.109.022.109.023.11.023.109.024.11.025.109.025.109.026.11.027.109.027.11.027.108.029.11.029.11.03.109.03.109.03.11.031.109.032.11.033.108.033.11.034.11.035.109.035.109.035.11.037.109.037.11.037.109.038.109.04.11.039.109.04.11.04.108.041.11.042.11.043.109.043.109.043.11.045.109.044.109.046.11.046.109.046.11.047.109.048.109.048.11.049.109.05.11.05.108.05.11.05.11.052.109.052.109.052.11.053.108.053v-4.657l-.109-.026-.109-.025-.11-.025-.109-.025-.11-.025-.109-.024-.109-.024-.11-.024-.109-.023-.109-.024-.11-.023-.109-.022-.11-.023-.109-.022-.109-.022-.11-.022-.109-.022-.11-.021-.108-.022-.11-.02-.11-.022-.109-.02-.109-.02-.11-.02-.109-.02-.11-.02-.108-.02-.11-.02-.11-.019-.109-.019-.109-.019-.11-.018-.109-.019-.11-.018-.109-.018-.109-.017-.11-.018-.109-.017-.109-.017-.11-.017-.109-.016-.11-.017-.109-.016-.109-.016-.11-.016-.109-.015-.109-.015-.11-.015-.109-.015-.11-.014-.109-.015-.109-.014-.11-.013-.109-.014-.11-.013-.108-.013-.11-.013-.11-.012-.109-.013-.109-.012-.11-.011-.109-.011-.109-.012-.11-.01-.109-.01-.11-.011-.109-.01-.109-.01-.11-.009-.109-.009-.11-.008-.108-.009-.11-.008-.11-.007-.109-.008-.109-.007-.11-.006-.109-.006-.11-.006-.108-.006-.11-.005-.056-.002-.053-.003-.11-.004-.109-.004-.11-.005-.109-.004-.11-.003-.109-.004-.109-.003-.11-.003-.109-.003-.109-.003-.11-.002-.109-.002-.11-.002-.108-.002-.11-.001-.11-.001-.109-.001h-.11l-.108-.001h-.438l-.11.001-.109.001-.109.001-.11.002-.109.002-.11.002-.109.002-.109.003-.11.002-.109.004-.11.003-.108.004-.11.004-.11.005-.109.004-.109.005-.11.005-.109.006-.11.006-.108.006-.11.006-.11.007-.109.007-.109.007-.11.008-.109.008-.11.009-.109.009-.109.009-.11.009-.109.01-.11.01-.108.01-.11.011-.11.011-.108.012-.11.012-.11.012-.109.013-.109.013-.11.014-.109.014-.11.014-.109.015-.109.015-.11.015-.109.016-.11.017-.108.017-.11.017-.11.018-.109.018-.109.018-.11.02-.109.02-.11.02-.108.02-.11.02-.11.023-.109.022-.109.022-.11.024-.109.023-.11.024-.109.025-.109.026-.11.025-.109.027-.109.027-.11.028-.109.028-.11.029-.108.03-.11.03-.11.03-.109.032-.109.033-.11.032-.109.034-.11.034-.109.036-.109.035-.11.037-.109.037-.109.039-.11.038-.109.04-.11.04-.109.043-.109.042-.11.043-.109.045-.11.045-.108.046-.11.047-.11.049-.108.049-.11.05-.11.052-.109.052-.109.054-.11.055-.109.056-.11.058-.108.058-.11.06-.11.062-.109.063-.109.065-.11.065-.109.068-.11.07-.109.07-.109.073a12.903 12.903 0 0 0-.219.15l-.109.078a11.5 11.5 0 0 0-.328.248z"/>
    </g>
</svg>
