<svg xmlns="http://www.w3.org/2000/svg" width="16" height="13" viewBox="0 0 16 13">
    <g fill="#37B23A" fill-rule="nonzero">
        <path d="M15.002 13c.384 0 .716-.121.998-.361L11.17 8l-.335.231c-.361.256-.655.455-.88.598a5.51 5.51 0 0 1-.899.439c-.374.149-.723.223-1.047.223H7.99c-.323 0-.672-.074-1.046-.223a5.493 5.493 0 0 1-.9-.439 22.433 22.433 0 0 1-.88-.598c-.1-.07-.212-.149-.333-.232L0 12.639c.282.24.615.361.998.361h14.004zM.903 4.788C.563 4.56.263 4.296 0 4v7l4-4.055C3.2 6.379 2.169 5.66.903 4.788zM15.106 4.788A263.303 263.303 0 0 0 12 6.946L16 11V4c-.256.29-.555.553-.894.788z"/>
        <path d="M14.571 0H1.428C.97 0 .618.155.371.464.123.774 0 1.161 0 1.624c0 .376.164.782.491 1.22a4.43 4.43 0 0 0 1.045 1.03c.202.144.812.568 1.83 1.273a591.66 591.66 0 0 1 2.34 1.63l.133.095.246.177c.193.14.354.253.482.34.128.086.283.182.464.29.182.107.353.187.514.24.16.054.31.081.446.081H8.01c.137 0 .286-.027.446-.08.161-.054.332-.134.514-.241.181-.108.336-.204.464-.29.128-.087.289-.2.482-.34a59.884 59.884 0 0 1 .38-.272l.903-.628c.74-.515 1.83-1.271 3.276-2.274.434-.304.797-.67 1.089-1.098.291-.429.437-.878.437-1.348 0-.393-.142-.73-.424-1.01A1.381 1.381 0 0 0 14.57 0z"/>
    </g>
</svg>
