<svg xmlns="http://www.w3.org/2000/svg" width="23" height="24" viewBox="0 0 23 24">
    <g fill="#37B23A" fill-rule="evenodd">
        <path d="M6.085 12.293c0-.646-.484-1.032-1.339-1.032-.349 0-.585.031-.709.063v2.074c.147.031.327.042.574.042.912 0 1.474-.428 1.474-1.147zM11.377 11.282c-.384 0-.63.031-.777.063v4.596c.146.032.383.032.596.032 1.553.01 2.566-.782 2.566-2.46.012-1.46-.911-2.23-2.385-2.23z"/>
        <path fill-rule="nonzero" d="M21.515 8.582h-.622v-2.78c0-.017-.003-.035-.006-.052a.442.442 0 0 0-.12-.305L15.772.16l-.004-.003a.497.497 0 0 0-.134-.097.547.547 0 0 0-.1-.04l-.028-.008A.545.545 0 0 0 15.389 0H3.114c-.56 0-1.016.422-1.016.94v7.641h-.622c-.802 0-1.452.602-1.452 1.345v6.993c0 .742.65 1.345 1.452 1.345h.622v4.786c0 .52.455.941 1.016.941h16.763c.56 0 1.016-.422 1.016-.94v-4.787h.622c.802 0 1.452-.603 1.452-1.345V9.926c0-.742-.65-1.344-1.452-1.344zM3.114.942H14.88v4.813c0 .26.228.47.508.47h4.488v2.357H3.114V.942zM15.585 13.46c0 1.345-.528 2.272-1.261 2.846-.798.615-2.014.906-3.5.906-.888 0-1.518-.052-1.947-.104v-6.9c.63-.093 1.453-.145 2.32-.145 1.44 0 2.374.24 3.106.75.787.542 1.282 1.407 1.282 2.647zM2.338 17.14v-6.932c.528-.083 1.272-.145 2.318-.145 1.058 0 1.812.187 2.319.563.484.354.81.938.81 1.626s-.248 1.271-.698 1.667c-.585.511-1.452.74-2.465.74-.225 0-.428-.01-.585-.031v2.512h-1.7zm17.539 5.656H3.114v-4.532h16.763v4.532zm1.472-11.378h-2.916v1.605h2.724v1.292h-2.724v2.825h-1.72v-7.025h4.636v1.303z"/>
    </g>
</svg>
