<svg xmlns="http://www.w3.org/2000/svg" width="66" height="48" viewBox="0 0 66 48">
    <g fill="none" fill-rule="nonzero" stroke="#99CE9B" stroke-width="2" opacity=".3">
        <path d="M50.807 46.589c7.826 0 14.192-6.36 14.192-14.177 0-7.542-5.925-13.727-13.37-14.154-.128-1.39-.031-5.174 3.599-10.438a.997.997 0 0 0-.117-1.273c-1.485-1.484-2.403-2.418-3.046-3.072-.84-.855-1.224-1.245-1.786-1.754a.998.998 0 0 0-1.328-.015C42.626 7.204 35.6 18.564 36.616 32.484c.596 8.173 6.564 14.105 14.19 14.105zM1.1 32.484v.001C1.697 40.657 7.666 46.59 15.29 46.59c7.826 0 14.193-6.36 14.193-14.177 0-7.542-5.925-13.727-13.37-14.154-.13-1.39-.032-5.171 3.599-10.438a.997.997 0 0 0-.116-1.273c-1.48-1.478-2.396-2.41-3.038-3.063-.845-.86-1.23-1.253-1.795-1.764a1.003 1.003 0 0 0-1.328-.013C7.11 7.205.084 18.565 1.1 32.484z"/>
    </g>
</svg>
