<svg xmlns="http://www.w3.org/2000/svg" width="19" height="38" viewBox="0 0 19 38">
    <g fill="none" fill-rule="evenodd" opacity=".7">
        <path fill="#FFF" fill-rule="nonzero" stroke="#37B23A" d="M9.718 37.389l5.98-6.43a.405.405 0 0 0 0-.545.34.34 0 0 0-.507 0l-5.725 6.155-5.726-6.155a.34.34 0 0 0-.508 0 .403.403 0 0 0 0 .542l5.981 6.43a.34.34 0 0 0 .505.003zM9.364.97C4.714.97.932 4.596.932 9.053v8.095c0 4.457 3.783 8.082 8.432 8.082 4.65 0 8.432-3.625 8.432-8.082V9.053c0-4.457-3.782-8.083-8.432-8.083zm7.495 16.178c0 3.961-3.362 7.184-7.495 7.184-4.132 0-7.495-3.223-7.495-7.184V9.053c0-3.962 3.363-7.185 7.495-7.185 4.133 0 7.495 3.223 7.495 7.185v8.095z"/>
        <path fill="#FFF" stroke="#37B23A" d="M9.364 3.676c-.268 0-.485.2-.485.449v4.062c0 .248.217.449.485.449s.486-.2.486-.449V4.125c0-.248-.218-.449-.486-.449z"/>
    </g>
</svg>
