<svg xmlns="http://www.w3.org/2000/svg" width="14" height="18" viewBox="0 0 14 18">
    <path fill="#000" fill-rule="nonzero" d="M13.97 17.389l-.688-11.77a.557.557 0 0 0-.563-.517h-2.395V3.178c0-1.75-1.466-3.174-3.267-3.174-1.802 0-3.267 1.424-3.267 3.174v1.924H1.516c-.299 0-.546.227-.563.517l-.688 11.77a.555.555 0 0 0 .563.579h12.579a.555.555 0 0 0 .563-.58zM4.918 3.178c0-1.146.96-2.079 2.139-2.079 1.18 0 2.14.933 2.14 2.079v1.924h-4.28V3.178zM1.425 16.872l.624-10.675H3.79v1.966c0 .302.253.548.564.548a.556.556 0 0 0 .564-.548V6.197h4.278v1.966c0 .302.252.548.564.548a.556.556 0 0 0 .564-.548V6.197h1.863l.623 10.675H1.425z"/>
</svg>
