<svg xmlns="http://www.w3.org/2000/svg" width="23" height="13" viewBox="0 0 23 13">
    <path fill="#37B23A" fill-rule="evenodd" d="M22.878 11.74a1.555 1.555 0 0 0-.078-.148c-.399-.712-1.162-1.586-2.287-2.622l-.024-.024-.012-.011-.012-.012h-.012c-.51-.483-.834-.807-.97-.973-.248-.316-.303-.637-.168-.961.096-.245.455-.763 1.078-1.554.327-.42.587-.755.778-1.008 1.382-1.82 1.98-2.982 1.797-3.488L22.896.82c-.048-.07-.171-.136-.37-.195-.2-.06-.456-.07-.767-.03l-3.45.024a.452.452 0 0 0-.239.006l-.155.035-.06.03-.048.036a.53.53 0 0 0-.132.124.812.812 0 0 0-.12.208 19.292 19.292 0 0 1-1.28 2.669c-.296.49-.568.915-.815 1.275-.248.36-.455.625-.623.795a4.33 4.33 0 0 1-.455.41c-.136.102-.24.146-.311.13a8.845 8.845 0 0 1-.204-.048.792.792 0 0 1-.27-.29 1.293 1.293 0 0 1-.137-.463 5.054 5.054 0 0 1-.042-.48 9.944 9.944 0 0 1 .006-.57c.008-.245.012-.411.012-.498 0-.3.006-.627.018-.979l.03-.836c.008-.206.012-.423.012-.653 0-.23-.014-.409-.042-.54a1.835 1.835 0 0 0-.125-.38.641.641 0 0 0-.246-.284 1.391 1.391 0 0 0-.401-.16C12.259.06 11.72.01 11.065.002 9.58-.014 8.626.08 8.203.287c-.168.086-.32.205-.455.355-.144.174-.164.27-.06.285.48.071.818.241 1.018.51l.072.142c.056.103.112.285.168.546.055.261.091.55.107.866.04.577.04 1.072 0 1.483-.04.411-.077.732-.113.961a1.91 1.91 0 0 1-.162.557c-.072.143-.12.23-.144.261a.205.205 0 0 1-.06.06.905.905 0 0 1-.323.06c-.112 0-.248-.056-.407-.167a2.863 2.863 0 0 1-.497-.457 6.107 6.107 0 0 1-.581-.812c-.216-.348-.44-.76-.67-1.234l-.192-.344c-.12-.222-.284-.544-.491-.967a18.555 18.555 0 0 1-.551-1.228.783.783 0 0 0-.287-.38L4.515.75a.822.822 0 0 0-.192-.101A1.28 1.28 0 0 0 4.048.57L.767.594C.43.594.204.67.084.82L.036.891a.38.38 0 0 0-.036.19c0 .087.024.194.072.32.479 1.115 1 2.191 1.563 3.227A36.181 36.181 0 0 0 3.1 7.131c.416.633.839 1.23 1.27 1.791.431.562.716.922.856 1.08.14.158.25.277.33.356l.299.285c.191.19.473.417.844.682.371.265.782.526 1.233.783.452.257.976.466 1.575.628a5.494 5.494 0 0 0 1.749.196h1.377c.28-.024.49-.11.635-.26l.047-.06a.782.782 0 0 0 .09-.22c.028-.098.042-.207.042-.326-.008-.34.018-.646.078-.919s.127-.478.203-.617a1.517 1.517 0 0 1 .462-.522.785.785 0 0 1 .095-.041c.192-.063.417-.002.677.184.26.186.503.415.73.688.228.273.501.58.82.92.32.34.6.592.839.759l.24.142c.16.095.367.182.622.261.255.079.479.099.67.06l3.066-.048c.303 0 .54-.05.707-.149.167-.098.267-.207.3-.326a.91.91 0 0 0 .005-.403 1.478 1.478 0 0 0-.084-.315z"/>
</svg>
